<mxfile host="Electron" modified="2024-07-26T09:58:23.424Z" agent="Mozilla/5.0 (Windows NT 10.0; Win64; x64) AppleWebKit/537.36 (KHTML, like Gecko) draw.io/24.6.4 Chrome/124.0.6367.207 Electron/30.0.6 Safari/537.36" etag="bLyDRp5-1lqhh_fsAM2Q" version="24.6.4" type="device" pages="4">
  <diagram name="Page-1" id="ltt5z_w2szjWZz9fcS0m">
    <mxGraphModel dx="568" dy="229" grid="1" gridSize="5" guides="1" tooltips="1" connect="1" arrows="1" fold="1" page="1" pageScale="1" pageWidth="330" pageHeight="220" math="1" shadow="0">
      <root>
        <mxCell id="0" />
        <mxCell id="1" parent="0" />
        <mxCell id="Y-FcVgf2PSeLGQgEc0Tr-1" value="" style="endArrow=none;html=1;rounded=0;fontFamily=Linux Libertine;fontSize=10;labelBackgroundColor=none;" parent="1" edge="1">
          <mxGeometry width="50" height="50" relative="1" as="geometry">
            <mxPoint x="190" y="60" as="sourcePoint" />
            <mxPoint x="300" y="60" as="targetPoint" />
          </mxGeometry>
        </mxCell>
        <mxCell id="Y-FcVgf2PSeLGQgEc0Tr-2" value="" style="endArrow=none;html=1;rounded=0;fontFamily=Linux Libertine;fontSize=10;labelBackgroundColor=none;" parent="1" source="MnUMBIOvAKIwmNQOzPuY-1" edge="1">
          <mxGeometry width="50" height="50" relative="1" as="geometry">
            <mxPoint x="190" y="30" as="sourcePoint" />
            <mxPoint x="320" y="29.83" as="targetPoint" />
          </mxGeometry>
        </mxCell>
        <mxCell id="RkFMOcAwqnY84lJMl6Pi-41" value="" style="endArrow=none;html=1;rounded=0;fillColor=#d5e8d4;strokeColor=#82b366;strokeWidth=10;fontFamily=Linux Libertine;fontSize=10;labelBackgroundColor=none;" parent="1" edge="1">
          <mxGeometry width="50" height="50" relative="1" as="geometry">
            <mxPoint x="80" y="150" as="sourcePoint" />
            <mxPoint x="90" y="150" as="targetPoint" />
          </mxGeometry>
        </mxCell>
        <mxCell id="RkFMOcAwqnY84lJMl6Pi-1" value="" style="endArrow=none;html=1;rounded=0;exitX=1;exitY=0.5;exitDx=0;exitDy=0;fontFamily=Linux Libertine;fontSize=10;labelBackgroundColor=none;" parent="1" source="RkFMOcAwqnY84lJMl6Pi-2" edge="1">
          <mxGeometry width="50" height="50" relative="1" as="geometry">
            <mxPoint x="60" y="93.88" as="sourcePoint" />
            <mxPoint x="320" y="90" as="targetPoint" />
          </mxGeometry>
        </mxCell>
        <mxCell id="RkFMOcAwqnY84lJMl6Pi-2" value="Client/Orch." style="text;html=1;strokeColor=none;fillColor=none;align=center;verticalAlign=middle;rounded=0;fontFamily=Linux Libertine;fontSize=10;whiteSpace=wrap;labelBackgroundColor=none;" parent="1" vertex="1">
          <mxGeometry y="80" width="60" height="20" as="geometry" />
        </mxCell>
        <mxCell id="RkFMOcAwqnY84lJMl6Pi-3" value="" style="endArrow=none;html=1;rounded=0;fontFamily=Linux Libertine;fontSize=10;labelBackgroundColor=none;" parent="1" edge="1">
          <mxGeometry width="50" height="50" relative="1" as="geometry">
            <mxPoint x="60" y="60" as="sourcePoint" />
            <mxPoint x="165" y="60" as="targetPoint" />
          </mxGeometry>
        </mxCell>
        <mxCell id="RkFMOcAwqnY84lJMl6Pi-4" value="&lt;span style=&quot;font-size: 14.1532px; white-space: pre;&quot;&gt;𝜆&lt;/span&gt;&lt;sub style=&quot;font-size: 10px;&quot;&gt;1&lt;/sub&gt;" style="text;html=1;strokeColor=none;fillColor=none;align=center;verticalAlign=middle;rounded=0;fontFamily=Linux Libertine;fontSize=10;whiteSpace=wrap;labelBackgroundColor=none;" parent="1" vertex="1">
          <mxGeometry x="30" y="50" width="40" height="20" as="geometry" />
        </mxCell>
        <mxCell id="RkFMOcAwqnY84lJMl6Pi-5" value="" style="endArrow=none;html=1;rounded=0;fontFamily=Linux Libertine;fontSize=10;labelBackgroundColor=none;" parent="1" edge="1">
          <mxGeometry width="50" height="50" relative="1" as="geometry">
            <mxPoint x="60" y="29.75999999999999" as="sourcePoint" />
            <mxPoint x="165" y="30" as="targetPoint" />
          </mxGeometry>
        </mxCell>
        <mxCell id="RkFMOcAwqnY84lJMl6Pi-7" value="&lt;span style=&quot;font-size: 14.1532px; white-space: pre;&quot;&gt;𝜆&lt;/span&gt;&lt;span style=&quot;font-size: 10px;&quot;&gt;&lt;sub style=&quot;font-size: 10px;&quot;&gt;2&lt;/sub&gt;&lt;/span&gt;" style="text;html=1;strokeColor=none;fillColor=none;align=center;verticalAlign=middle;rounded=0;fontFamily=Linux Libertine;fontSize=10;whiteSpace=wrap;labelBackgroundColor=none;" parent="1" vertex="1">
          <mxGeometry x="30" y="20" width="40" height="20" as="geometry" />
        </mxCell>
        <mxCell id="RkFMOcAwqnY84lJMl6Pi-10" value="" style="endArrow=none;html=1;rounded=0;fillColor=#d5e8d4;strokeColor=#82b366;strokeWidth=10;fontFamily=Linux Libertine;fontSize=10;labelBackgroundColor=none;" parent="1" edge="1">
          <mxGeometry width="50" height="50" relative="1" as="geometry">
            <mxPoint x="80" y="59.83" as="sourcePoint" />
            <mxPoint x="100" y="59.83" as="targetPoint" />
          </mxGeometry>
        </mxCell>
        <mxCell id="RkFMOcAwqnY84lJMl6Pi-11" value="" style="endArrow=none;html=1;rounded=0;fillColor=#d5e8d4;strokeColor=#82b366;strokeWidth=10;fontFamily=Linux Libertine;fontSize=10;labelBackgroundColor=none;flowAnimation=0;" parent="1" edge="1">
          <mxGeometry width="50" height="50" relative="1" as="geometry">
            <mxPoint x="90" y="29.83" as="sourcePoint" />
            <mxPoint x="110" y="29.83" as="targetPoint" />
          </mxGeometry>
        </mxCell>
        <mxCell id="RkFMOcAwqnY84lJMl6Pi-13" value="" style="endArrow=none;html=1;rounded=0;fillColor=#dae8fc;strokeColor=#6c8ebf;strokeWidth=10;dashed=1;targetPerimeterSpacing=0;sourcePerimeterSpacing=0;endSize=6;startSize=6;jumpSize=6;dashPattern=1 1;fontFamily=Linux Libertine;fontSize=10;labelBackgroundColor=none;" parent="1" edge="1">
          <mxGeometry width="50" height="50" relative="1" as="geometry">
            <mxPoint x="95" y="90" as="sourcePoint" />
            <mxPoint x="170" y="90" as="targetPoint" />
          </mxGeometry>
        </mxCell>
        <mxCell id="RkFMOcAwqnY84lJMl6Pi-15" value="" style="endArrow=none;html=1;rounded=0;fillColor=#f8cecc;strokeColor=#b85450;strokeWidth=10;fontFamily=Linux Libertine;fontSize=10;labelBackgroundColor=none;" parent="1" edge="1">
          <mxGeometry width="50" height="50" relative="1" as="geometry">
            <mxPoint x="100" y="59.83" as="sourcePoint" />
            <mxPoint x="140" y="59.83" as="targetPoint" />
          </mxGeometry>
        </mxCell>
        <mxCell id="RkFMOcAwqnY84lJMl6Pi-16" value="" style="endArrow=none;html=1;rounded=0;fillColor=#f8cecc;strokeColor=#b85450;strokeWidth=10;fontFamily=Linux Libertine;fontSize=10;labelBackgroundColor=none;" parent="1" edge="1">
          <mxGeometry width="50" height="50" relative="1" as="geometry">
            <mxPoint x="110" y="29.83" as="sourcePoint" />
            <mxPoint x="150" y="29.83" as="targetPoint" />
          </mxGeometry>
        </mxCell>
        <mxCell id="RkFMOcAwqnY84lJMl6Pi-17" value="" style="endArrow=classic;html=1;rounded=0;endSize=3;startSize=3;dashed=1;fontFamily=Linux Libertine;fontSize=10;labelBackgroundColor=none;" parent="1" edge="1">
          <mxGeometry width="50" height="50" relative="1" as="geometry">
            <mxPoint x="150" y="60" as="sourcePoint" />
            <mxPoint x="160" y="90" as="targetPoint" />
          </mxGeometry>
        </mxCell>
        <mxCell id="RkFMOcAwqnY84lJMl6Pi-20" value="" style="endArrow=none;html=1;rounded=0;fillColor=#d5e8d4;strokeColor=#82b366;strokeWidth=10;fontFamily=Linux Libertine;fontSize=10;labelBackgroundColor=none;" parent="1" edge="1">
          <mxGeometry width="50" height="50" relative="1" as="geometry">
            <mxPoint x="200" y="60" as="sourcePoint" />
            <mxPoint x="220" y="60" as="targetPoint" />
          </mxGeometry>
        </mxCell>
        <mxCell id="RkFMOcAwqnY84lJMl6Pi-21" value="" style="endArrow=none;html=1;rounded=0;fillColor=#d5e8d4;strokeColor=#82b366;strokeWidth=10;fontFamily=Linux Libertine;fontSize=10;labelBackgroundColor=none;" parent="1" edge="1">
          <mxGeometry width="50" height="50" relative="1" as="geometry">
            <mxPoint x="270" y="30" as="sourcePoint" />
            <mxPoint x="290" y="29.75999999999999" as="targetPoint" />
          </mxGeometry>
        </mxCell>
        <mxCell id="RkFMOcAwqnY84lJMl6Pi-22" value="" style="endArrow=none;html=1;rounded=0;fillColor=#dae8fc;strokeColor=#6c8ebf;strokeWidth=10;dashed=1;targetPerimeterSpacing=0;sourcePerimeterSpacing=0;endSize=6;startSize=6;jumpSize=6;dashPattern=1 1;fontFamily=Linux Libertine;fontSize=10;labelBackgroundColor=none;" parent="1" edge="1">
          <mxGeometry width="50" height="50" relative="1" as="geometry">
            <mxPoint x="215" y="90" as="sourcePoint" />
            <mxPoint x="320" y="90" as="targetPoint" />
          </mxGeometry>
        </mxCell>
        <mxCell id="RkFMOcAwqnY84lJMl6Pi-23" value="" style="endArrow=none;html=1;rounded=0;fillColor=#f8cecc;strokeColor=#b85450;strokeWidth=10;fontFamily=Linux Libertine;fontSize=10;labelBackgroundColor=none;" parent="1" edge="1">
          <mxGeometry width="50" height="50" relative="1" as="geometry">
            <mxPoint x="220" y="60" as="sourcePoint" />
            <mxPoint x="260" y="60" as="targetPoint" />
          </mxGeometry>
        </mxCell>
        <mxCell id="RkFMOcAwqnY84lJMl6Pi-24" value="" style="endArrow=none;html=1;rounded=0;fillColor=#f8cecc;strokeColor=#b85450;strokeWidth=10;fontFamily=Linux Libertine;fontSize=10;labelBackgroundColor=none;" parent="1" edge="1">
          <mxGeometry width="50" height="50" relative="1" as="geometry">
            <mxPoint x="290" y="29.669999999999998" as="sourcePoint" />
            <mxPoint x="320" y="29.84" as="targetPoint" />
          </mxGeometry>
        </mxCell>
        <mxCell id="RkFMOcAwqnY84lJMl6Pi-30" value="" style="endArrow=none;html=1;rounded=0;fillColor=#d5e8d4;strokeColor=#82b366;strokeWidth=10;fontFamily=Linux Libertine;fontSize=11;labelBackgroundColor=none;" parent="1" edge="1">
          <mxGeometry x="1" y="50" width="50" height="50" relative="1" as="geometry">
            <mxPoint x="10" y="9.83" as="sourcePoint" />
            <mxPoint x="30" y="10" as="targetPoint" />
            <mxPoint x="50" y="50" as="offset" />
          </mxGeometry>
        </mxCell>
        <mxCell id="RkFMOcAwqnY84lJMl6Pi-31" value="" style="endArrow=none;html=1;rounded=0;fillColor=#f8cecc;strokeColor=#b85450;strokeWidth=10;fontFamily=Linux Libertine;fontSize=11;labelBackgroundColor=none;" parent="1" edge="1">
          <mxGeometry x="1" y="30" width="50" height="50" relative="1" as="geometry">
            <mxPoint x="140" y="9.83" as="sourcePoint" />
            <mxPoint x="160" y="9.83" as="targetPoint" />
            <mxPoint x="30" y="30" as="offset" />
          </mxGeometry>
        </mxCell>
        <mxCell id="RkFMOcAwqnY84lJMl6Pi-32" value="&lt;span style=&quot;color: rgb(0, 0, 0); font-size: 11px; font-style: normal; font-variant-ligatures: normal; font-variant-caps: normal; font-weight: 400; letter-spacing: normal; orphans: 2; text-align: center; text-indent: 0px; text-transform: none; widows: 2; word-spacing: 0px; -webkit-text-stroke-width: 0px; text-decoration-thickness: initial; text-decoration-style: initial; text-decoration-color: initial; float: none; display: inline !important;&quot;&gt;&lt;font style=&quot;font-size: 11px;&quot;&gt;Code/data get/send&lt;/font&gt;&lt;/span&gt;" style="text;html=1;verticalAlign=middle;fontSize=11;fontFamily=Linux Libertine;whiteSpace=wrap;labelBackgroundColor=none;" parent="1" vertex="1">
          <mxGeometry x="35" width="100" height="20" as="geometry" />
        </mxCell>
        <mxCell id="RkFMOcAwqnY84lJMl6Pi-33" value="&lt;span style=&quot;color: rgb(0, 0, 0); font-size: 11px; font-style: normal; font-variant-ligatures: normal; font-variant-caps: normal; font-weight: 400; letter-spacing: normal; orphans: 2; text-align: center; text-indent: 0px; text-transform: none; widows: 2; word-spacing: 0px; -webkit-text-stroke-width: 0px; text-decoration-thickness: initial; text-decoration-style: initial; text-decoration-color: initial; float: none; display: inline !important;&quot;&gt;Compute&lt;/span&gt;" style="text;html=1;verticalAlign=middle;fontSize=11;fontFamily=Linux Libertine;whiteSpace=wrap;labelBackgroundColor=none;" parent="1" vertex="1">
          <mxGeometry x="165" width="43" height="20" as="geometry" />
        </mxCell>
        <mxCell id="RkFMOcAwqnY84lJMl6Pi-34" value="" style="endArrow=none;html=1;rounded=0;exitX=1;exitY=0.5;exitDx=0;exitDy=0;fontFamily=Linux Libertine;fontSize=10;labelBackgroundColor=none;" parent="1" source="RkFMOcAwqnY84lJMl6Pi-35" edge="1">
          <mxGeometry width="50" height="50" relative="1" as="geometry">
            <mxPoint x="60" y="198.88" as="sourcePoint" />
            <mxPoint x="320" y="195" as="targetPoint" />
          </mxGeometry>
        </mxCell>
        <mxCell id="RkFMOcAwqnY84lJMl6Pi-35" value="Client/Trigger" style="text;html=1;strokeColor=none;fillColor=none;align=center;verticalAlign=middle;rounded=0;fontFamily=Linux Libertine;fontSize=10;whiteSpace=wrap;labelBackgroundColor=none;" parent="1" vertex="1">
          <mxGeometry y="185" width="60" height="20" as="geometry" />
        </mxCell>
        <mxCell id="RkFMOcAwqnY84lJMl6Pi-36" value="" style="endArrow=none;html=1;rounded=0;exitX=1;exitY=0.5;exitDx=0;exitDy=0;fontFamily=Linux Libertine;fontSize=10;labelBackgroundColor=none;" parent="1" edge="1">
          <mxGeometry width="50" height="50" relative="1" as="geometry">
            <mxPoint x="60" y="165" as="sourcePoint" />
            <mxPoint x="320" y="165" as="targetPoint" />
          </mxGeometry>
        </mxCell>
        <mxCell id="RkFMOcAwqnY84lJMl6Pi-38" value="" style="endArrow=none;html=1;rounded=0;exitX=1;exitY=0.5;exitDx=0;exitDy=0;fontFamily=Linux Libertine;fontSize=10;labelBackgroundColor=none;" parent="1" edge="1">
          <mxGeometry width="50" height="50" relative="1" as="geometry">
            <mxPoint x="60" y="135" as="sourcePoint" />
            <mxPoint x="320" y="135" as="targetPoint" />
          </mxGeometry>
        </mxCell>
        <mxCell id="RkFMOcAwqnY84lJMl6Pi-54" value="" style="endArrow=none;html=1;rounded=0;fillColor=#f8cecc;strokeColor=#b85450;strokeWidth=10;fontFamily=Linux Libertine;fontSize=10;labelBackgroundColor=none;" parent="1" edge="1">
          <mxGeometry width="50" height="50" relative="1" as="geometry">
            <mxPoint x="160" y="164.83" as="sourcePoint" />
            <mxPoint x="200" y="164.83" as="targetPoint" />
          </mxGeometry>
        </mxCell>
        <mxCell id="RkFMOcAwqnY84lJMl6Pi-55" value="" style="endArrow=none;html=1;rounded=0;fillColor=#f8cecc;strokeColor=#b85450;strokeWidth=10;fontFamily=Linux Libertine;fontSize=10;labelBackgroundColor=none;" parent="1" edge="1">
          <mxGeometry width="50" height="50" relative="1" as="geometry">
            <mxPoint x="160" y="134.83" as="sourcePoint" />
            <mxPoint x="200" y="134.83" as="targetPoint" />
          </mxGeometry>
        </mxCell>
        <mxCell id="RkFMOcAwqnY84lJMl6Pi-62" value="" style="line;strokeWidth=2;html=1;perimeter=backbonePerimeter;points=[];outlineConnect=0;fontFamily=Linux Libertine;fontSize=10;whiteSpace=wrap;labelBackgroundColor=none;" parent="1" vertex="1">
          <mxGeometry x="5" y="115" width="320" height="10" as="geometry" />
        </mxCell>
        <mxCell id="RkFMOcAwqnY84lJMl6Pi-65" value="" style="endArrow=none;html=1;rounded=0;fillColor=#e1d5e7;strokeColor=#9673a6;strokeWidth=10;fontFamily=Linux Libertine;fontSize=10;labelBackgroundColor=none;" parent="1" edge="1">
          <mxGeometry width="50" height="50" relative="1" as="geometry">
            <mxPoint x="140" y="134.83" as="sourcePoint" />
            <mxPoint x="160" y="134.83" as="targetPoint" />
          </mxGeometry>
        </mxCell>
        <mxCell id="RkFMOcAwqnY84lJMl6Pi-66" value="" style="endArrow=none;html=1;rounded=0;fillColor=#e1d5e7;strokeColor=#9673a6;strokeWidth=10;fontFamily=Linux Libertine;fontSize=10;labelBackgroundColor=none;" parent="1" edge="1">
          <mxGeometry width="50" height="50" relative="1" as="geometry">
            <mxPoint x="140" y="164.83" as="sourcePoint" />
            <mxPoint x="160" y="164.83" as="targetPoint" />
          </mxGeometry>
        </mxCell>
        <mxCell id="RkFMOcAwqnY84lJMl6Pi-45" value="" style="endArrow=none;html=1;rounded=0;fillColor=#f8cecc;strokeColor=#b85450;strokeWidth=10;fontFamily=Linux Libertine;fontSize=10;labelBackgroundColor=none;" parent="1" edge="1">
          <mxGeometry width="50" height="50" relative="1" as="geometry">
            <mxPoint x="100" y="134.83" as="sourcePoint" />
            <mxPoint x="140" y="134.83" as="targetPoint" />
          </mxGeometry>
        </mxCell>
        <mxCell id="RkFMOcAwqnY84lJMl6Pi-44" value="" style="endArrow=none;html=1;rounded=0;fillColor=#f8cecc;strokeColor=#b85450;strokeWidth=10;fontFamily=Linux Libertine;fontSize=10;labelBackgroundColor=none;" parent="1" edge="1">
          <mxGeometry width="50" height="50" relative="1" as="geometry">
            <mxPoint x="100" y="164.83" as="sourcePoint" />
            <mxPoint x="140" y="164.83" as="targetPoint" />
          </mxGeometry>
        </mxCell>
        <mxCell id="RkFMOcAwqnY84lJMl6Pi-68" value="FaaS" style="text;html=1;strokeColor=none;fillColor=none;align=left;verticalAlign=middle;rounded=0;fontFamily=Linux Libertine;fontSize=14;fontStyle=1;whiteSpace=wrap;labelBackgroundColor=none;" parent="1" vertex="1">
          <mxGeometry x="280" y="105" width="40" height="10" as="geometry" />
        </mxCell>
        <mxCell id="RkFMOcAwqnY84lJMl6Pi-70" value="Burst" style="text;html=1;strokeColor=none;fillColor=none;align=left;verticalAlign=middle;rounded=0;fontFamily=Linux Libertine;fontSize=14;fontStyle=1;whiteSpace=wrap;labelBackgroundColor=none;" parent="1" vertex="1">
          <mxGeometry x="280" y="205" width="40" height="10" as="geometry" />
        </mxCell>
        <mxCell id="RkFMOcAwqnY84lJMl6Pi-71" value="" style="endArrow=none;html=1;rounded=0;fillColor=#e1d5e7;strokeColor=#9673a6;strokeWidth=10;fontFamily=Linux Libertine;fontSize=11;labelBackgroundColor=none;" parent="1" edge="1">
          <mxGeometry x="1" y="30" width="50" height="50" relative="1" as="geometry">
            <mxPoint x="220" y="10" as="sourcePoint" />
            <mxPoint x="240" y="10" as="targetPoint" />
            <mxPoint x="30" y="30" as="offset" />
          </mxGeometry>
        </mxCell>
        <mxCell id="RkFMOcAwqnY84lJMl6Pi-72" value="&lt;span style=&quot;color: rgb(0, 0, 0); font-size: 11px; font-style: normal; font-variant-ligatures: normal; font-variant-caps: normal; font-weight: 400; letter-spacing: normal; orphans: 2; text-align: center; text-indent: 0px; text-transform: none; widows: 2; word-spacing: 0px; -webkit-text-stroke-width: 0px; text-decoration-thickness: initial; text-decoration-style: initial; text-decoration-color: initial; float: none; display: inline !important;&quot;&gt;Communication&lt;/span&gt;" style="text;html=1;verticalAlign=middle;fontSize=11;fontFamily=Linux Libertine;whiteSpace=wrap;labelBackgroundColor=none;" parent="1" vertex="1">
          <mxGeometry x="245" width="78" height="20" as="geometry" />
        </mxCell>
        <mxCell id="RkFMOcAwqnY84lJMl6Pi-73" value="" style="endArrow=none;html=1;rounded=0;fillColor=#d5e8d4;strokeColor=#82b366;strokeWidth=10;fontFamily=Linux Libertine;fontSize=10;labelBackgroundColor=none;" parent="1" edge="1">
          <mxGeometry width="50" height="50" relative="1" as="geometry">
            <mxPoint x="90" y="134.83" as="sourcePoint" />
            <mxPoint x="100" y="134.83" as="targetPoint" />
          </mxGeometry>
        </mxCell>
        <mxCell id="RkFMOcAwqnY84lJMl6Pi-74" value="" style="endArrow=none;html=1;rounded=0;fillColor=#d5e8d4;strokeColor=#82b366;strokeWidth=10;fontFamily=Linux Libertine;fontSize=10;labelBackgroundColor=none;" parent="1" edge="1">
          <mxGeometry width="50" height="50" relative="1" as="geometry">
            <mxPoint x="90" y="164.83" as="sourcePoint" />
            <mxPoint x="100" y="164.83" as="targetPoint" />
          </mxGeometry>
        </mxCell>
        <mxCell id="RkFMOcAwqnY84lJMl6Pi-75" value="" style="endArrow=none;html=1;rounded=0;fillColor=#d5e8d4;strokeColor=#82b366;strokeWidth=10;fontFamily=Linux Libertine;fontSize=10;labelBackgroundColor=none;" parent="1" edge="1">
          <mxGeometry width="50" height="50" relative="1" as="geometry">
            <mxPoint x="150" y="30" as="sourcePoint" />
            <mxPoint x="160" y="29.83" as="targetPoint" />
          </mxGeometry>
        </mxCell>
        <mxCell id="RkFMOcAwqnY84lJMl6Pi-76" value="" style="endArrow=none;html=1;rounded=0;fillColor=#d5e8d4;strokeColor=#82b366;strokeWidth=10;fontFamily=Linux Libertine;fontSize=10;labelBackgroundColor=none;" parent="1" edge="1">
          <mxGeometry width="50" height="50" relative="1" as="geometry">
            <mxPoint x="140" y="59.83" as="sourcePoint" />
            <mxPoint x="150" y="59.83" as="targetPoint" />
          </mxGeometry>
        </mxCell>
        <mxCell id="RkFMOcAwqnY84lJMl6Pi-78" value="" style="endArrow=none;html=1;rounded=0;fillColor=#d5e8d4;strokeColor=#82b366;strokeWidth=10;fontFamily=Linux Libertine;fontSize=10;labelBackgroundColor=none;" parent="1" edge="1">
          <mxGeometry width="50" height="50" relative="1" as="geometry">
            <mxPoint x="260" y="60" as="sourcePoint" />
            <mxPoint x="270" y="60" as="targetPoint" />
          </mxGeometry>
        </mxCell>
        <mxCell id="RkFMOcAwqnY84lJMl6Pi-79" value="" style="endArrow=none;html=1;rounded=0;fillColor=#d5e8d4;strokeColor=#82b366;strokeWidth=10;fontFamily=Linux Libertine;fontSize=10;labelBackgroundColor=none;" parent="1" edge="1">
          <mxGeometry width="50" height="50" relative="1" as="geometry">
            <mxPoint x="200" y="135" as="sourcePoint" />
            <mxPoint x="210" y="135" as="targetPoint" />
          </mxGeometry>
        </mxCell>
        <mxCell id="RkFMOcAwqnY84lJMl6Pi-80" value="" style="endArrow=none;html=1;rounded=0;fillColor=#d5e8d4;strokeColor=#82b366;strokeWidth=10;fontFamily=Linux Libertine;fontSize=10;labelBackgroundColor=none;" parent="1" edge="1">
          <mxGeometry width="50" height="50" relative="1" as="geometry">
            <mxPoint x="200" y="164.83" as="sourcePoint" />
            <mxPoint x="210" y="164.83" as="targetPoint" />
          </mxGeometry>
        </mxCell>
        <mxCell id="Y-FcVgf2PSeLGQgEc0Tr-5" value="&lt;span style=&quot;color: rgb(0, 0, 0); font-style: normal; font-variant-ligatures: normal; font-variant-caps: normal; letter-spacing: normal; orphans: 2; text-align: center; text-indent: 0px; text-transform: none; widows: 2; word-spacing: 0px; -webkit-text-stroke-width: 0px; text-decoration-thickness: initial; text-decoration-style: initial; text-decoration-color: initial; float: none; font-size: 12px; display: inline !important;&quot;&gt;&lt;font style=&quot;font-size: 12px;&quot;&gt;···&lt;/font&gt;&lt;/span&gt;" style="text;html=1;verticalAlign=middle;fontSize=12;fontFamily=Linux Libertine;whiteSpace=wrap;labelBackgroundColor=none;fontStyle=1" parent="1" vertex="1">
          <mxGeometry x="310" y="50" width="15" height="20" as="geometry" />
        </mxCell>
        <mxCell id="MnUMBIOvAKIwmNQOzPuY-2" value="&lt;span style=&quot;font-size: 14.1532px; white-space: pre;&quot;&gt;𝜆&lt;/span&gt;&lt;sub style=&quot;font-size: 10px;&quot;&gt;3&lt;/sub&gt;" style="text;html=1;strokeColor=none;fillColor=none;align=center;verticalAlign=middle;rounded=0;fontFamily=Linux Libertine;fontSize=10;whiteSpace=wrap;labelBackgroundColor=none;" parent="1" vertex="1">
          <mxGeometry x="160" y="50" width="40" height="20" as="geometry" />
        </mxCell>
        <mxCell id="MnUMBIOvAKIwmNQOzPuY-4" value="" style="endArrow=none;html=1;rounded=0;fontFamily=Linux Libertine;fontSize=10;labelBackgroundColor=none;" parent="1" target="MnUMBIOvAKIwmNQOzPuY-1" edge="1">
          <mxGeometry width="50" height="50" relative="1" as="geometry">
            <mxPoint x="190" y="30" as="sourcePoint" />
            <mxPoint x="320" y="29.83" as="targetPoint" />
          </mxGeometry>
        </mxCell>
        <mxCell id="MnUMBIOvAKIwmNQOzPuY-1" value="&lt;span style=&quot;font-size: 14.1532px; white-space: pre;&quot;&gt;𝜆&lt;/span&gt;&lt;span style=&quot;font-size: 10px;&quot;&gt;&lt;sub style=&quot;font-size: 10px;&quot;&gt;4&lt;/sub&gt;&lt;/span&gt;" style="text;html=1;strokeColor=none;fillColor=none;align=center;verticalAlign=middle;rounded=0;fontFamily=Linux Libertine;fontSize=10;whiteSpace=wrap;labelBackgroundColor=none;" parent="1" vertex="1">
          <mxGeometry x="160" y="20" width="40" height="20" as="geometry" />
        </mxCell>
        <mxCell id="XAOL5xFrdHJyX6w8Xvxh-1" value="&lt;p&gt;&lt;font face=&quot;Linux Libertine&quot;&gt;&lt;span style=&quot;font-size: 14.1532px; white-space: pre;&quot;&gt;𝜆&lt;/span&gt;&lt;sub style=&quot;font-size: 10px;&quot;&gt;1&lt;/sub&gt;&lt;/font&gt;&lt;/p&gt;" style="text;html=1;strokeColor=none;fillColor=none;align=center;verticalAlign=middle;rounded=0;fontFamily=Linux Libertine;fontSize=10;whiteSpace=wrap;fontStyle=0;labelBackgroundColor=none;" parent="1" vertex="1">
          <mxGeometry x="30" y="155" width="40" height="20" as="geometry" />
        </mxCell>
        <mxCell id="XAOL5xFrdHJyX6w8Xvxh-2" value="&lt;span style=&quot;font-size: 14.1532px; white-space: pre;&quot;&gt;𝜆&lt;/span&gt;&lt;span style=&quot;font-size: 10px;&quot;&gt;&lt;sub style=&quot;font-size: 10px;&quot;&gt;2&lt;/sub&gt;&lt;/span&gt;" style="text;html=1;strokeColor=none;fillColor=none;align=center;verticalAlign=middle;rounded=0;fontFamily=Linux Libertine;fontSize=10;whiteSpace=wrap;labelBackgroundColor=none;" parent="1" vertex="1">
          <mxGeometry x="30" y="125" width="40" height="20" as="geometry" />
        </mxCell>
        <mxCell id="RGF79mpgdFHiMiqiZVUP-3" value="" style="endArrow=none;html=1;rounded=0;fillColor=#008a00;strokeColor=#005700;" parent="1" edge="1">
          <mxGeometry width="50" height="50" relative="1" as="geometry">
            <mxPoint x="10" y="15" as="sourcePoint" />
            <mxPoint x="20" y="5" as="targetPoint" />
          </mxGeometry>
        </mxCell>
        <mxCell id="RGF79mpgdFHiMiqiZVUP-4" value="" style="endArrow=none;html=1;rounded=0;fillColor=#008a00;strokeColor=#005700;" parent="1" edge="1">
          <mxGeometry width="50" height="50" relative="1" as="geometry">
            <mxPoint x="20" y="15" as="sourcePoint" />
            <mxPoint x="30" y="5" as="targetPoint" />
          </mxGeometry>
        </mxCell>
        <mxCell id="RGF79mpgdFHiMiqiZVUP-5" value="" style="endArrow=none;html=1;rounded=0;fillColor=#008a00;strokeColor=#005700;" parent="1" edge="1">
          <mxGeometry width="50" height="50" relative="1" as="geometry">
            <mxPoint x="90" y="35" as="sourcePoint" />
            <mxPoint x="100" y="25" as="targetPoint" />
          </mxGeometry>
        </mxCell>
        <mxCell id="RGF79mpgdFHiMiqiZVUP-6" value="" style="endArrow=none;html=1;rounded=0;fillColor=#008a00;strokeColor=#005700;" parent="1" edge="1">
          <mxGeometry width="50" height="50" relative="1" as="geometry">
            <mxPoint x="100" y="35" as="sourcePoint" />
            <mxPoint x="110" y="25" as="targetPoint" />
          </mxGeometry>
        </mxCell>
        <mxCell id="RGF79mpgdFHiMiqiZVUP-7" value="" style="endArrow=none;html=1;rounded=0;fillColor=#008a00;strokeColor=#005700;entryX=0;entryY=0.25;entryDx=0;entryDy=0;" parent="1" target="MnUMBIOvAKIwmNQOzPuY-1" edge="1">
          <mxGeometry width="50" height="50" relative="1" as="geometry">
            <mxPoint x="150" y="35" as="sourcePoint" />
            <mxPoint x="40" y="25" as="targetPoint" />
          </mxGeometry>
        </mxCell>
        <mxCell id="RGF79mpgdFHiMiqiZVUP-8" value="" style="endArrow=none;html=1;rounded=0;fillColor=#008a00;strokeColor=#005700;" parent="1" edge="1">
          <mxGeometry width="50" height="50" relative="1" as="geometry">
            <mxPoint x="80" y="65" as="sourcePoint" />
            <mxPoint x="90" y="55" as="targetPoint" />
          </mxGeometry>
        </mxCell>
        <mxCell id="RGF79mpgdFHiMiqiZVUP-9" value="" style="endArrow=none;html=1;rounded=0;fillColor=#008a00;strokeColor=#005700;" parent="1" edge="1">
          <mxGeometry width="50" height="50" relative="1" as="geometry">
            <mxPoint x="90" y="65" as="sourcePoint" />
            <mxPoint x="100" y="55" as="targetPoint" />
          </mxGeometry>
        </mxCell>
        <mxCell id="RGF79mpgdFHiMiqiZVUP-10" value="" style="endArrow=none;html=1;rounded=0;fillColor=#008a00;strokeColor=#005700;entryX=0;entryY=0.25;entryDx=0;entryDy=0;" parent="1" edge="1">
          <mxGeometry width="50" height="50" relative="1" as="geometry">
            <mxPoint x="140" y="65" as="sourcePoint" />
            <mxPoint x="150" y="55" as="targetPoint" />
          </mxGeometry>
        </mxCell>
        <mxCell id="RGF79mpgdFHiMiqiZVUP-11" value="" style="endArrow=none;html=1;rounded=0;fillColor=#008a00;strokeColor=#005700;" parent="1" edge="1">
          <mxGeometry width="50" height="50" relative="1" as="geometry">
            <mxPoint x="200" y="65" as="sourcePoint" />
            <mxPoint x="210" y="55" as="targetPoint" />
          </mxGeometry>
        </mxCell>
        <mxCell id="RGF79mpgdFHiMiqiZVUP-12" value="" style="endArrow=none;html=1;rounded=0;fillColor=#008a00;strokeColor=#005700;" parent="1" edge="1">
          <mxGeometry width="50" height="50" relative="1" as="geometry">
            <mxPoint x="210" y="65" as="sourcePoint" />
            <mxPoint x="220" y="55" as="targetPoint" />
          </mxGeometry>
        </mxCell>
        <mxCell id="RGF79mpgdFHiMiqiZVUP-13" value="" style="endArrow=none;html=1;rounded=0;fillColor=#008a00;strokeColor=#005700;entryX=0;entryY=0.25;entryDx=0;entryDy=0;" parent="1" edge="1">
          <mxGeometry width="50" height="50" relative="1" as="geometry">
            <mxPoint x="260" y="65" as="sourcePoint" />
            <mxPoint x="270" y="55" as="targetPoint" />
          </mxGeometry>
        </mxCell>
        <mxCell id="RGF79mpgdFHiMiqiZVUP-14" value="" style="endArrow=none;html=1;rounded=0;fillColor=#008a00;strokeColor=#005700;" parent="1" edge="1">
          <mxGeometry width="50" height="50" relative="1" as="geometry">
            <mxPoint x="270" y="35" as="sourcePoint" />
            <mxPoint x="280" y="25" as="targetPoint" />
          </mxGeometry>
        </mxCell>
        <mxCell id="RGF79mpgdFHiMiqiZVUP-15" value="" style="endArrow=none;html=1;rounded=0;fillColor=#008a00;strokeColor=#005700;" parent="1" edge="1">
          <mxGeometry width="50" height="50" relative="1" as="geometry">
            <mxPoint x="280" y="35" as="sourcePoint" />
            <mxPoint x="290" y="25" as="targetPoint" />
          </mxGeometry>
        </mxCell>
        <mxCell id="RGF79mpgdFHiMiqiZVUP-17" value="" style="endArrow=none;html=1;rounded=0;fillColor=#008a00;strokeColor=#005700;entryX=0;entryY=0.25;entryDx=0;entryDy=0;" parent="1" edge="1">
          <mxGeometry width="50" height="50" relative="1" as="geometry">
            <mxPoint x="90" y="140" as="sourcePoint" />
            <mxPoint x="100" y="130" as="targetPoint" />
          </mxGeometry>
        </mxCell>
        <mxCell id="RGF79mpgdFHiMiqiZVUP-18" value="" style="endArrow=none;html=1;rounded=0;fillColor=#008a00;strokeColor=#005700;entryX=0;entryY=0.25;entryDx=0;entryDy=0;" parent="1" edge="1">
          <mxGeometry width="50" height="50" relative="1" as="geometry">
            <mxPoint x="80" y="155" as="sourcePoint" />
            <mxPoint x="90" y="145" as="targetPoint" />
          </mxGeometry>
        </mxCell>
        <mxCell id="RGF79mpgdFHiMiqiZVUP-19" value="" style="endArrow=none;html=1;rounded=0;fillColor=#008a00;strokeColor=#005700;entryX=0;entryY=0.25;entryDx=0;entryDy=0;" parent="1" edge="1">
          <mxGeometry width="50" height="50" relative="1" as="geometry">
            <mxPoint x="90" y="170" as="sourcePoint" />
            <mxPoint x="100" y="160" as="targetPoint" />
          </mxGeometry>
        </mxCell>
        <mxCell id="RGF79mpgdFHiMiqiZVUP-20" value="" style="endArrow=none;html=1;rounded=0;fillColor=#008a00;strokeColor=#005700;entryX=0;entryY=0.25;entryDx=0;entryDy=0;" parent="1" edge="1">
          <mxGeometry width="50" height="50" relative="1" as="geometry">
            <mxPoint x="200" y="140" as="sourcePoint" />
            <mxPoint x="210" y="130" as="targetPoint" />
          </mxGeometry>
        </mxCell>
        <mxCell id="RGF79mpgdFHiMiqiZVUP-21" value="" style="endArrow=none;html=1;rounded=0;fillColor=#008a00;strokeColor=#005700;entryX=0;entryY=0.25;entryDx=0;entryDy=0;" parent="1" edge="1">
          <mxGeometry width="50" height="50" relative="1" as="geometry">
            <mxPoint x="200" y="170" as="sourcePoint" />
            <mxPoint x="210" y="160" as="targetPoint" />
          </mxGeometry>
        </mxCell>
        <mxCell id="RGF79mpgdFHiMiqiZVUP-22" value="" style="endArrow=none;html=1;rounded=0;fillColor=#a20025;strokeColor=#6F0000;" parent="1" edge="1">
          <mxGeometry width="50" height="50" relative="1" as="geometry">
            <mxPoint x="150" y="15" as="sourcePoint" />
            <mxPoint x="140" y="5" as="targetPoint" />
          </mxGeometry>
        </mxCell>
        <mxCell id="RGF79mpgdFHiMiqiZVUP-23" value="" style="endArrow=none;html=1;rounded=0;fillColor=#a20025;strokeColor=#6F0000;" parent="1" edge="1">
          <mxGeometry width="50" height="50" relative="1" as="geometry">
            <mxPoint x="160" y="15" as="sourcePoint" />
            <mxPoint x="150" y="5" as="targetPoint" />
          </mxGeometry>
        </mxCell>
        <mxCell id="RGF79mpgdFHiMiqiZVUP-24" value="" style="endArrow=none;html=1;rounded=0;fillColor=#a20025;strokeColor=#6F0000;" parent="1" edge="1">
          <mxGeometry width="50" height="50" relative="1" as="geometry">
            <mxPoint x="120" y="35" as="sourcePoint" />
            <mxPoint x="110" y="25" as="targetPoint" />
          </mxGeometry>
        </mxCell>
        <mxCell id="RGF79mpgdFHiMiqiZVUP-25" value="" style="endArrow=none;html=1;rounded=0;fillColor=#a20025;strokeColor=#6F0000;" parent="1" edge="1">
          <mxGeometry width="50" height="50" relative="1" as="geometry">
            <mxPoint x="130" y="35" as="sourcePoint" />
            <mxPoint x="120" y="25" as="targetPoint" />
          </mxGeometry>
        </mxCell>
        <mxCell id="RGF79mpgdFHiMiqiZVUP-26" value="" style="endArrow=none;html=1;rounded=0;fillColor=#a20025;strokeColor=#6F0000;" parent="1" edge="1">
          <mxGeometry width="50" height="50" relative="1" as="geometry">
            <mxPoint x="140" y="35" as="sourcePoint" />
            <mxPoint x="130" y="25" as="targetPoint" />
          </mxGeometry>
        </mxCell>
        <mxCell id="RGF79mpgdFHiMiqiZVUP-27" value="" style="endArrow=none;html=1;rounded=0;fillColor=#a20025;strokeColor=#6F0000;" parent="1" edge="1">
          <mxGeometry width="50" height="50" relative="1" as="geometry">
            <mxPoint x="150" y="35" as="sourcePoint" />
            <mxPoint x="140" y="25" as="targetPoint" />
          </mxGeometry>
        </mxCell>
        <mxCell id="RGF79mpgdFHiMiqiZVUP-28" value="" style="endArrow=none;html=1;rounded=0;fillColor=#a20025;strokeColor=#6F0000;" parent="1" edge="1">
          <mxGeometry width="50" height="50" relative="1" as="geometry">
            <mxPoint x="110" y="65" as="sourcePoint" />
            <mxPoint x="100" y="55" as="targetPoint" />
          </mxGeometry>
        </mxCell>
        <mxCell id="RGF79mpgdFHiMiqiZVUP-29" value="" style="endArrow=none;html=1;rounded=0;fillColor=#a20025;strokeColor=#6F0000;" parent="1" edge="1">
          <mxGeometry width="50" height="50" relative="1" as="geometry">
            <mxPoint x="120" y="65" as="sourcePoint" />
            <mxPoint x="110" y="55" as="targetPoint" />
          </mxGeometry>
        </mxCell>
        <mxCell id="RGF79mpgdFHiMiqiZVUP-30" value="" style="endArrow=none;html=1;rounded=0;fillColor=#a20025;strokeColor=#6F0000;" parent="1" edge="1">
          <mxGeometry width="50" height="50" relative="1" as="geometry">
            <mxPoint x="130" y="65" as="sourcePoint" />
            <mxPoint x="120" y="55" as="targetPoint" />
          </mxGeometry>
        </mxCell>
        <mxCell id="RGF79mpgdFHiMiqiZVUP-31" value="" style="endArrow=none;html=1;rounded=0;fillColor=#a20025;strokeColor=#6F0000;" parent="1" edge="1">
          <mxGeometry width="50" height="50" relative="1" as="geometry">
            <mxPoint x="140" y="65" as="sourcePoint" />
            <mxPoint x="130" y="55" as="targetPoint" />
          </mxGeometry>
        </mxCell>
        <mxCell id="RGF79mpgdFHiMiqiZVUP-32" value="" style="endArrow=none;html=1;rounded=0;fillColor=#a20025;strokeColor=#6F0000;" parent="1" edge="1">
          <mxGeometry width="50" height="50" relative="1" as="geometry">
            <mxPoint x="230" y="65" as="sourcePoint" />
            <mxPoint x="220" y="55" as="targetPoint" />
          </mxGeometry>
        </mxCell>
        <mxCell id="RGF79mpgdFHiMiqiZVUP-33" value="" style="endArrow=none;html=1;rounded=0;fillColor=#a20025;strokeColor=#6F0000;" parent="1" edge="1">
          <mxGeometry width="50" height="50" relative="1" as="geometry">
            <mxPoint x="240" y="65" as="sourcePoint" />
            <mxPoint x="230" y="55" as="targetPoint" />
          </mxGeometry>
        </mxCell>
        <mxCell id="RGF79mpgdFHiMiqiZVUP-34" value="" style="endArrow=none;html=1;rounded=0;fillColor=#a20025;strokeColor=#6F0000;" parent="1" edge="1">
          <mxGeometry width="50" height="50" relative="1" as="geometry">
            <mxPoint x="250" y="65" as="sourcePoint" />
            <mxPoint x="240" y="55" as="targetPoint" />
          </mxGeometry>
        </mxCell>
        <mxCell id="RGF79mpgdFHiMiqiZVUP-35" value="" style="endArrow=none;html=1;rounded=0;fillColor=#a20025;strokeColor=#6F0000;" parent="1" edge="1">
          <mxGeometry width="50" height="50" relative="1" as="geometry">
            <mxPoint x="260" y="65" as="sourcePoint" />
            <mxPoint x="250" y="55" as="targetPoint" />
          </mxGeometry>
        </mxCell>
        <mxCell id="RGF79mpgdFHiMiqiZVUP-36" value="" style="endArrow=none;html=1;rounded=0;fillColor=#a20025;strokeColor=#6F0000;" parent="1" edge="1">
          <mxGeometry width="50" height="50" relative="1" as="geometry">
            <mxPoint x="300" y="35" as="sourcePoint" />
            <mxPoint x="290" y="25" as="targetPoint" />
          </mxGeometry>
        </mxCell>
        <mxCell id="RGF79mpgdFHiMiqiZVUP-37" value="" style="endArrow=none;html=1;rounded=0;fillColor=#a20025;strokeColor=#6F0000;" parent="1" edge="1">
          <mxGeometry width="50" height="50" relative="1" as="geometry">
            <mxPoint x="310" y="35" as="sourcePoint" />
            <mxPoint x="300" y="25" as="targetPoint" />
          </mxGeometry>
        </mxCell>
        <mxCell id="RGF79mpgdFHiMiqiZVUP-38" value="" style="endArrow=none;html=1;rounded=0;fillColor=#a20025;strokeColor=#6F0000;" parent="1" edge="1">
          <mxGeometry width="50" height="50" relative="1" as="geometry">
            <mxPoint x="320" y="35" as="sourcePoint" />
            <mxPoint x="310" y="25" as="targetPoint" />
          </mxGeometry>
        </mxCell>
        <mxCell id="RGF79mpgdFHiMiqiZVUP-40" value="" style="endArrow=none;html=1;rounded=0;fillColor=#a20025;strokeColor=#6F0000;" parent="1" edge="1">
          <mxGeometry width="50" height="50" relative="1" as="geometry">
            <mxPoint x="110" y="140" as="sourcePoint" />
            <mxPoint x="100" y="130" as="targetPoint" />
          </mxGeometry>
        </mxCell>
        <mxCell id="RGF79mpgdFHiMiqiZVUP-41" value="" style="endArrow=none;html=1;rounded=0;fillColor=#a20025;strokeColor=#6F0000;" parent="1" edge="1">
          <mxGeometry width="50" height="50" relative="1" as="geometry">
            <mxPoint x="120" y="140" as="sourcePoint" />
            <mxPoint x="110" y="130" as="targetPoint" />
          </mxGeometry>
        </mxCell>
        <mxCell id="RGF79mpgdFHiMiqiZVUP-42" value="" style="endArrow=none;html=1;rounded=0;fillColor=#a20025;strokeColor=#6F0000;" parent="1" edge="1">
          <mxGeometry width="50" height="50" relative="1" as="geometry">
            <mxPoint x="130" y="140" as="sourcePoint" />
            <mxPoint x="120" y="130" as="targetPoint" />
          </mxGeometry>
        </mxCell>
        <mxCell id="RGF79mpgdFHiMiqiZVUP-43" value="" style="endArrow=none;html=1;rounded=0;fillColor=#a20025;strokeColor=#6F0000;" parent="1" edge="1">
          <mxGeometry width="50" height="50" relative="1" as="geometry">
            <mxPoint x="140" y="140" as="sourcePoint" />
            <mxPoint x="130" y="130" as="targetPoint" />
          </mxGeometry>
        </mxCell>
        <mxCell id="RGF79mpgdFHiMiqiZVUP-44" value="" style="endArrow=none;html=1;rounded=0;fillColor=#a20025;strokeColor=#6F0000;" parent="1" edge="1">
          <mxGeometry width="50" height="50" relative="1" as="geometry">
            <mxPoint x="170" y="140" as="sourcePoint" />
            <mxPoint x="160" y="130" as="targetPoint" />
          </mxGeometry>
        </mxCell>
        <mxCell id="RGF79mpgdFHiMiqiZVUP-45" value="" style="endArrow=none;html=1;rounded=0;fillColor=#a20025;strokeColor=#6F0000;" parent="1" edge="1">
          <mxGeometry width="50" height="50" relative="1" as="geometry">
            <mxPoint x="180" y="140" as="sourcePoint" />
            <mxPoint x="170" y="130" as="targetPoint" />
          </mxGeometry>
        </mxCell>
        <mxCell id="RGF79mpgdFHiMiqiZVUP-46" value="" style="endArrow=none;html=1;rounded=0;fillColor=#a20025;strokeColor=#6F0000;" parent="1" edge="1">
          <mxGeometry width="50" height="50" relative="1" as="geometry">
            <mxPoint x="190" y="140" as="sourcePoint" />
            <mxPoint x="180" y="130" as="targetPoint" />
          </mxGeometry>
        </mxCell>
        <mxCell id="RGF79mpgdFHiMiqiZVUP-47" value="" style="endArrow=none;html=1;rounded=0;fillColor=#a20025;strokeColor=#6F0000;" parent="1" edge="1">
          <mxGeometry width="50" height="50" relative="1" as="geometry">
            <mxPoint x="200" y="140" as="sourcePoint" />
            <mxPoint x="190" y="130" as="targetPoint" />
          </mxGeometry>
        </mxCell>
        <mxCell id="RGF79mpgdFHiMiqiZVUP-48" value="" style="endArrow=none;html=1;rounded=0;fillColor=#a20025;strokeColor=#6F0000;" parent="1" edge="1">
          <mxGeometry width="50" height="50" relative="1" as="geometry">
            <mxPoint x="110" y="170" as="sourcePoint" />
            <mxPoint x="100" y="160" as="targetPoint" />
          </mxGeometry>
        </mxCell>
        <mxCell id="RGF79mpgdFHiMiqiZVUP-49" value="" style="endArrow=none;html=1;rounded=0;fillColor=#a20025;strokeColor=#6F0000;" parent="1" edge="1">
          <mxGeometry width="50" height="50" relative="1" as="geometry">
            <mxPoint x="120" y="170" as="sourcePoint" />
            <mxPoint x="110" y="160" as="targetPoint" />
          </mxGeometry>
        </mxCell>
        <mxCell id="RGF79mpgdFHiMiqiZVUP-50" value="" style="endArrow=none;html=1;rounded=0;fillColor=#a20025;strokeColor=#6F0000;" parent="1" edge="1">
          <mxGeometry width="50" height="50" relative="1" as="geometry">
            <mxPoint x="130" y="170" as="sourcePoint" />
            <mxPoint x="120" y="160" as="targetPoint" />
          </mxGeometry>
        </mxCell>
        <mxCell id="RGF79mpgdFHiMiqiZVUP-51" value="" style="endArrow=none;html=1;rounded=0;fillColor=#a20025;strokeColor=#6F0000;" parent="1" edge="1">
          <mxGeometry width="50" height="50" relative="1" as="geometry">
            <mxPoint x="140" y="170" as="sourcePoint" />
            <mxPoint x="130" y="160" as="targetPoint" />
          </mxGeometry>
        </mxCell>
        <mxCell id="RGF79mpgdFHiMiqiZVUP-52" value="" style="endArrow=none;html=1;rounded=0;fillColor=#a20025;strokeColor=#6F0000;" parent="1" edge="1">
          <mxGeometry width="50" height="50" relative="1" as="geometry">
            <mxPoint x="170" y="170" as="sourcePoint" />
            <mxPoint x="160" y="160" as="targetPoint" />
          </mxGeometry>
        </mxCell>
        <mxCell id="RGF79mpgdFHiMiqiZVUP-53" value="" style="endArrow=none;html=1;rounded=0;fillColor=#a20025;strokeColor=#6F0000;" parent="1" edge="1">
          <mxGeometry width="50" height="50" relative="1" as="geometry">
            <mxPoint x="180" y="170" as="sourcePoint" />
            <mxPoint x="170" y="160" as="targetPoint" />
          </mxGeometry>
        </mxCell>
        <mxCell id="RGF79mpgdFHiMiqiZVUP-54" value="" style="endArrow=none;html=1;rounded=0;fillColor=#a20025;strokeColor=#6F0000;" parent="1" edge="1">
          <mxGeometry width="50" height="50" relative="1" as="geometry">
            <mxPoint x="190" y="170" as="sourcePoint" />
            <mxPoint x="180" y="160" as="targetPoint" />
          </mxGeometry>
        </mxCell>
        <mxCell id="RGF79mpgdFHiMiqiZVUP-55" value="" style="endArrow=none;html=1;rounded=0;fillColor=#a20025;strokeColor=#6F0000;" parent="1" edge="1">
          <mxGeometry width="50" height="50" relative="1" as="geometry">
            <mxPoint x="200" y="170" as="sourcePoint" />
            <mxPoint x="190" y="160" as="targetPoint" />
          </mxGeometry>
        </mxCell>
        <mxCell id="RGF79mpgdFHiMiqiZVUP-56" value="" style="endArrow=none;html=1;rounded=0;fillColor=#76608a;strokeColor=#432D57;" parent="1" edge="1">
          <mxGeometry width="50" height="50" relative="1" as="geometry">
            <mxPoint x="230" y="15" as="sourcePoint" />
            <mxPoint x="220" y="5" as="targetPoint" />
          </mxGeometry>
        </mxCell>
        <mxCell id="RGF79mpgdFHiMiqiZVUP-57" value="" style="endArrow=none;html=1;rounded=0;fillColor=#76608a;strokeColor=#432D57;" parent="1" edge="1">
          <mxGeometry width="50" height="50" relative="1" as="geometry">
            <mxPoint x="230" y="5" as="sourcePoint" />
            <mxPoint x="220" y="15" as="targetPoint" />
          </mxGeometry>
        </mxCell>
        <mxCell id="RGF79mpgdFHiMiqiZVUP-58" value="" style="endArrow=none;html=1;rounded=0;fillColor=#76608a;strokeColor=#432D57;" parent="1" edge="1">
          <mxGeometry width="50" height="50" relative="1" as="geometry">
            <mxPoint x="240" y="15" as="sourcePoint" />
            <mxPoint x="230" y="5" as="targetPoint" />
          </mxGeometry>
        </mxCell>
        <mxCell id="RGF79mpgdFHiMiqiZVUP-59" value="" style="endArrow=none;html=1;rounded=0;fillColor=#76608a;strokeColor=#432D57;" parent="1" edge="1">
          <mxGeometry width="50" height="50" relative="1" as="geometry">
            <mxPoint x="240" y="5" as="sourcePoint" />
            <mxPoint x="230" y="15" as="targetPoint" />
          </mxGeometry>
        </mxCell>
        <mxCell id="RGF79mpgdFHiMiqiZVUP-60" value="" style="endArrow=none;html=1;rounded=0;fillColor=#76608a;strokeColor=#432D57;" parent="1" edge="1">
          <mxGeometry width="50" height="50" relative="1" as="geometry">
            <mxPoint x="150" y="140" as="sourcePoint" />
            <mxPoint x="140" y="130" as="targetPoint" />
          </mxGeometry>
        </mxCell>
        <mxCell id="RGF79mpgdFHiMiqiZVUP-61" value="" style="endArrow=none;html=1;rounded=0;fillColor=#76608a;strokeColor=#432D57;" parent="1" edge="1">
          <mxGeometry width="50" height="50" relative="1" as="geometry">
            <mxPoint x="150" y="130" as="sourcePoint" />
            <mxPoint x="140" y="140" as="targetPoint" />
          </mxGeometry>
        </mxCell>
        <mxCell id="RGF79mpgdFHiMiqiZVUP-62" value="" style="endArrow=none;html=1;rounded=0;fillColor=#76608a;strokeColor=#432D57;" parent="1" edge="1">
          <mxGeometry width="50" height="50" relative="1" as="geometry">
            <mxPoint x="160" y="140" as="sourcePoint" />
            <mxPoint x="150" y="130" as="targetPoint" />
          </mxGeometry>
        </mxCell>
        <mxCell id="RGF79mpgdFHiMiqiZVUP-63" value="" style="endArrow=none;html=1;rounded=0;fillColor=#76608a;strokeColor=#432D57;" parent="1" edge="1">
          <mxGeometry width="50" height="50" relative="1" as="geometry">
            <mxPoint x="160" y="130" as="sourcePoint" />
            <mxPoint x="150" y="140" as="targetPoint" />
          </mxGeometry>
        </mxCell>
        <mxCell id="RGF79mpgdFHiMiqiZVUP-64" value="" style="endArrow=none;html=1;rounded=0;fillColor=#76608a;strokeColor=#432D57;" parent="1" edge="1">
          <mxGeometry width="50" height="50" relative="1" as="geometry">
            <mxPoint x="150" y="170" as="sourcePoint" />
            <mxPoint x="140" y="160" as="targetPoint" />
          </mxGeometry>
        </mxCell>
        <mxCell id="RGF79mpgdFHiMiqiZVUP-65" value="" style="endArrow=none;html=1;rounded=0;fillColor=#76608a;strokeColor=#432D57;" parent="1" edge="1">
          <mxGeometry width="50" height="50" relative="1" as="geometry">
            <mxPoint x="150" y="160" as="sourcePoint" />
            <mxPoint x="140" y="170" as="targetPoint" />
          </mxGeometry>
        </mxCell>
        <mxCell id="RGF79mpgdFHiMiqiZVUP-66" value="" style="endArrow=none;html=1;rounded=0;fillColor=#76608a;strokeColor=#432D57;" parent="1" edge="1">
          <mxGeometry width="50" height="50" relative="1" as="geometry">
            <mxPoint x="160" y="170" as="sourcePoint" />
            <mxPoint x="150" y="160" as="targetPoint" />
          </mxGeometry>
        </mxCell>
        <mxCell id="RGF79mpgdFHiMiqiZVUP-67" value="" style="endArrow=none;html=1;rounded=0;fillColor=#76608a;strokeColor=#432D57;" parent="1" edge="1">
          <mxGeometry width="50" height="50" relative="1" as="geometry">
            <mxPoint x="160" y="160" as="sourcePoint" />
            <mxPoint x="150" y="170" as="targetPoint" />
          </mxGeometry>
        </mxCell>
        <mxCell id="RkFMOcAwqnY84lJMl6Pi-67" value="" style="shape=flexArrow;endArrow=classic;startArrow=classic;html=1;rounded=0;startWidth=6.888888888888889;startSize=1.2233333333333334;endWidth=6.888888888888889;endSize=1.2233333333333334;width=4;fillColor=#e1d5e7;strokeColor=#9673a6;shadow=0;fontFamily=Linux Libertine;fontSize=10;labelBackgroundColor=none;" parent="1" edge="1">
          <mxGeometry width="100" height="100" relative="1" as="geometry">
            <mxPoint x="150" y="160" as="sourcePoint" />
            <mxPoint x="150" y="140" as="targetPoint" />
          </mxGeometry>
        </mxCell>
        <mxCell id="RkFMOcAwqnY84lJMl6Pi-29" value="&lt;font style=&quot;font-size: 10px;&quot;&gt;Wait&lt;/font&gt;" style="shape=curlyBracket;html=1;rounded=1;flipH=1;labelPosition=center;verticalLabelPosition=bottom;align=center;verticalAlign=top;direction=north;size=0.5;fillColor=#dae8fc;strokeColor=#000000;spacing=-5;fontColor=#000000;fontFamily=Linux Libertine;fontSize=10;whiteSpace=wrap;labelBackgroundColor=none;" parent="1" vertex="1">
          <mxGeometry x="90" y="95" width="80" height="10" as="geometry" />
        </mxCell>
        <mxCell id="vC6EmAwwSUwE0xG75G-e-1" value="" style="rounded=0;whiteSpace=wrap;html=1;fillColor=none;fontColor=#ffffff;strokeColor=#005700;" vertex="1" parent="1">
          <mxGeometry x="10" y="5" width="20" height="10" as="geometry" />
        </mxCell>
        <mxCell id="vC6EmAwwSUwE0xG75G-e-2" value="" style="rounded=0;whiteSpace=wrap;html=1;fillColor=none;fontColor=#ffffff;strokeColor=#005700;" vertex="1" parent="1">
          <mxGeometry x="90" y="25" width="20" height="10" as="geometry" />
        </mxCell>
        <mxCell id="vC6EmAwwSUwE0xG75G-e-3" value="" style="rounded=0;whiteSpace=wrap;html=1;fillColor=none;fontColor=#ffffff;strokeColor=#005700;" vertex="1" parent="1">
          <mxGeometry x="80" y="55" width="20" height="10" as="geometry" />
        </mxCell>
        <mxCell id="RkFMOcAwqnY84lJMl6Pi-9" value="" style="endArrow=classic;html=1;rounded=0;endSize=3;startSize=3;jumpSize=6;fontFamily=Linux Libertine;fontSize=10;labelBackgroundColor=none;" parent="1" edge="1">
          <mxGeometry width="50" height="50" relative="1" as="geometry">
            <mxPoint x="80" y="90" as="sourcePoint" />
            <mxPoint x="90" y="30" as="targetPoint" />
          </mxGeometry>
        </mxCell>
        <mxCell id="RkFMOcAwqnY84lJMl6Pi-8" value="" style="endArrow=classic;html=1;rounded=0;endSize=3;startSize=3;fontFamily=Linux Libertine;fontSize=10;labelBackgroundColor=none;" parent="1" edge="1">
          <mxGeometry width="50" height="50" relative="1" as="geometry">
            <mxPoint x="75" y="90" as="sourcePoint" />
            <mxPoint x="80" y="60" as="targetPoint" />
          </mxGeometry>
        </mxCell>
        <mxCell id="RkFMOcAwqnY84lJMl6Pi-12" value="" style="endArrow=none;html=1;rounded=0;fillColor=#dae8fc;strokeColor=#6c8ebf;strokeWidth=10;fontFamily=Linux Libertine;fontSize=10;labelBackgroundColor=none;" parent="1" edge="1">
          <mxGeometry width="50" height="50" relative="1" as="geometry">
            <mxPoint x="70" y="90" as="sourcePoint" />
            <mxPoint x="90" y="90" as="targetPoint" />
          </mxGeometry>
        </mxCell>
        <mxCell id="vC6EmAwwSUwE0xG75G-e-5" value="" style="rounded=0;whiteSpace=wrap;html=1;fillColor=none;fontColor=#ffffff;strokeColor=#005700;" vertex="1" parent="1">
          <mxGeometry x="270" y="25" width="20" height="10" as="geometry" />
        </mxCell>
        <mxCell id="vC6EmAwwSUwE0xG75G-e-6" value="" style="rounded=0;whiteSpace=wrap;html=1;fillColor=none;fontColor=#ffffff;strokeColor=#005700;" vertex="1" parent="1">
          <mxGeometry x="200" y="55" width="20" height="10" as="geometry" />
        </mxCell>
        <mxCell id="vC6EmAwwSUwE0xG75G-e-8" value="" style="rounded=0;whiteSpace=wrap;html=1;fillColor=none;fontColor=#ffffff;strokeColor=#005700;" vertex="1" parent="1">
          <mxGeometry x="150" y="25" width="10" height="10" as="geometry" />
        </mxCell>
        <mxCell id="vC6EmAwwSUwE0xG75G-e-9" value="" style="rounded=0;whiteSpace=wrap;html=1;fillColor=none;fontColor=#ffffff;strokeColor=#005700;" vertex="1" parent="1">
          <mxGeometry x="140" y="55" width="10" height="10" as="geometry" />
        </mxCell>
        <mxCell id="vC6EmAwwSUwE0xG75G-e-11" value="" style="rounded=0;whiteSpace=wrap;html=1;fillColor=none;fontColor=#ffffff;strokeColor=#005700;" vertex="1" parent="1">
          <mxGeometry x="260" y="55" width="10" height="10" as="geometry" />
        </mxCell>
        <mxCell id="vC6EmAwwSUwE0xG75G-e-12" value="" style="rounded=0;whiteSpace=wrap;html=1;fillColor=none;fontColor=#ffffff;strokeColor=#005700;" vertex="1" parent="1">
          <mxGeometry x="90" y="130" width="10" height="10" as="geometry" />
        </mxCell>
        <mxCell id="vC6EmAwwSUwE0xG75G-e-13" value="" style="rounded=0;whiteSpace=wrap;html=1;fillColor=none;fontColor=#ffffff;strokeColor=#005700;" vertex="1" parent="1">
          <mxGeometry x="80" y="145" width="10" height="10" as="geometry" />
        </mxCell>
        <mxCell id="vC6EmAwwSUwE0xG75G-e-14" value="" style="rounded=0;whiteSpace=wrap;html=1;fillColor=none;fontColor=#ffffff;strokeColor=#005700;" vertex="1" parent="1">
          <mxGeometry x="90" y="160" width="10" height="10" as="geometry" />
        </mxCell>
        <mxCell id="vC6EmAwwSUwE0xG75G-e-15" value="" style="rounded=0;whiteSpace=wrap;html=1;fillColor=none;fontColor=#ffffff;strokeColor=#005700;" vertex="1" parent="1">
          <mxGeometry x="200" y="160" width="10" height="10" as="geometry" />
        </mxCell>
        <mxCell id="vC6EmAwwSUwE0xG75G-e-16" value="" style="rounded=0;whiteSpace=wrap;html=1;fillColor=none;fontColor=#ffffff;strokeColor=#005700;" vertex="1" parent="1">
          <mxGeometry x="200" y="130" width="10" height="10" as="geometry" />
        </mxCell>
        <mxCell id="vC6EmAwwSUwE0xG75G-e-17" value="" style="rounded=0;whiteSpace=wrap;html=1;fillColor=none;fontColor=#ffffff;strokeColor=#6F0000;" vertex="1" parent="1">
          <mxGeometry x="140" y="5" width="20" height="10" as="geometry" />
        </mxCell>
        <mxCell id="vC6EmAwwSUwE0xG75G-e-19" value="" style="rounded=0;whiteSpace=wrap;html=1;fillColor=none;fontColor=#ffffff;strokeColor=#6F0000;" vertex="1" parent="1">
          <mxGeometry x="110" y="25" width="40" height="10" as="geometry" />
        </mxCell>
        <mxCell id="vC6EmAwwSUwE0xG75G-e-20" value="" style="rounded=0;whiteSpace=wrap;html=1;fillColor=none;fontColor=#ffffff;strokeColor=#6F0000;" vertex="1" parent="1">
          <mxGeometry x="100" y="55" width="40" height="10" as="geometry" />
        </mxCell>
        <mxCell id="vC6EmAwwSUwE0xG75G-e-21" value="" style="rounded=0;whiteSpace=wrap;html=1;fillColor=none;fontColor=#ffffff;strokeColor=#6F0000;" vertex="1" parent="1">
          <mxGeometry x="220" y="55" width="40" height="10" as="geometry" />
        </mxCell>
        <mxCell id="vC6EmAwwSUwE0xG75G-e-22" value="" style="rounded=0;whiteSpace=wrap;html=1;fillColor=none;fontColor=#ffffff;strokeColor=#6F0000;" vertex="1" parent="1">
          <mxGeometry x="290" y="25" width="30" height="10" as="geometry" />
        </mxCell>
        <mxCell id="vC6EmAwwSUwE0xG75G-e-23" value="" style="rounded=0;whiteSpace=wrap;html=1;fillColor=none;fontColor=#ffffff;strokeColor=#6F0000;" vertex="1" parent="1">
          <mxGeometry x="100" y="130" width="40" height="10" as="geometry" />
        </mxCell>
        <mxCell id="vC6EmAwwSUwE0xG75G-e-25" value="" style="rounded=0;whiteSpace=wrap;html=1;fillColor=none;fontColor=#ffffff;strokeColor=#6F0000;" vertex="1" parent="1">
          <mxGeometry x="160" y="130" width="40" height="10" as="geometry" />
        </mxCell>
        <mxCell id="vC6EmAwwSUwE0xG75G-e-26" value="" style="rounded=0;whiteSpace=wrap;html=1;fillColor=none;fontColor=#ffffff;strokeColor=#6F0000;" vertex="1" parent="1">
          <mxGeometry x="100" y="160" width="40" height="10" as="geometry" />
        </mxCell>
        <mxCell id="vC6EmAwwSUwE0xG75G-e-27" value="" style="rounded=0;whiteSpace=wrap;html=1;fillColor=none;fontColor=#ffffff;strokeColor=#6F0000;" vertex="1" parent="1">
          <mxGeometry x="160" y="160" width="40" height="10" as="geometry" />
        </mxCell>
        <mxCell id="vC6EmAwwSUwE0xG75G-e-28" value="" style="rounded=0;whiteSpace=wrap;html=1;fillColor=none;strokeColor=#432D57;fontColor=#ffffff;" vertex="1" parent="1">
          <mxGeometry x="220" y="5" width="20" height="10" as="geometry" />
        </mxCell>
        <mxCell id="vC6EmAwwSUwE0xG75G-e-29" value="" style="rounded=0;whiteSpace=wrap;html=1;fillColor=none;strokeColor=#432D57;fontColor=#ffffff;" vertex="1" parent="1">
          <mxGeometry x="140" y="130" width="20" height="10" as="geometry" />
        </mxCell>
        <mxCell id="vC6EmAwwSUwE0xG75G-e-30" value="" style="rounded=0;whiteSpace=wrap;html=1;fillColor=none;strokeColor=#432D57;fontColor=#ffffff;" vertex="1" parent="1">
          <mxGeometry x="140" y="160" width="20" height="10" as="geometry" />
        </mxCell>
        <mxCell id="RkFMOcAwqnY84lJMl6Pi-19" value="" style="endArrow=classic;html=1;rounded=0;endSize=3;startSize=3;fontFamily=Linux Libertine;fontSize=10;labelBackgroundColor=none;" parent="1" edge="1">
          <mxGeometry width="50" height="50" relative="1" as="geometry">
            <mxPoint x="190" y="90" as="sourcePoint" />
            <mxPoint x="200" y="60" as="targetPoint" />
          </mxGeometry>
        </mxCell>
        <mxCell id="RkFMOcAwqnY84lJMl6Pi-25" value="" style="endArrow=classic;html=1;rounded=0;endSize=3;startSize=3;jumpSize=6;fontFamily=Linux Libertine;fontSize=10;labelBackgroundColor=none;" parent="1" edge="1">
          <mxGeometry width="50" height="50" relative="1" as="geometry">
            <mxPoint x="200" y="90" as="sourcePoint" />
            <mxPoint x="210" y="30" as="targetPoint" />
          </mxGeometry>
        </mxCell>
        <mxCell id="RkFMOcAwqnY84lJMl6Pi-14" value="" style="endArrow=none;html=1;rounded=0;fillColor=#dae8fc;strokeColor=#6c8ebf;strokeWidth=10;fontFamily=Linux Libertine;fontSize=10;labelBackgroundColor=none;" parent="1" edge="1">
          <mxGeometry width="50" height="50" relative="1" as="geometry">
            <mxPoint x="170" y="90" as="sourcePoint" />
            <mxPoint x="210" y="90" as="targetPoint" />
          </mxGeometry>
        </mxCell>
        <mxCell id="RkFMOcAwqnY84lJMl6Pi-18" value="" style="endArrow=classic;html=1;rounded=0;endSize=3;startSize=3;dashed=1;fontFamily=Linux Libertine;fontSize=10;labelBackgroundColor=none;" parent="1" edge="1">
          <mxGeometry width="50" height="50" relative="1" as="geometry">
            <mxPoint x="160" y="30" as="sourcePoint" />
            <mxPoint x="170" y="90" as="targetPoint" />
          </mxGeometry>
        </mxCell>
        <mxCell id="RkFMOcAwqnY84lJMl6Pi-26" value="" style="endArrow=classic;html=1;rounded=0;endSize=3;startSize=3;dashed=1;fontFamily=Linux Libertine;fontSize=10;labelBackgroundColor=none;" parent="1" edge="1">
          <mxGeometry width="50" height="50" relative="1" as="geometry">
            <mxPoint x="270" y="60" as="sourcePoint" />
            <mxPoint x="280" y="90" as="targetPoint" />
          </mxGeometry>
        </mxCell>
        <mxCell id="Y-FcVgf2PSeLGQgEc0Tr-3" value="&lt;font style=&quot;font-size: 10px;&quot;&gt;Service delay&lt;/font&gt;" style="shape=curlyBracket;html=1;rounded=1;flipH=1;labelPosition=center;verticalLabelPosition=bottom;align=center;verticalAlign=top;direction=north;size=0.5;fillColor=#dae8fc;strokeColor=#000000;spacing=-9;fontColor=#000000;fontFamily=Linux Libertine;fontSize=10;whiteSpace=wrap;labelBackgroundColor=none;" parent="1" vertex="1">
          <mxGeometry x="215" y="35" width="55" height="10" as="geometry" />
        </mxCell>
        <mxCell id="RkFMOcAwqnY84lJMl6Pi-64" value="" style="endArrow=none;dashed=1;html=1;strokeWidth=2;rounded=0;fontFamily=Linux Libertine;fontSize=10;labelBackgroundColor=none;" parent="1" edge="1">
          <mxGeometry width="50" height="50" relative="1" as="geometry">
            <mxPoint x="100" y="135" as="sourcePoint" />
            <mxPoint x="100" y="165" as="targetPoint" />
          </mxGeometry>
        </mxCell>
        <mxCell id="RkFMOcAwqnY84lJMl6Pi-63" value="" style="endArrow=none;dashed=1;html=1;strokeWidth=2;rounded=0;fontFamily=Linux Libertine;fontSize=10;labelBackgroundColor=none;" parent="1" edge="1">
          <mxGeometry width="50" height="50" relative="1" as="geometry">
            <mxPoint x="80" y="135" as="sourcePoint" />
            <mxPoint x="80" y="165" as="targetPoint" />
          </mxGeometry>
        </mxCell>
        <mxCell id="RkFMOcAwqnY84lJMl6Pi-40" value="&lt;font style=&quot;font-size: 10px;&quot;&gt;Flare&lt;/font&gt;" style="endArrow=classic;html=1;rounded=0;endSize=3;startSize=3;fontFamily=Linux Libertine;fontSize=10;labelBackgroundColor=none;" parent="1" edge="1">
          <mxGeometry x="-0.2683" y="-13" width="50" height="50" relative="1" as="geometry">
            <mxPoint x="75" y="195" as="sourcePoint" />
            <mxPoint x="80" y="150" as="targetPoint" />
            <mxPoint as="offset" />
          </mxGeometry>
        </mxCell>
        <mxCell id="RkFMOcAwqnY84lJMl6Pi-47" value="" style="endArrow=none;html=1;rounded=0;fillColor=#dae8fc;strokeColor=#6c8ebf;strokeWidth=10;fontFamily=Linux Libertine;fontSize=10;labelBackgroundColor=none;" parent="1" edge="1">
          <mxGeometry width="50" height="50" relative="1" as="geometry">
            <mxPoint x="70" y="195" as="sourcePoint" />
            <mxPoint x="85" y="195" as="targetPoint" />
          </mxGeometry>
        </mxCell>
      </root>
    </mxGraphModel>
  </diagram>
  <diagram id="-6cAYydasnn2f6OzeAV4" name="Page-2">
    <mxGraphModel grid="1" page="1" gridSize="5" guides="1" tooltips="1" connect="1" arrows="1" fold="1" pageScale="1" pageWidth="333" pageHeight="300" math="0" shadow="0">
      <root>
        <mxCell id="0" />
        <mxCell id="1" parent="0" />
        <mxCell id="5jcMdOJW1r-zkQpPkOGE-5" value="" style="rounded=1;whiteSpace=wrap;html=1;fillColor=#fff2cc;strokeColor=#d6b656;fontFamily=Times New Roman;fontSize=9;" vertex="1" parent="1">
          <mxGeometry x="95" y="5" width="230" height="140" as="geometry" />
        </mxCell>
        <mxCell id="5jcMdOJW1r-zkQpPkOGE-1" value="Client" style="outlineConnect=0;dashed=0;verticalLabelPosition=bottom;verticalAlign=top;align=center;html=1;shape=mxgraph.aws3.management_console;fillColor=#D2D3D3;gradientColor=none;fontFamily=Times New Roman;fontSize=9;spacing=-4;" vertex="1" parent="1">
          <mxGeometry x="5" y="60" width="30" height="30" as="geometry" />
        </mxCell>
        <mxCell id="5jcMdOJW1r-zkQpPkOGE-10" style="edgeStyle=orthogonalEdgeStyle;rounded=1;orthogonalLoop=1;jettySize=auto;html=1;curved=0;strokeColor=default;endArrow=classic;endFill=1;endSize=4;startSize=4;fontFamily=Times New Roman;fontSize=9;" edge="1" parent="1" source="5jcMdOJW1r-zkQpPkOGE-4" target="5jcMdOJW1r-zkQpPkOGE-6">
          <mxGeometry relative="1" as="geometry">
            <Array as="points">
              <mxPoint x="130" y="75" />
              <mxPoint x="130" y="10" />
              <mxPoint x="167" y="10" />
            </Array>
          </mxGeometry>
        </mxCell>
        <mxCell id="5jcMdOJW1r-zkQpPkOGE-4" value="Controller" style="rounded=0;fontFamily=Times New Roman;fontSize=9;fillColor=#ffe6cc;strokeColor=#d79b00;spacing=0;html=1;whiteSpace=wrap;spacingBottom=2;" vertex="1" parent="1">
          <mxGeometry x="75" y="55" width="45" height="40" as="geometry" />
        </mxCell>
        <mxCell id="5jcMdOJW1r-zkQpPkOGE-6" value="Instance 0" style="rounded=0;whiteSpace=wrap;html=1;fontFamily=Times New Roman;fontSize=9;verticalAlign=top;horizontal=1;spacing=-3;fillColor=#d5e8d4;strokeColor=#82b366;spacingTop=0;" vertex="1" parent="1">
          <mxGeometry x="139.5" y="20" width="55" height="40" as="geometry" />
        </mxCell>
        <mxCell id="5jcMdOJW1r-zkQpPkOGE-7" value="Instance 3" style="rounded=0;whiteSpace=wrap;html=1;fontFamily=Times New Roman;fontSize=9;verticalAlign=bottom;horizontal=1;spacing=0;fillColor=#d5e8d4;strokeColor=#82b366;spacingBottom=2;" vertex="1" parent="1">
          <mxGeometry x="140" y="90" width="55" height="40" as="geometry" />
        </mxCell>
        <mxCell id="5jcMdOJW1r-zkQpPkOGE-8" value="Instance 1" style="rounded=0;whiteSpace=wrap;html=1;fontFamily=Times New Roman;fontSize=9;verticalAlign=top;horizontal=1;spacing=-3;fillColor=#d5e8d4;strokeColor=#82b366;spacingTop=0;" vertex="1" parent="1">
          <mxGeometry x="200" y="20" width="55" height="40" as="geometry" />
        </mxCell>
        <mxCell id="5jcMdOJW1r-zkQpPkOGE-9" value="Instance 4" style="rounded=0;whiteSpace=wrap;html=1;fontFamily=Times New Roman;fontSize=9;verticalAlign=bottom;horizontal=1;spacing=0;fillColor=#d5e8d4;strokeColor=#82b366;spacingBottom=2;" vertex="1" parent="1">
          <mxGeometry x="200" y="90" width="55" height="40" as="geometry" />
        </mxCell>
        <mxCell id="5jcMdOJW1r-zkQpPkOGE-11" value="" style="endArrow=none;html=1;rounded=0;fontFamily=Times New Roman;fontSize=9;" edge="1" parent="1">
          <mxGeometry width="50" height="50" relative="1" as="geometry">
            <mxPoint y="150" as="sourcePoint" />
            <mxPoint x="330" y="150" as="targetPoint" />
          </mxGeometry>
        </mxCell>
        <mxCell id="5jcMdOJW1r-zkQpPkOGE-13" style="edgeStyle=orthogonalEdgeStyle;rounded=1;orthogonalLoop=1;jettySize=auto;html=1;curved=0;strokeColor=default;endArrow=classic;endFill=1;endSize=4;startSize=4;fontFamily=Times New Roman;fontSize=9;" edge="1" parent="1" source="5jcMdOJW1r-zkQpPkOGE-4" target="5jcMdOJW1r-zkQpPkOGE-8">
          <mxGeometry relative="1" as="geometry">
            <mxPoint x="129.5" y="80" as="sourcePoint" />
            <mxPoint x="179.5" y="15" as="targetPoint" />
            <Array as="points">
              <mxPoint x="130" y="75" />
              <mxPoint x="130" y="10" />
              <mxPoint x="228" y="10" />
            </Array>
          </mxGeometry>
        </mxCell>
        <mxCell id="5jcMdOJW1r-zkQpPkOGE-14" style="edgeStyle=orthogonalEdgeStyle;rounded=1;orthogonalLoop=1;jettySize=auto;html=1;curved=0;strokeColor=default;endArrow=classic;endFill=1;endSize=4;startSize=4;fontFamily=Times New Roman;fontSize=9;" edge="1" parent="1" source="5jcMdOJW1r-zkQpPkOGE-4" target="5jcMdOJW1r-zkQpPkOGE-7">
          <mxGeometry relative="1" as="geometry">
            <mxPoint x="129.5" y="80" as="sourcePoint" />
            <mxPoint x="269.5" y="15" as="targetPoint" />
            <Array as="points">
              <mxPoint x="130" y="75" />
              <mxPoint x="130" y="140" />
              <mxPoint x="168" y="140" />
            </Array>
          </mxGeometry>
        </mxCell>
        <mxCell id="5jcMdOJW1r-zkQpPkOGE-15" style="edgeStyle=orthogonalEdgeStyle;rounded=1;orthogonalLoop=1;jettySize=auto;html=1;curved=0;strokeColor=default;endArrow=classic;endFill=1;endSize=4;startSize=4;fontFamily=Times New Roman;fontSize=9;" edge="1" parent="1" source="5jcMdOJW1r-zkQpPkOGE-4" target="5jcMdOJW1r-zkQpPkOGE-9">
          <mxGeometry relative="1" as="geometry">
            <mxPoint x="129.5" y="80" as="sourcePoint" />
            <mxPoint x="179.5" y="145" as="targetPoint" />
            <Array as="points">
              <mxPoint x="130" y="75" />
              <mxPoint x="130" y="140" />
              <mxPoint x="228" y="140" />
            </Array>
          </mxGeometry>
        </mxCell>
        <mxCell id="5jcMdOJW1r-zkQpPkOGE-16" value="Worker 0" style="rounded=0;whiteSpace=wrap;html=1;fontFamily=Times New Roman;fontSize=9;verticalAlign=top;horizontal=1;spacing=-3;fillColor=#dae8fc;strokeColor=#6c8ebf;" vertex="1" parent="1">
          <mxGeometry x="147" y="40" width="40" height="15" as="geometry" />
        </mxCell>
        <mxCell id="5jcMdOJW1r-zkQpPkOGE-17" value="Worker 1" style="rounded=0;whiteSpace=wrap;html=1;fontFamily=Times New Roman;fontSize=9;verticalAlign=top;horizontal=1;spacing=-3;fillColor=#dae8fc;strokeColor=#6c8ebf;" vertex="1" parent="1">
          <mxGeometry x="207.5" y="40" width="40" height="15" as="geometry" />
        </mxCell>
        <mxCell id="5jcMdOJW1r-zkQpPkOGE-18" value="Worker 3" style="rounded=0;whiteSpace=wrap;html=1;fontFamily=Times New Roman;fontSize=9;verticalAlign=top;horizontal=1;spacing=-3;fillColor=#dae8fc;strokeColor=#6c8ebf;" vertex="1" parent="1">
          <mxGeometry x="147.5" y="95" width="40" height="15" as="geometry" />
        </mxCell>
        <mxCell id="5jcMdOJW1r-zkQpPkOGE-19" value="Worker 4" style="rounded=0;whiteSpace=wrap;html=1;fontFamily=Times New Roman;fontSize=9;verticalAlign=top;horizontal=1;spacing=-3;fillColor=#dae8fc;strokeColor=#6c8ebf;" vertex="1" parent="1">
          <mxGeometry x="207.5" y="95" width="40" height="15" as="geometry" />
        </mxCell>
        <mxCell id="5jcMdOJW1r-zkQpPkOGE-20" value="" style="endArrow=classic;startArrow=classic;html=1;rounded=0;startSize=4;endSize=4;fillColor=#f5f5f5;strokeColor=#666666;fontFamily=Times New Roman;fontSize=9;" edge="1" parent="1" source="5jcMdOJW1r-zkQpPkOGE-17" target="5jcMdOJW1r-zkQpPkOGE-16">
          <mxGeometry width="50" height="50" relative="1" as="geometry">
            <mxPoint x="144.5" y="115" as="sourcePoint" />
            <mxPoint x="194.5" y="65" as="targetPoint" />
          </mxGeometry>
        </mxCell>
        <mxCell id="5jcMdOJW1r-zkQpPkOGE-21" value="" style="endArrow=classic;startArrow=classic;html=1;rounded=0;startSize=4;endSize=4;fillColor=#f5f5f5;strokeColor=#666666;fontFamily=Times New Roman;fontSize=9;" edge="1" parent="1" source="5jcMdOJW1r-zkQpPkOGE-19" target="5jcMdOJW1r-zkQpPkOGE-16">
          <mxGeometry width="50" height="50" relative="1" as="geometry">
            <mxPoint x="247.5" y="43" as="sourcePoint" />
            <mxPoint x="201.5" y="43" as="targetPoint" />
          </mxGeometry>
        </mxCell>
        <mxCell id="5jcMdOJW1r-zkQpPkOGE-22" value="" style="endArrow=classic;startArrow=classic;html=1;rounded=0;startSize=4;endSize=4;fillColor=#f5f5f5;strokeColor=#666666;fontFamily=Times New Roman;fontSize=9;" edge="1" parent="1" source="5jcMdOJW1r-zkQpPkOGE-18" target="5jcMdOJW1r-zkQpPkOGE-16">
          <mxGeometry width="50" height="50" relative="1" as="geometry">
            <mxPoint x="260.5" y="110" as="sourcePoint" />
            <mxPoint x="188.5" y="50" as="targetPoint" />
          </mxGeometry>
        </mxCell>
        <mxCell id="5jcMdOJW1r-zkQpPkOGE-23" value="" style="endArrow=classic;startArrow=classic;html=1;rounded=0;startSize=4;endSize=4;fillColor=#f5f5f5;strokeColor=#666666;fontFamily=Times New Roman;fontSize=9;" edge="1" parent="1" source="5jcMdOJW1r-zkQpPkOGE-19" target="5jcMdOJW1r-zkQpPkOGE-17">
          <mxGeometry width="50" height="50" relative="1" as="geometry">
            <mxPoint x="243" y="115" as="sourcePoint" />
            <mxPoint x="171" y="55" as="targetPoint" />
          </mxGeometry>
        </mxCell>
        <mxCell id="5jcMdOJW1r-zkQpPkOGE-24" value="" style="endArrow=classic;startArrow=classic;html=1;rounded=0;startSize=4;endSize=4;fillColor=#f5f5f5;strokeColor=#666666;fontFamily=Times New Roman;fontSize=9;" edge="1" parent="1" source="5jcMdOJW1r-zkQpPkOGE-18" target="5jcMdOJW1r-zkQpPkOGE-17">
          <mxGeometry width="50" height="50" relative="1" as="geometry">
            <mxPoint x="270.5" y="120" as="sourcePoint" />
            <mxPoint x="198.5" y="60" as="targetPoint" />
          </mxGeometry>
        </mxCell>
        <mxCell id="5jcMdOJW1r-zkQpPkOGE-25" value="" style="endArrow=classic;startArrow=classic;html=1;rounded=0;startSize=4;endSize=4;fillColor=#f5f5f5;strokeColor=#666666;fontFamily=Times New Roman;fontSize=9;" edge="1" parent="1" source="5jcMdOJW1r-zkQpPkOGE-19" target="5jcMdOJW1r-zkQpPkOGE-18">
          <mxGeometry width="50" height="50" relative="1" as="geometry">
            <mxPoint x="275.5" y="125" as="sourcePoint" />
            <mxPoint x="203.5" y="65" as="targetPoint" />
          </mxGeometry>
        </mxCell>
        <mxCell id="5jcMdOJW1r-zkQpPkOGE-26" style="rounded=1;orthogonalLoop=1;jettySize=auto;html=1;strokeColor=#b85450;endArrow=classic;endFill=1;endSize=4;startSize=4;fillColor=#f8cecc;fontFamily=Times New Roman;fontSize=9;" edge="1" parent="1">
          <mxGeometry relative="1" as="geometry">
            <mxPoint x="35" y="70" as="sourcePoint" />
            <mxPoint x="75" y="70" as="targetPoint" />
          </mxGeometry>
        </mxCell>
        <mxCell id="5jcMdOJW1r-zkQpPkOGE-27" value="Invoke (x6)" style="text;html=1;align=center;verticalAlign=middle;whiteSpace=wrap;rounded=0;fontFamily=Times New Roman;fontSize=9;" vertex="1" parent="1">
          <mxGeometry x="24.5" y="41.5" width="50" height="13.5" as="geometry" />
        </mxCell>
        <mxCell id="5jcMdOJW1r-zkQpPkOGE-28" style="rounded=1;orthogonalLoop=1;jettySize=auto;html=1;strokeColor=#b85450;endArrow=classic;endFill=1;endSize=4;startSize=4;fillColor=#f8cecc;fontFamily=Times New Roman;fontSize=9;" edge="1" parent="1">
          <mxGeometry relative="1" as="geometry">
            <mxPoint x="35" y="90" as="sourcePoint" />
            <mxPoint x="75" y="90" as="targetPoint" />
          </mxGeometry>
        </mxCell>
        <mxCell id="5jcMdOJW1r-zkQpPkOGE-29" style="rounded=1;orthogonalLoop=1;jettySize=auto;html=1;strokeColor=#b85450;endArrow=classic;endFill=1;endSize=4;startSize=4;fillColor=#f8cecc;fontFamily=Times New Roman;fontSize=9;" edge="1" parent="1">
          <mxGeometry relative="1" as="geometry">
            <mxPoint x="35" y="60" as="sourcePoint" />
            <mxPoint x="75" y="60" as="targetPoint" />
          </mxGeometry>
        </mxCell>
        <mxCell id="5jcMdOJW1r-zkQpPkOGE-30" style="rounded=1;orthogonalLoop=1;jettySize=auto;html=1;strokeColor=#b85450;endArrow=classic;endFill=1;endSize=4;startSize=4;fillColor=#f8cecc;fontFamily=Times New Roman;fontSize=9;" edge="1" parent="1">
          <mxGeometry relative="1" as="geometry">
            <mxPoint x="35" y="80" as="sourcePoint" />
            <mxPoint x="75" y="80" as="targetPoint" />
          </mxGeometry>
        </mxCell>
        <mxCell id="5jcMdOJW1r-zkQpPkOGE-32" value="A1" style="ellipse;aspect=fixed;spacing=0;whiteSpace=wrap;html=1;fontSize=9;spacingTop=0;fontFamily=Times New Roman;spacingBottom=0;fillColor=#dedede;strokeColor=none;fontColor=#333333;" vertex="1" parent="1">
          <mxGeometry x="45" y="67.5" width="15" height="15" as="geometry" />
        </mxCell>
        <mxCell id="5jcMdOJW1r-zkQpPkOGE-33" value="A2" style="ellipse;aspect=fixed;spacing=0;whiteSpace=wrap;html=1;fontSize=9;spacingTop=0;fontFamily=Times New Roman;spacingBottom=0;fillColor=#dedede;strokeColor=none;fontColor=#333333;" vertex="1" parent="1">
          <mxGeometry x="130" y="67.5" width="15" height="15" as="geometry" />
        </mxCell>
        <mxCell id="5jcMdOJW1r-zkQpPkOGE-36" value="FaaS&amp;nbsp;&lt;span style=&quot;background-color: initial;&quot;&gt;Platform&lt;/span&gt;" style="text;html=1;align=center;verticalAlign=middle;whiteSpace=wrap;rounded=0;fontFamily=Times New Roman;fontSize=9;fontStyle=1" vertex="1" parent="1">
          <mxGeometry y="5" width="95" height="25" as="geometry" />
        </mxCell>
        <mxCell id="5jcMdOJW1r-zkQpPkOGE-37" value="" style="rounded=1;whiteSpace=wrap;html=1;fillColor=#fff2cc;strokeColor=#d6b656;fontFamily=Times New Roman;fontSize=9;" vertex="1" parent="1">
          <mxGeometry x="95.5" y="155" width="229.5" height="140" as="geometry" />
        </mxCell>
        <mxCell id="5jcMdOJW1r-zkQpPkOGE-38" value="Client" style="outlineConnect=0;dashed=0;verticalLabelPosition=bottom;verticalAlign=top;align=center;html=1;shape=mxgraph.aws3.management_console;fillColor=#D2D3D3;gradientColor=none;fontFamily=Times New Roman;fontSize=9;spacing=-4;" vertex="1" parent="1">
          <mxGeometry x="5.5" y="210" width="30" height="30" as="geometry" />
        </mxCell>
        <mxCell id="5jcMdOJW1r-zkQpPkOGE-39" style="edgeStyle=orthogonalEdgeStyle;rounded=1;orthogonalLoop=1;jettySize=auto;html=1;curved=0;strokeColor=default;endArrow=classic;endFill=1;endSize=4;startSize=4;fontFamily=Times New Roman;fontSize=9;" edge="1" parent="1" source="5jcMdOJW1r-zkQpPkOGE-40" target="5jcMdOJW1r-zkQpPkOGE-41">
          <mxGeometry relative="1" as="geometry">
            <Array as="points">
              <mxPoint x="130.5" y="225" />
              <mxPoint x="130.5" y="160" />
              <mxPoint x="228.5" y="160" />
            </Array>
          </mxGeometry>
        </mxCell>
        <mxCell id="5jcMdOJW1r-zkQpPkOGE-40" value="Controller" style="rounded=0;fontFamily=Times New Roman;fontSize=9;fillColor=#ffe6cc;strokeColor=#d79b00;spacing=0;html=1;whiteSpace=wrap;spacingBottom=2;" vertex="1" parent="1">
          <mxGeometry x="75.5" y="205" width="45" height="40" as="geometry" />
        </mxCell>
        <mxCell id="5jcMdOJW1r-zkQpPkOGE-41" value="Pack 0" style="rounded=0;whiteSpace=wrap;html=1;fontFamily=Times New Roman;fontSize=9;verticalAlign=top;horizontal=1;spacing=-3;fillColor=#d5e8d4;strokeColor=#82b366;spacingTop=0;" vertex="1" parent="1">
          <mxGeometry x="140.5" y="170" width="175" height="40" as="geometry" />
        </mxCell>
        <mxCell id="5jcMdOJW1r-zkQpPkOGE-42" value="Pack 1" style="rounded=0;whiteSpace=wrap;html=1;fontFamily=Times New Roman;fontSize=9;verticalAlign=bottom;horizontal=1;spacing=0;fillColor=#d5e8d4;strokeColor=#82b366;spacingBottom=2;" vertex="1" parent="1">
          <mxGeometry x="140.5" y="240" width="175" height="40" as="geometry" />
        </mxCell>
        <mxCell id="5jcMdOJW1r-zkQpPkOGE-46" style="edgeStyle=orthogonalEdgeStyle;rounded=1;orthogonalLoop=1;jettySize=auto;html=1;curved=0;strokeColor=default;endArrow=classic;endFill=1;endSize=4;startSize=4;fontFamily=Times New Roman;fontSize=9;" edge="1" parent="1" source="5jcMdOJW1r-zkQpPkOGE-40" target="5jcMdOJW1r-zkQpPkOGE-42">
          <mxGeometry relative="1" as="geometry">
            <mxPoint x="130.5" y="230" as="sourcePoint" />
            <mxPoint x="270.5" y="165" as="targetPoint" />
            <Array as="points">
              <mxPoint x="130.5" y="225" />
              <mxPoint x="130.5" y="290" />
              <mxPoint x="228.5" y="290" />
            </Array>
          </mxGeometry>
        </mxCell>
        <mxCell id="5jcMdOJW1r-zkQpPkOGE-58" style="rounded=1;orthogonalLoop=1;jettySize=auto;html=1;strokeColor=#b85450;endArrow=classic;endFill=1;endSize=4;startSize=4;fillColor=#f8cecc;fontFamily=Times New Roman;fontSize=9;" edge="1" parent="1">
          <mxGeometry relative="1" as="geometry">
            <mxPoint x="35.5" y="224.8" as="sourcePoint" />
            <mxPoint x="75.5" y="225" as="targetPoint" />
          </mxGeometry>
        </mxCell>
        <mxCell id="5jcMdOJW1r-zkQpPkOGE-59" value="&lt;div style=&quot;font-size: 9px;&quot;&gt;Flare&lt;/div&gt;" style="text;html=1;align=center;verticalAlign=middle;whiteSpace=wrap;rounded=0;fontFamily=Times New Roman;fontSize=9;" vertex="1" parent="1">
          <mxGeometry x="35.5" y="210" width="40" height="15" as="geometry" />
        </mxCell>
        <mxCell id="5jcMdOJW1r-zkQpPkOGE-63" value="B1" style="ellipse;aspect=fixed;spacing=0;whiteSpace=wrap;html=1;fontSize=9;spacingTop=0;fontFamily=Times New Roman;spacingBottom=0;fillColor=#dedede;strokeColor=none;fontColor=#333333;verticalAlign=middle;" vertex="1" parent="1">
          <mxGeometry x="45.5" y="230" width="15" height="15" as="geometry" />
        </mxCell>
        <mxCell id="5jcMdOJW1r-zkQpPkOGE-64" value="B2" style="ellipse;aspect=fixed;spacing=0;whiteSpace=wrap;html=1;fontSize=9;spacingTop=0;fontFamily=Times New Roman;spacingBottom=0;fillColor=#dedede;strokeColor=none;fontColor=#333333;" vertex="1" parent="1">
          <mxGeometry x="130.5" y="217.5" width="15" height="15" as="geometry" />
        </mxCell>
        <mxCell id="5jcMdOJW1r-zkQpPkOGE-66" value="Burst&amp;nbsp;&lt;span style=&quot;background-color: initial; font-size: 9px;&quot;&gt;Platform&lt;/span&gt;" style="text;html=1;align=center;verticalAlign=middle;whiteSpace=wrap;rounded=0;fontFamily=Times New Roman;fontSize=9;fontStyle=1" vertex="1" parent="1">
          <mxGeometry y="155" width="95" height="25" as="geometry" />
        </mxCell>
        <mxCell id="5jcMdOJW1r-zkQpPkOGE-73" value="Instance 2" style="rounded=0;whiteSpace=wrap;html=1;fontFamily=Times New Roman;fontSize=9;verticalAlign=top;horizontal=1;spacing=-3;fillColor=#d5e8d4;strokeColor=#82b366;spacingTop=0;" vertex="1" parent="1">
          <mxGeometry x="260" y="20" width="55" height="40" as="geometry" />
        </mxCell>
        <mxCell id="5jcMdOJW1r-zkQpPkOGE-74" value="Worker 2" style="rounded=0;whiteSpace=wrap;html=1;fontFamily=Times New Roman;fontSize=9;verticalAlign=top;horizontal=1;spacing=-3;fillColor=#dae8fc;strokeColor=#6c8ebf;" vertex="1" parent="1">
          <mxGeometry x="267.5" y="40" width="40" height="15" as="geometry" />
        </mxCell>
        <mxCell id="5jcMdOJW1r-zkQpPkOGE-75" value="Instance 5" style="rounded=0;whiteSpace=wrap;html=1;fontFamily=Times New Roman;fontSize=9;verticalAlign=bottom;horizontal=1;spacing=0;fillColor=#d5e8d4;strokeColor=#82b366;spacingBottom=2;" vertex="1" parent="1">
          <mxGeometry x="260" y="90" width="55" height="40" as="geometry" />
        </mxCell>
        <mxCell id="5jcMdOJW1r-zkQpPkOGE-76" value="Worker 5" style="rounded=0;whiteSpace=wrap;html=1;fontFamily=Times New Roman;fontSize=9;verticalAlign=top;horizontal=1;spacing=-3;fillColor=#dae8fc;strokeColor=#6c8ebf;" vertex="1" parent="1">
          <mxGeometry x="267.5" y="95" width="40" height="15" as="geometry" />
        </mxCell>
        <mxCell id="5jcMdOJW1r-zkQpPkOGE-79" style="edgeStyle=orthogonalEdgeStyle;rounded=1;orthogonalLoop=1;jettySize=auto;html=1;curved=0;strokeColor=default;endArrow=classic;endFill=1;endSize=4;startSize=4;fontFamily=Times New Roman;fontSize=9;" edge="1" parent="1" source="5jcMdOJW1r-zkQpPkOGE-4" target="5jcMdOJW1r-zkQpPkOGE-75">
          <mxGeometry relative="1" as="geometry">
            <mxPoint x="125" y="80" as="sourcePoint" />
            <mxPoint x="235" y="135" as="targetPoint" />
            <Array as="points">
              <mxPoint x="130" y="75" />
              <mxPoint x="130" y="140" />
              <mxPoint x="288" y="140" />
            </Array>
          </mxGeometry>
        </mxCell>
        <mxCell id="5jcMdOJW1r-zkQpPkOGE-81" style="edgeStyle=orthogonalEdgeStyle;rounded=1;orthogonalLoop=1;jettySize=auto;html=1;curved=0;strokeColor=default;endArrow=classic;endFill=1;endSize=4;startSize=4;fontFamily=Times New Roman;fontSize=9;" edge="1" parent="1" source="5jcMdOJW1r-zkQpPkOGE-4" target="5jcMdOJW1r-zkQpPkOGE-73">
          <mxGeometry relative="1" as="geometry">
            <mxPoint x="125" y="80" as="sourcePoint" />
            <mxPoint x="238" y="25" as="targetPoint" />
            <Array as="points">
              <mxPoint x="130" y="75" />
              <mxPoint x="130" y="10" />
              <mxPoint x="288" y="10" />
            </Array>
          </mxGeometry>
        </mxCell>
        <mxCell id="5jcMdOJW1r-zkQpPkOGE-82" value="" style="endArrow=classic;startArrow=classic;html=1;rounded=0;startSize=4;endSize=4;fillColor=#f5f5f5;strokeColor=#666666;fontFamily=Times New Roman;fontSize=9;" edge="1" parent="1" source="5jcMdOJW1r-zkQpPkOGE-76" target="5jcMdOJW1r-zkQpPkOGE-17">
          <mxGeometry width="50" height="50" relative="1" as="geometry">
            <mxPoint x="233" y="100" as="sourcePoint" />
            <mxPoint x="233" y="60" as="targetPoint" />
          </mxGeometry>
        </mxCell>
        <mxCell id="5jcMdOJW1r-zkQpPkOGE-83" value="" style="endArrow=classic;startArrow=classic;html=1;rounded=0;startSize=4;endSize=4;fillColor=#f5f5f5;strokeColor=#666666;fontFamily=Times New Roman;fontSize=9;" edge="1" parent="1" source="5jcMdOJW1r-zkQpPkOGE-19" target="5jcMdOJW1r-zkQpPkOGE-74">
          <mxGeometry width="50" height="50" relative="1" as="geometry">
            <mxPoint x="238" y="105" as="sourcePoint" />
            <mxPoint x="238" y="65" as="targetPoint" />
          </mxGeometry>
        </mxCell>
        <mxCell id="5jcMdOJW1r-zkQpPkOGE-84" value="" style="endArrow=classic;startArrow=classic;html=1;rounded=0;startSize=4;endSize=4;fillColor=#f5f5f5;strokeColor=#666666;fontFamily=Times New Roman;fontSize=9;" edge="1" parent="1" source="5jcMdOJW1r-zkQpPkOGE-74" target="5jcMdOJW1r-zkQpPkOGE-17">
          <mxGeometry width="50" height="50" relative="1" as="geometry">
            <mxPoint x="243" y="110" as="sourcePoint" />
            <mxPoint x="243" y="70" as="targetPoint" />
          </mxGeometry>
        </mxCell>
        <mxCell id="5jcMdOJW1r-zkQpPkOGE-85" value="" style="endArrow=classic;startArrow=classic;html=1;rounded=0;startSize=4;endSize=4;fillColor=#f5f5f5;strokeColor=#666666;fontFamily=Times New Roman;fontSize=9;" edge="1" parent="1" source="5jcMdOJW1r-zkQpPkOGE-76" target="5jcMdOJW1r-zkQpPkOGE-19">
          <mxGeometry width="50" height="50" relative="1" as="geometry">
            <mxPoint x="248" y="115" as="sourcePoint" />
            <mxPoint x="248" y="75" as="targetPoint" />
          </mxGeometry>
        </mxCell>
        <mxCell id="5jcMdOJW1r-zkQpPkOGE-86" value="" style="endArrow=classic;startArrow=classic;html=1;rounded=0;startSize=4;endSize=4;fillColor=#f5f5f5;strokeColor=#666666;fontFamily=Times New Roman;fontSize=9;" edge="1" parent="1" source="5jcMdOJW1r-zkQpPkOGE-76" target="5jcMdOJW1r-zkQpPkOGE-74">
          <mxGeometry width="50" height="50" relative="1" as="geometry">
            <mxPoint x="253" y="120" as="sourcePoint" />
            <mxPoint x="253" y="80" as="targetPoint" />
          </mxGeometry>
        </mxCell>
        <mxCell id="5jcMdOJW1r-zkQpPkOGE-87" value="" style="endArrow=classic;startArrow=classic;html=1;rounded=0;startSize=4;endSize=4;fillColor=#f5f5f5;strokeColor=#666666;fontFamily=Times New Roman;fontSize=9;" edge="1" parent="1" source="5jcMdOJW1r-zkQpPkOGE-76" target="5jcMdOJW1r-zkQpPkOGE-16">
          <mxGeometry width="50" height="50" relative="1" as="geometry">
            <mxPoint x="258" y="125" as="sourcePoint" />
            <mxPoint x="258" y="85" as="targetPoint" />
          </mxGeometry>
        </mxCell>
        <mxCell id="5jcMdOJW1r-zkQpPkOGE-88" value="" style="endArrow=classic;startArrow=classic;html=1;rounded=0;startSize=4;endSize=4;fillColor=#f5f5f5;strokeColor=#666666;fontFamily=Times New Roman;fontSize=9;" edge="1" parent="1" source="5jcMdOJW1r-zkQpPkOGE-18" target="5jcMdOJW1r-zkQpPkOGE-74">
          <mxGeometry width="50" height="50" relative="1" as="geometry">
            <mxPoint x="263" y="130" as="sourcePoint" />
            <mxPoint x="263" y="90" as="targetPoint" />
          </mxGeometry>
        </mxCell>
        <mxCell id="5jcMdOJW1r-zkQpPkOGE-35" value="A3" style="ellipse;aspect=fixed;spacing=0;whiteSpace=wrap;html=1;fontSize=9;spacingTop=0;fontFamily=Times New Roman;spacingBottom=0;fillColor=#dedede;strokeColor=none;fontColor=#333333;" vertex="1" parent="1">
          <mxGeometry x="220" y="67.5" width="15" height="15" as="geometry" />
        </mxCell>
        <mxCell id="5jcMdOJW1r-zkQpPkOGE-89" value="" style="endArrow=classic;startArrow=classic;html=1;rounded=0;startSize=4;endSize=4;fillColor=#f5f5f5;strokeColor=#666666;edgeStyle=orthogonalEdgeStyle;fontFamily=Times New Roman;fontSize=9;" edge="1" parent="1" source="5jcMdOJW1r-zkQpPkOGE-18" target="5jcMdOJW1r-zkQpPkOGE-76">
          <mxGeometry width="50" height="50" relative="1" as="geometry">
            <mxPoint x="268" y="135" as="sourcePoint" />
            <mxPoint x="268" y="95" as="targetPoint" />
            <Array as="points">
              <mxPoint x="168" y="115" />
              <mxPoint x="288" y="115" />
            </Array>
          </mxGeometry>
        </mxCell>
        <mxCell id="5jcMdOJW1r-zkQpPkOGE-90" value="" style="endArrow=classic;startArrow=classic;html=1;rounded=0;startSize=4;endSize=4;fillColor=#f5f5f5;strokeColor=#666666;edgeStyle=orthogonalEdgeStyle;fontFamily=Times New Roman;fontSize=9;" edge="1" parent="1" source="5jcMdOJW1r-zkQpPkOGE-16" target="5jcMdOJW1r-zkQpPkOGE-74">
          <mxGeometry width="50" height="50" relative="1" as="geometry">
            <mxPoint x="173" y="115" as="sourcePoint" />
            <mxPoint x="293" y="115" as="targetPoint" />
            <Array as="points">
              <mxPoint x="167" y="35" />
              <mxPoint x="288" y="35" />
            </Array>
          </mxGeometry>
        </mxCell>
        <mxCell id="5jcMdOJW1r-zkQpPkOGE-95" value="Worker 0" style="rounded=0;whiteSpace=wrap;html=1;fontFamily=Times New Roman;fontSize=9;verticalAlign=top;horizontal=1;spacing=-3;fillColor=#dae8fc;strokeColor=#6c8ebf;" vertex="1" parent="1">
          <mxGeometry x="148" y="190" width="40" height="15" as="geometry" />
        </mxCell>
        <mxCell id="5jcMdOJW1r-zkQpPkOGE-96" value="Worker 1" style="rounded=0;whiteSpace=wrap;html=1;fontFamily=Times New Roman;fontSize=9;verticalAlign=top;horizontal=1;spacing=-3;fillColor=#dae8fc;strokeColor=#6c8ebf;" vertex="1" parent="1">
          <mxGeometry x="208.5" y="190" width="40" height="15" as="geometry" />
        </mxCell>
        <mxCell id="5jcMdOJW1r-zkQpPkOGE-97" value="Worker 3" style="rounded=0;whiteSpace=wrap;html=1;fontFamily=Times New Roman;fontSize=9;verticalAlign=top;horizontal=1;spacing=-3;fillColor=#dae8fc;strokeColor=#6c8ebf;" vertex="1" parent="1">
          <mxGeometry x="148.5" y="245" width="40" height="15" as="geometry" />
        </mxCell>
        <mxCell id="5jcMdOJW1r-zkQpPkOGE-98" value="Worker 4" style="rounded=0;whiteSpace=wrap;html=1;fontFamily=Times New Roman;fontSize=9;verticalAlign=top;horizontal=1;spacing=-3;fillColor=#dae8fc;strokeColor=#6c8ebf;" vertex="1" parent="1">
          <mxGeometry x="208.5" y="245" width="40" height="15" as="geometry" />
        </mxCell>
        <mxCell id="5jcMdOJW1r-zkQpPkOGE-99" value="" style="endArrow=classic;startArrow=classic;html=1;rounded=0;startSize=4;endSize=4;fillColor=#f5f5f5;strokeColor=#666666;dashed=1;fontFamily=Times New Roman;fontSize=9;" edge="1" parent="1" source="5jcMdOJW1r-zkQpPkOGE-96" target="5jcMdOJW1r-zkQpPkOGE-95">
          <mxGeometry width="50" height="50" relative="1" as="geometry">
            <mxPoint x="145.5" y="265" as="sourcePoint" />
            <mxPoint x="195.5" y="215" as="targetPoint" />
          </mxGeometry>
        </mxCell>
        <mxCell id="5jcMdOJW1r-zkQpPkOGE-102" value="" style="endArrow=classic;startArrow=classic;html=1;rounded=0;startSize=4;endSize=4;fillColor=#f5f5f5;strokeColor=#666666;fontFamily=Times New Roman;fontSize=9;" edge="1" parent="1" source="5jcMdOJW1r-zkQpPkOGE-42" target="5jcMdOJW1r-zkQpPkOGE-41">
          <mxGeometry width="50" height="50" relative="1" as="geometry">
            <mxPoint x="244" y="265" as="sourcePoint" />
            <mxPoint x="172" y="205" as="targetPoint" />
          </mxGeometry>
        </mxCell>
        <mxCell id="5jcMdOJW1r-zkQpPkOGE-104" value="" style="endArrow=classic;startArrow=classic;html=1;rounded=0;startSize=4;endSize=4;fillColor=#f5f5f5;strokeColor=#666666;dashed=1;fontFamily=Times New Roman;fontSize=9;" edge="1" parent="1" source="5jcMdOJW1r-zkQpPkOGE-98" target="5jcMdOJW1r-zkQpPkOGE-97">
          <mxGeometry width="50" height="50" relative="1" as="geometry">
            <mxPoint x="276.5" y="275" as="sourcePoint" />
            <mxPoint x="204.5" y="215" as="targetPoint" />
          </mxGeometry>
        </mxCell>
        <mxCell id="5jcMdOJW1r-zkQpPkOGE-106" value="Worker 2" style="rounded=0;whiteSpace=wrap;html=1;fontFamily=Times New Roman;fontSize=9;verticalAlign=top;horizontal=1;spacing=-3;fillColor=#dae8fc;strokeColor=#6c8ebf;" vertex="1" parent="1">
          <mxGeometry x="268.5" y="190" width="40" height="15" as="geometry" />
        </mxCell>
        <mxCell id="5jcMdOJW1r-zkQpPkOGE-108" value="Worker 5" style="rounded=0;whiteSpace=wrap;html=1;fontFamily=Times New Roman;fontSize=9;verticalAlign=top;horizontal=1;spacing=-3;fillColor=#dae8fc;strokeColor=#6c8ebf;" vertex="1" parent="1">
          <mxGeometry x="268.5" y="245" width="40" height="15" as="geometry" />
        </mxCell>
        <mxCell id="5jcMdOJW1r-zkQpPkOGE-111" value="" style="endArrow=classic;startArrow=classic;html=1;rounded=0;startSize=4;endSize=4;fillColor=#f5f5f5;strokeColor=#666666;dashed=1;fontFamily=Times New Roman;fontSize=9;" edge="1" parent="1" source="5jcMdOJW1r-zkQpPkOGE-106" target="5jcMdOJW1r-zkQpPkOGE-96">
          <mxGeometry width="50" height="50" relative="1" as="geometry">
            <mxPoint x="244" y="260" as="sourcePoint" />
            <mxPoint x="244" y="220" as="targetPoint" />
          </mxGeometry>
        </mxCell>
        <mxCell id="5jcMdOJW1r-zkQpPkOGE-112" value="" style="endArrow=classic;startArrow=classic;html=1;rounded=0;startSize=4;endSize=4;fillColor=#f5f5f5;strokeColor=#666666;dashed=1;fontFamily=Times New Roman;fontSize=9;" edge="1" parent="1" source="5jcMdOJW1r-zkQpPkOGE-108" target="5jcMdOJW1r-zkQpPkOGE-98">
          <mxGeometry width="50" height="50" relative="1" as="geometry">
            <mxPoint x="249" y="265" as="sourcePoint" />
            <mxPoint x="249" y="225" as="targetPoint" />
          </mxGeometry>
        </mxCell>
        <mxCell id="5jcMdOJW1r-zkQpPkOGE-116" value="B3" style="ellipse;aspect=fixed;spacing=0;whiteSpace=wrap;html=1;fontSize=9;spacingTop=0;fontFamily=Times New Roman;spacingBottom=0;fillColor=#dedede;strokeColor=none;fontColor=#333333;" vertex="1" parent="1">
          <mxGeometry x="233" y="217.5" width="15" height="15" as="geometry" />
        </mxCell>
        <mxCell id="5jcMdOJW1r-zkQpPkOGE-117" value="" style="endArrow=classic;startArrow=classic;html=1;rounded=0;startSize=4;endSize=4;fillColor=#f5f5f5;strokeColor=#666666;edgeStyle=orthogonalEdgeStyle;dashed=1;fontFamily=Times New Roman;fontSize=9;" edge="1" parent="1" source="5jcMdOJW1r-zkQpPkOGE-97" target="5jcMdOJW1r-zkQpPkOGE-108">
          <mxGeometry width="50" height="50" relative="1" as="geometry">
            <mxPoint x="269" y="285" as="sourcePoint" />
            <mxPoint x="269" y="245" as="targetPoint" />
            <Array as="points">
              <mxPoint x="169" y="265" />
              <mxPoint x="289" y="265" />
            </Array>
          </mxGeometry>
        </mxCell>
        <mxCell id="5jcMdOJW1r-zkQpPkOGE-118" value="" style="endArrow=classic;startArrow=classic;html=1;rounded=0;startSize=4;endSize=4;fillColor=#f5f5f5;strokeColor=#666666;edgeStyle=orthogonalEdgeStyle;dashed=1;fontFamily=Times New Roman;fontSize=9;" edge="1" parent="1" source="5jcMdOJW1r-zkQpPkOGE-95" target="5jcMdOJW1r-zkQpPkOGE-106">
          <mxGeometry width="50" height="50" relative="1" as="geometry">
            <mxPoint x="174" y="265" as="sourcePoint" />
            <mxPoint x="294" y="265" as="targetPoint" />
            <Array as="points">
              <mxPoint x="168" y="185" />
              <mxPoint x="289" y="185" />
            </Array>
          </mxGeometry>
        </mxCell>
        <mxCell id="5jcMdOJW1r-zkQpPkOGE-119" value="g=3" style="text;html=1;align=center;verticalAlign=middle;whiteSpace=wrap;rounded=0;fontFamily=Times New Roman;fontSize=9;spacing=0;spacingBottom=2;" vertex="1" parent="1">
          <mxGeometry x="145.5" y="220" width="25" height="10" as="geometry" />
        </mxCell>
        <mxCell id="Nkm63vze01Om6ul--ieC-1" value="" style="endArrow=classic;startArrow=classic;html=1;rounded=0;startSize=4;endSize=4;fillColor=#f5f5f5;strokeColor=#666666;fontFamily=Times New Roman;fontSize=9;" edge="1" parent="1">
          <mxGeometry width="50" height="50" relative="1" as="geometry">
            <mxPoint x="31.1" y="279.8" as="sourcePoint" />
            <mxPoint x="6" y="279.8" as="targetPoint" />
          </mxGeometry>
        </mxCell>
        <mxCell id="Nkm63vze01Om6ul--ieC-2" value="" style="endArrow=classic;startArrow=classic;html=1;rounded=0;startSize=4;endSize=4;fillColor=#f5f5f5;strokeColor=#666666;dashed=1;fontFamily=Times New Roman;fontSize=9;" edge="1" parent="1">
          <mxGeometry width="50" height="50" relative="1" as="geometry">
            <mxPoint x="31" y="290" as="sourcePoint" />
            <mxPoint x="6" y="290" as="targetPoint" />
          </mxGeometry>
        </mxCell>
        <mxCell id="Nkm63vze01Om6ul--ieC-3" value="Remote indirect" style="text;html=1;align=center;verticalAlign=middle;whiteSpace=wrap;rounded=0;fontFamily=Times New Roman;fontSize=9;" vertex="1" parent="1">
          <mxGeometry x="29.5" y="275" width="65.5" height="10" as="geometry" />
        </mxCell>
        <mxCell id="Nkm63vze01Om6ul--ieC-4" value="Shared memory" style="text;html=1;align=center;verticalAlign=middle;whiteSpace=wrap;rounded=0;fontFamily=Times New Roman;fontSize=9;" vertex="1" parent="1">
          <mxGeometry x="29.5" y="285" width="65.5" height="10" as="geometry" />
        </mxCell>
        <mxCell id="Nkm63vze01Om6ul--ieC-5" value="Worker communication:" style="text;html=1;align=center;verticalAlign=middle;whiteSpace=wrap;rounded=0;fontFamily=Times New Roman;fontSize=9;" vertex="1" parent="1">
          <mxGeometry y="265" width="95" height="10" as="geometry" />
        </mxCell>
      </root>
    </mxGraphModel>
  </diagram>
  <diagram name="Copy of Page-2" id="0baB12b2ENmJCNgU8UzA">
    <mxGraphModel grid="1" page="1" gridSize="5" guides="1" tooltips="1" connect="1" arrows="1" fold="1" pageScale="1" pageWidth="333" pageHeight="340" math="0" shadow="0">
      <root>
        <mxCell id="HsUIqGikiBJl39oVcaJL-0" />
        <mxCell id="HsUIqGikiBJl39oVcaJL-1" parent="HsUIqGikiBJl39oVcaJL-0" />
        <mxCell id="HsUIqGikiBJl39oVcaJL-2" value="" style="rounded=1;whiteSpace=wrap;html=1;fillColor=#fff2cc;strokeColor=#d6b656;fontFamily=Times New Roman;fontSize=9;" vertex="1" parent="HsUIqGikiBJl39oVcaJL-1">
          <mxGeometry x="95" y="5" width="230" height="160" as="geometry" />
        </mxCell>
        <mxCell id="HsUIqGikiBJl39oVcaJL-3" value="Client" style="outlineConnect=0;dashed=0;verticalLabelPosition=bottom;verticalAlign=top;align=center;html=1;shape=mxgraph.aws3.management_console;fillColor=#D2D3D3;gradientColor=none;fontFamily=Times New Roman;fontSize=9;spacing=-4;" parent="HsUIqGikiBJl39oVcaJL-1" vertex="1">
          <mxGeometry x="5.5" y="70" width="30" height="30" as="geometry" />
        </mxCell>
        <mxCell id="HsUIqGikiBJl39oVcaJL-4" style="edgeStyle=orthogonalEdgeStyle;rounded=1;orthogonalLoop=1;jettySize=auto;html=1;curved=0;strokeColor=default;endArrow=classic;endFill=1;endSize=4;startSize=4;fontFamily=Times New Roman;fontSize=9;" parent="HsUIqGikiBJl39oVcaJL-1" source="HsUIqGikiBJl39oVcaJL-5" target="HsUIqGikiBJl39oVcaJL-6" edge="1">
          <mxGeometry relative="1" as="geometry">
            <Array as="points">
              <mxPoint x="130" y="85" />
              <mxPoint x="130" y="10" />
              <mxPoint x="167" y="10" />
            </Array>
          </mxGeometry>
        </mxCell>
        <mxCell id="HsUIqGikiBJl39oVcaJL-5" value="Controller" style="rounded=0;fontFamily=Times New Roman;fontSize=9;fillColor=#ffe6cc;strokeColor=#d79b00;spacing=0;html=1;whiteSpace=wrap;spacingBottom=2;" parent="HsUIqGikiBJl39oVcaJL-1" vertex="1">
          <mxGeometry x="75.5" y="65" width="45" height="40" as="geometry" />
        </mxCell>
        <mxCell id="HsUIqGikiBJl39oVcaJL-6" value="Instance 0" style="rounded=0;whiteSpace=wrap;html=1;fontFamily=Times New Roman;fontSize=9;verticalAlign=top;horizontal=1;spacing=-3;fillColor=#d5e8d4;strokeColor=#82b366;spacingTop=0;" parent="HsUIqGikiBJl39oVcaJL-1" vertex="1">
          <mxGeometry x="139.5" y="20" width="55" height="40" as="geometry" />
        </mxCell>
        <mxCell id="HsUIqGikiBJl39oVcaJL-7" value="Instance 3" style="rounded=0;whiteSpace=wrap;html=1;fontFamily=Times New Roman;fontSize=9;verticalAlign=bottom;horizontal=1;spacing=0;fillColor=#d5e8d4;strokeColor=#82b366;spacingBottom=2;" parent="HsUIqGikiBJl39oVcaJL-1" vertex="1">
          <mxGeometry x="139.5" y="110" width="55" height="40" as="geometry" />
        </mxCell>
        <mxCell id="HsUIqGikiBJl39oVcaJL-8" value="Instance 1" style="rounded=0;whiteSpace=wrap;html=1;fontFamily=Times New Roman;fontSize=9;verticalAlign=top;horizontal=1;spacing=-3;fillColor=#d5e8d4;strokeColor=#82b366;spacingTop=0;" parent="HsUIqGikiBJl39oVcaJL-1" vertex="1">
          <mxGeometry x="200" y="20" width="55" height="40" as="geometry" />
        </mxCell>
        <mxCell id="HsUIqGikiBJl39oVcaJL-9" value="Instance 4" style="rounded=0;whiteSpace=wrap;html=1;fontFamily=Times New Roman;fontSize=9;verticalAlign=bottom;horizontal=1;spacing=0;fillColor=#d5e8d4;strokeColor=#82b366;spacingBottom=2;" parent="HsUIqGikiBJl39oVcaJL-1" vertex="1">
          <mxGeometry x="199.5" y="110" width="55" height="40" as="geometry" />
        </mxCell>
        <mxCell id="HsUIqGikiBJl39oVcaJL-10" value="" style="endArrow=none;html=1;rounded=0;fontFamily=Times New Roman;fontSize=9;" parent="HsUIqGikiBJl39oVcaJL-1" edge="1">
          <mxGeometry width="50" height="50" relative="1" as="geometry">
            <mxPoint y="170" as="sourcePoint" />
            <mxPoint x="330" y="170" as="targetPoint" />
          </mxGeometry>
        </mxCell>
        <mxCell id="HsUIqGikiBJl39oVcaJL-11" style="edgeStyle=orthogonalEdgeStyle;rounded=1;orthogonalLoop=1;jettySize=auto;html=1;curved=0;strokeColor=default;endArrow=classic;endFill=1;endSize=4;startSize=4;fontFamily=Times New Roman;fontSize=9;" parent="HsUIqGikiBJl39oVcaJL-1" source="HsUIqGikiBJl39oVcaJL-5" target="HsUIqGikiBJl39oVcaJL-8" edge="1">
          <mxGeometry relative="1" as="geometry">
            <mxPoint x="129.5" y="80" as="sourcePoint" />
            <mxPoint x="179.5" y="15" as="targetPoint" />
            <Array as="points">
              <mxPoint x="130" y="85" />
              <mxPoint x="130" y="10" />
              <mxPoint x="228" y="10" />
            </Array>
          </mxGeometry>
        </mxCell>
        <mxCell id="HsUIqGikiBJl39oVcaJL-12" style="edgeStyle=orthogonalEdgeStyle;rounded=1;orthogonalLoop=1;jettySize=auto;html=1;curved=0;strokeColor=default;endArrow=classic;endFill=1;endSize=4;startSize=4;fontFamily=Times New Roman;fontSize=9;" parent="HsUIqGikiBJl39oVcaJL-1" source="HsUIqGikiBJl39oVcaJL-5" target="HsUIqGikiBJl39oVcaJL-7" edge="1">
          <mxGeometry relative="1" as="geometry">
            <mxPoint x="120.5" y="91.75" as="sourcePoint" />
            <mxPoint x="269.5" y="31.75" as="targetPoint" />
            <Array as="points">
              <mxPoint x="130" y="85" />
              <mxPoint x="130" y="160" />
              <mxPoint x="167" y="160" />
            </Array>
          </mxGeometry>
        </mxCell>
        <mxCell id="HsUIqGikiBJl39oVcaJL-13" style="edgeStyle=orthogonalEdgeStyle;rounded=1;orthogonalLoop=1;jettySize=auto;html=1;curved=0;strokeColor=default;endArrow=classic;endFill=1;endSize=4;startSize=4;fontFamily=Times New Roman;fontSize=9;" parent="HsUIqGikiBJl39oVcaJL-1" source="HsUIqGikiBJl39oVcaJL-5" target="HsUIqGikiBJl39oVcaJL-9" edge="1">
          <mxGeometry relative="1" as="geometry">
            <mxPoint x="120.5" y="91.75" as="sourcePoint" />
            <mxPoint x="179.5" y="161.75" as="targetPoint" />
            <Array as="points">
              <mxPoint x="130" y="85" />
              <mxPoint x="130" y="160" />
              <mxPoint x="227" y="160" />
            </Array>
          </mxGeometry>
        </mxCell>
        <mxCell id="HsUIqGikiBJl39oVcaJL-14" value="Worker 0" style="rounded=0;whiteSpace=wrap;html=1;fontFamily=Times New Roman;fontSize=9;verticalAlign=top;horizontal=1;spacing=-3;fillColor=#dae8fc;strokeColor=#6c8ebf;" parent="HsUIqGikiBJl39oVcaJL-1" vertex="1">
          <mxGeometry x="147" y="40" width="40" height="15" as="geometry" />
        </mxCell>
        <mxCell id="HsUIqGikiBJl39oVcaJL-15" value="Worker 1" style="rounded=0;whiteSpace=wrap;html=1;fontFamily=Times New Roman;fontSize=9;verticalAlign=top;horizontal=1;spacing=-3;fillColor=#dae8fc;strokeColor=#6c8ebf;" parent="HsUIqGikiBJl39oVcaJL-1" vertex="1">
          <mxGeometry x="207.5" y="40" width="40" height="15" as="geometry" />
        </mxCell>
        <mxCell id="HsUIqGikiBJl39oVcaJL-16" value="Worker 3" style="rounded=0;whiteSpace=wrap;html=1;fontFamily=Times New Roman;fontSize=9;verticalAlign=top;horizontal=1;spacing=-3;fillColor=#dae8fc;strokeColor=#6c8ebf;" parent="HsUIqGikiBJl39oVcaJL-1" vertex="1">
          <mxGeometry x="147" y="115" width="40" height="15" as="geometry" />
        </mxCell>
        <mxCell id="HsUIqGikiBJl39oVcaJL-17" value="Worker 4" style="rounded=0;whiteSpace=wrap;html=1;fontFamily=Times New Roman;fontSize=9;verticalAlign=top;horizontal=1;spacing=-3;fillColor=#dae8fc;strokeColor=#6c8ebf;" parent="HsUIqGikiBJl39oVcaJL-1" vertex="1">
          <mxGeometry x="207" y="115" width="40" height="15" as="geometry" />
        </mxCell>
        <mxCell id="HsUIqGikiBJl39oVcaJL-20" value="" style="endArrow=classic;startArrow=classic;html=1;rounded=0;startSize=4;endSize=4;fillColor=#f5f5f5;strokeColor=#666666;fontFamily=Times New Roman;fontSize=9;exitX=0.024;exitY=0.011;exitDx=0;exitDy=0;exitPerimeter=0;" parent="HsUIqGikiBJl39oVcaJL-1" source="fGLOyup-Rus1IaCyMaCG-0" target="HsUIqGikiBJl39oVcaJL-6" edge="1">
          <mxGeometry width="50" height="50" relative="1" as="geometry">
            <mxPoint x="260.5" y="110" as="sourcePoint" />
            <mxPoint x="188.5" y="50" as="targetPoint" />
          </mxGeometry>
        </mxCell>
        <mxCell id="HsUIqGikiBJl39oVcaJL-21" value="" style="endArrow=classic;startArrow=classic;html=1;rounded=0;startSize=4;endSize=4;fillColor=#f5f5f5;strokeColor=#666666;fontFamily=Times New Roman;fontSize=9;" parent="HsUIqGikiBJl39oVcaJL-1" source="fGLOyup-Rus1IaCyMaCG-0" target="HsUIqGikiBJl39oVcaJL-8" edge="1">
          <mxGeometry width="50" height="50" relative="1" as="geometry">
            <mxPoint x="243" y="115" as="sourcePoint" />
            <mxPoint x="171" y="55" as="targetPoint" />
          </mxGeometry>
        </mxCell>
        <mxCell id="HsUIqGikiBJl39oVcaJL-24" style="rounded=1;orthogonalLoop=1;jettySize=auto;html=1;strokeColor=#b85450;endArrow=classic;endFill=1;endSize=4;startSize=4;fillColor=#f8cecc;fontFamily=Times New Roman;fontSize=9;" parent="HsUIqGikiBJl39oVcaJL-1" edge="1">
          <mxGeometry relative="1" as="geometry">
            <mxPoint x="35.5" y="80" as="sourcePoint" />
            <mxPoint x="75.5" y="80" as="targetPoint" />
          </mxGeometry>
        </mxCell>
        <mxCell id="HsUIqGikiBJl39oVcaJL-25" value="Invoke (x6)" style="text;html=1;align=center;verticalAlign=middle;whiteSpace=wrap;rounded=0;fontFamily=Times New Roman;fontSize=9;" parent="HsUIqGikiBJl39oVcaJL-1" vertex="1">
          <mxGeometry x="28" y="51.5" width="50" height="13.5" as="geometry" />
        </mxCell>
        <mxCell id="HsUIqGikiBJl39oVcaJL-26" style="rounded=1;orthogonalLoop=1;jettySize=auto;html=1;strokeColor=#b85450;endArrow=classic;endFill=1;endSize=4;startSize=4;fillColor=#f8cecc;fontFamily=Times New Roman;fontSize=9;" parent="HsUIqGikiBJl39oVcaJL-1" edge="1">
          <mxGeometry relative="1" as="geometry">
            <mxPoint x="35.5" y="100" as="sourcePoint" />
            <mxPoint x="75.5" y="100" as="targetPoint" />
          </mxGeometry>
        </mxCell>
        <mxCell id="HsUIqGikiBJl39oVcaJL-27" style="rounded=1;orthogonalLoop=1;jettySize=auto;html=1;strokeColor=#b85450;endArrow=classic;endFill=1;endSize=4;startSize=4;fillColor=#f8cecc;fontFamily=Times New Roman;fontSize=9;" parent="HsUIqGikiBJl39oVcaJL-1" edge="1">
          <mxGeometry relative="1" as="geometry">
            <mxPoint x="35.5" y="70" as="sourcePoint" />
            <mxPoint x="75.5" y="70" as="targetPoint" />
          </mxGeometry>
        </mxCell>
        <mxCell id="HsUIqGikiBJl39oVcaJL-28" style="rounded=1;orthogonalLoop=1;jettySize=auto;html=1;strokeColor=#b85450;endArrow=classic;endFill=1;endSize=4;startSize=4;fillColor=#f8cecc;fontFamily=Times New Roman;fontSize=9;" parent="HsUIqGikiBJl39oVcaJL-1" edge="1">
          <mxGeometry relative="1" as="geometry">
            <mxPoint x="35.5" y="90" as="sourcePoint" />
            <mxPoint x="75.5" y="90" as="targetPoint" />
          </mxGeometry>
        </mxCell>
        <mxCell id="HsUIqGikiBJl39oVcaJL-29" value="A1" style="ellipse;aspect=fixed;spacing=0;whiteSpace=wrap;html=1;fontSize=9;spacingTop=0;fontFamily=Times New Roman;spacingBottom=0;fillColor=#dedede;strokeColor=none;fontColor=#333333;" parent="HsUIqGikiBJl39oVcaJL-1" vertex="1">
          <mxGeometry x="45.5" y="77.5" width="15" height="15" as="geometry" />
        </mxCell>
        <mxCell id="HsUIqGikiBJl39oVcaJL-30" value="A2" style="ellipse;aspect=fixed;spacing=0;whiteSpace=wrap;html=1;fontSize=9;spacingTop=0;fontFamily=Times New Roman;spacingBottom=0;fillColor=#dedede;strokeColor=none;fontColor=#333333;" parent="HsUIqGikiBJl39oVcaJL-1" vertex="1">
          <mxGeometry x="132" y="77.5" width="15" height="15" as="geometry" />
        </mxCell>
        <mxCell id="HsUIqGikiBJl39oVcaJL-31" value="FaaS&amp;nbsp;&lt;span style=&quot;background-color: initial;&quot;&gt;Platform&lt;/span&gt;" style="text;html=1;align=center;verticalAlign=middle;whiteSpace=wrap;rounded=0;fontFamily=Times New Roman;fontSize=9;fontStyle=1" parent="HsUIqGikiBJl39oVcaJL-1" vertex="1">
          <mxGeometry y="5" width="95" height="25" as="geometry" />
        </mxCell>
        <mxCell id="HsUIqGikiBJl39oVcaJL-32" value="" style="rounded=1;whiteSpace=wrap;html=1;fillColor=#fff2cc;strokeColor=#d6b656;fontFamily=Times New Roman;fontSize=9;" parent="HsUIqGikiBJl39oVcaJL-1" vertex="1">
          <mxGeometry x="95.5" y="175" width="229.5" height="160" as="geometry" />
        </mxCell>
        <mxCell id="HsUIqGikiBJl39oVcaJL-33" value="Client" style="outlineConnect=0;dashed=0;verticalLabelPosition=bottom;verticalAlign=top;align=center;html=1;shape=mxgraph.aws3.management_console;fillColor=#D2D3D3;gradientColor=none;fontFamily=Times New Roman;fontSize=9;spacing=-4;" parent="HsUIqGikiBJl39oVcaJL-1" vertex="1">
          <mxGeometry x="4.75" y="240" width="30" height="30" as="geometry" />
        </mxCell>
        <mxCell id="HsUIqGikiBJl39oVcaJL-34" style="edgeStyle=orthogonalEdgeStyle;rounded=1;orthogonalLoop=1;jettySize=auto;html=1;curved=0;strokeColor=default;endArrow=classic;endFill=1;endSize=4;startSize=4;fontFamily=Times New Roman;fontSize=9;" parent="HsUIqGikiBJl39oVcaJL-1" source="HsUIqGikiBJl39oVcaJL-35" target="HsUIqGikiBJl39oVcaJL-36" edge="1">
          <mxGeometry relative="1" as="geometry">
            <Array as="points">
              <mxPoint x="131" y="255" />
              <mxPoint x="131" y="180" />
              <mxPoint x="227" y="180" />
            </Array>
          </mxGeometry>
        </mxCell>
        <mxCell id="HsUIqGikiBJl39oVcaJL-35" value="Controller" style="rounded=0;fontFamily=Times New Roman;fontSize=9;fillColor=#ffe6cc;strokeColor=#d79b00;spacing=0;html=1;whiteSpace=wrap;spacingBottom=2;" parent="HsUIqGikiBJl39oVcaJL-1" vertex="1">
          <mxGeometry x="74.75" y="235" width="45" height="40" as="geometry" />
        </mxCell>
        <mxCell id="HsUIqGikiBJl39oVcaJL-36" value="Pack 0" style="rounded=0;whiteSpace=wrap;html=1;fontFamily=Times New Roman;fontSize=9;verticalAlign=top;horizontal=1;spacing=-3;fillColor=#d5e8d4;strokeColor=#82b366;spacingTop=0;" parent="HsUIqGikiBJl39oVcaJL-1" vertex="1">
          <mxGeometry x="139.5" y="190" width="175" height="40" as="geometry" />
        </mxCell>
        <mxCell id="HsUIqGikiBJl39oVcaJL-37" value="Pack 1" style="rounded=0;whiteSpace=wrap;html=1;fontFamily=Times New Roman;fontSize=9;verticalAlign=bottom;horizontal=1;spacing=0;fillColor=#d5e8d4;strokeColor=#82b366;spacingBottom=2;" parent="HsUIqGikiBJl39oVcaJL-1" vertex="1">
          <mxGeometry x="140.5" y="280" width="175" height="40" as="geometry" />
        </mxCell>
        <mxCell id="HsUIqGikiBJl39oVcaJL-38" style="edgeStyle=orthogonalEdgeStyle;rounded=1;orthogonalLoop=1;jettySize=auto;html=1;curved=0;strokeColor=default;endArrow=classic;endFill=1;endSize=4;startSize=4;fontFamily=Times New Roman;fontSize=9;" parent="HsUIqGikiBJl39oVcaJL-1" source="HsUIqGikiBJl39oVcaJL-35" target="HsUIqGikiBJl39oVcaJL-37" edge="1">
          <mxGeometry relative="1" as="geometry">
            <mxPoint x="130.5" y="270" as="sourcePoint" />
            <mxPoint x="270.5" y="205" as="targetPoint" />
            <Array as="points">
              <mxPoint x="131" y="255" />
              <mxPoint x="131" y="330" />
              <mxPoint x="229" y="330" />
            </Array>
          </mxGeometry>
        </mxCell>
        <mxCell id="HsUIqGikiBJl39oVcaJL-39" style="rounded=1;orthogonalLoop=1;jettySize=auto;html=1;strokeColor=#b85450;endArrow=classic;endFill=1;endSize=4;startSize=4;fillColor=#f8cecc;fontFamily=Times New Roman;fontSize=9;" parent="HsUIqGikiBJl39oVcaJL-1" edge="1">
          <mxGeometry relative="1" as="geometry">
            <mxPoint x="34.75" y="254.8" as="sourcePoint" />
            <mxPoint x="74.75" y="255" as="targetPoint" />
          </mxGeometry>
        </mxCell>
        <mxCell id="HsUIqGikiBJl39oVcaJL-40" value="&lt;div style=&quot;font-size: 9px;&quot;&gt;Flare&lt;/div&gt;" style="text;html=1;align=center;verticalAlign=middle;whiteSpace=wrap;rounded=0;fontFamily=Times New Roman;fontSize=9;" parent="HsUIqGikiBJl39oVcaJL-1" vertex="1">
          <mxGeometry x="34.75" y="240" width="40" height="15" as="geometry" />
        </mxCell>
        <mxCell id="HsUIqGikiBJl39oVcaJL-41" value="B1" style="ellipse;aspect=fixed;spacing=0;whiteSpace=wrap;html=1;fontSize=9;spacingTop=0;fontFamily=Times New Roman;spacingBottom=0;fillColor=#dedede;strokeColor=none;fontColor=#333333;verticalAlign=middle;" parent="HsUIqGikiBJl39oVcaJL-1" vertex="1">
          <mxGeometry x="44.75" y="260" width="15" height="15" as="geometry" />
        </mxCell>
        <mxCell id="HsUIqGikiBJl39oVcaJL-42" value="B2" style="ellipse;aspect=fixed;spacing=0;whiteSpace=wrap;html=1;fontSize=9;spacingTop=0;fontFamily=Times New Roman;spacingBottom=0;fillColor=#dedede;strokeColor=none;fontColor=#333333;" parent="HsUIqGikiBJl39oVcaJL-1" vertex="1">
          <mxGeometry x="133.5" y="240" width="15" height="15" as="geometry" />
        </mxCell>
        <mxCell id="HsUIqGikiBJl39oVcaJL-43" value="Burst&amp;nbsp;&lt;span style=&quot;background-color: initial; font-size: 9px;&quot;&gt;Platform&lt;/span&gt;" style="text;html=1;align=center;verticalAlign=middle;whiteSpace=wrap;rounded=0;fontFamily=Times New Roman;fontSize=9;fontStyle=1" parent="HsUIqGikiBJl39oVcaJL-1" vertex="1">
          <mxGeometry y="175" width="95" height="25" as="geometry" />
        </mxCell>
        <mxCell id="HsUIqGikiBJl39oVcaJL-44" value="Instance 2" style="rounded=0;whiteSpace=wrap;html=1;fontFamily=Times New Roman;fontSize=9;verticalAlign=top;horizontal=1;spacing=-3;fillColor=#d5e8d4;strokeColor=#82b366;spacingTop=0;" parent="HsUIqGikiBJl39oVcaJL-1" vertex="1">
          <mxGeometry x="260" y="20" width="55" height="40" as="geometry" />
        </mxCell>
        <mxCell id="HsUIqGikiBJl39oVcaJL-45" value="Worker 2" style="rounded=0;whiteSpace=wrap;html=1;fontFamily=Times New Roman;fontSize=9;verticalAlign=top;horizontal=1;spacing=-3;fillColor=#dae8fc;strokeColor=#6c8ebf;" parent="HsUIqGikiBJl39oVcaJL-1" vertex="1">
          <mxGeometry x="267.5" y="40" width="40" height="15" as="geometry" />
        </mxCell>
        <mxCell id="HsUIqGikiBJl39oVcaJL-46" value="Instance 5" style="rounded=0;whiteSpace=wrap;html=1;fontFamily=Times New Roman;fontSize=9;verticalAlign=bottom;horizontal=1;spacing=0;fillColor=#d5e8d4;strokeColor=#82b366;spacingBottom=2;" parent="HsUIqGikiBJl39oVcaJL-1" vertex="1">
          <mxGeometry x="259.5" y="110" width="55" height="40" as="geometry" />
        </mxCell>
        <mxCell id="HsUIqGikiBJl39oVcaJL-47" value="Worker 5" style="rounded=0;whiteSpace=wrap;html=1;fontFamily=Times New Roman;fontSize=9;verticalAlign=top;horizontal=1;spacing=-3;fillColor=#dae8fc;strokeColor=#6c8ebf;" parent="HsUIqGikiBJl39oVcaJL-1" vertex="1">
          <mxGeometry x="267" y="115" width="40" height="15" as="geometry" />
        </mxCell>
        <mxCell id="HsUIqGikiBJl39oVcaJL-48" style="edgeStyle=orthogonalEdgeStyle;rounded=1;orthogonalLoop=1;jettySize=auto;html=1;curved=0;strokeColor=default;endArrow=classic;endFill=1;endSize=4;startSize=4;fontFamily=Times New Roman;fontSize=9;" parent="HsUIqGikiBJl39oVcaJL-1" source="HsUIqGikiBJl39oVcaJL-5" target="HsUIqGikiBJl39oVcaJL-46" edge="1">
          <mxGeometry relative="1" as="geometry">
            <mxPoint x="120.5" y="91.75" as="sourcePoint" />
            <mxPoint x="235" y="151.75" as="targetPoint" />
            <Array as="points">
              <mxPoint x="130" y="85" />
              <mxPoint x="130" y="160" />
              <mxPoint x="287" y="160" />
            </Array>
          </mxGeometry>
        </mxCell>
        <mxCell id="HsUIqGikiBJl39oVcaJL-49" style="edgeStyle=orthogonalEdgeStyle;rounded=1;orthogonalLoop=1;jettySize=auto;html=1;curved=0;strokeColor=default;endArrow=classic;endFill=1;endSize=4;startSize=4;fontFamily=Times New Roman;fontSize=9;" parent="HsUIqGikiBJl39oVcaJL-1" source="HsUIqGikiBJl39oVcaJL-5" target="HsUIqGikiBJl39oVcaJL-44" edge="1">
          <mxGeometry relative="1" as="geometry">
            <mxPoint x="125" y="80" as="sourcePoint" />
            <mxPoint x="238" y="25" as="targetPoint" />
            <Array as="points">
              <mxPoint x="130" y="85" />
              <mxPoint x="130" y="10" />
              <mxPoint x="288" y="10" />
            </Array>
          </mxGeometry>
        </mxCell>
        <mxCell id="HsUIqGikiBJl39oVcaJL-54" value="" style="endArrow=classic;startArrow=classic;html=1;rounded=0;startSize=4;endSize=4;fillColor=#f5f5f5;strokeColor=#666666;fontFamily=Times New Roman;fontSize=9;exitX=0.971;exitY=-0.056;exitDx=0;exitDy=0;exitPerimeter=0;" parent="HsUIqGikiBJl39oVcaJL-1" source="fGLOyup-Rus1IaCyMaCG-0" edge="1">
          <mxGeometry width="50" height="50" relative="1" as="geometry">
            <mxPoint x="285" y="75" as="sourcePoint" />
            <mxPoint x="286.31944444444446" y="60" as="targetPoint" />
          </mxGeometry>
        </mxCell>
        <mxCell id="HsUIqGikiBJl39oVcaJL-60" value="Worker 0" style="rounded=0;whiteSpace=wrap;html=1;fontFamily=Times New Roman;fontSize=9;verticalAlign=top;horizontal=1;spacing=-3;fillColor=#dae8fc;strokeColor=#6c8ebf;" parent="HsUIqGikiBJl39oVcaJL-1" vertex="1">
          <mxGeometry x="147" y="210" width="40" height="15" as="geometry" />
        </mxCell>
        <mxCell id="HsUIqGikiBJl39oVcaJL-61" value="Worker 1" style="rounded=0;whiteSpace=wrap;html=1;fontFamily=Times New Roman;fontSize=9;verticalAlign=top;horizontal=1;spacing=-3;fillColor=#dae8fc;strokeColor=#6c8ebf;" parent="HsUIqGikiBJl39oVcaJL-1" vertex="1">
          <mxGeometry x="207.5" y="210" width="40" height="15" as="geometry" />
        </mxCell>
        <mxCell id="HsUIqGikiBJl39oVcaJL-62" value="Worker 3" style="rounded=0;whiteSpace=wrap;html=1;fontFamily=Times New Roman;fontSize=9;verticalAlign=top;horizontal=1;spacing=-3;fillColor=#dae8fc;strokeColor=#6c8ebf;" parent="HsUIqGikiBJl39oVcaJL-1" vertex="1">
          <mxGeometry x="148.5" y="285" width="40" height="15" as="geometry" />
        </mxCell>
        <mxCell id="HsUIqGikiBJl39oVcaJL-63" value="Worker 4" style="rounded=0;whiteSpace=wrap;html=1;fontFamily=Times New Roman;fontSize=9;verticalAlign=top;horizontal=1;spacing=-3;fillColor=#dae8fc;strokeColor=#6c8ebf;" parent="HsUIqGikiBJl39oVcaJL-1" vertex="1">
          <mxGeometry x="208.5" y="285" width="40" height="15" as="geometry" />
        </mxCell>
        <mxCell id="HsUIqGikiBJl39oVcaJL-64" value="" style="endArrow=classic;startArrow=classic;html=1;rounded=0;startSize=4;endSize=4;fillColor=#f5f5f5;strokeColor=#666666;dashed=1;fontFamily=Times New Roman;fontSize=9;" parent="HsUIqGikiBJl39oVcaJL-1" source="HsUIqGikiBJl39oVcaJL-61" target="HsUIqGikiBJl39oVcaJL-60" edge="1">
          <mxGeometry width="50" height="50" relative="1" as="geometry">
            <mxPoint x="144.5" y="285" as="sourcePoint" />
            <mxPoint x="194.5" y="235" as="targetPoint" />
          </mxGeometry>
        </mxCell>
        <mxCell id="HsUIqGikiBJl39oVcaJL-66" value="" style="endArrow=classic;startArrow=classic;html=1;rounded=0;startSize=4;endSize=4;fillColor=#f5f5f5;strokeColor=#666666;dashed=1;fontFamily=Times New Roman;fontSize=9;" parent="HsUIqGikiBJl39oVcaJL-1" source="HsUIqGikiBJl39oVcaJL-63" target="HsUIqGikiBJl39oVcaJL-62" edge="1">
          <mxGeometry width="50" height="50" relative="1" as="geometry">
            <mxPoint x="276.5" y="315" as="sourcePoint" />
            <mxPoint x="204.5" y="255" as="targetPoint" />
          </mxGeometry>
        </mxCell>
        <mxCell id="HsUIqGikiBJl39oVcaJL-67" value="Worker 2" style="rounded=0;whiteSpace=wrap;html=1;fontFamily=Times New Roman;fontSize=9;verticalAlign=top;horizontal=1;spacing=-3;fillColor=#dae8fc;strokeColor=#6c8ebf;" parent="HsUIqGikiBJl39oVcaJL-1" vertex="1">
          <mxGeometry x="267.5" y="210" width="40" height="15" as="geometry" />
        </mxCell>
        <mxCell id="HsUIqGikiBJl39oVcaJL-68" value="Worker 5" style="rounded=0;whiteSpace=wrap;html=1;fontFamily=Times New Roman;fontSize=9;verticalAlign=top;horizontal=1;spacing=-3;fillColor=#dae8fc;strokeColor=#6c8ebf;" parent="HsUIqGikiBJl39oVcaJL-1" vertex="1">
          <mxGeometry x="268.5" y="285" width="40" height="15" as="geometry" />
        </mxCell>
        <mxCell id="HsUIqGikiBJl39oVcaJL-69" value="" style="endArrow=classic;startArrow=classic;html=1;rounded=0;startSize=4;endSize=4;fillColor=#f5f5f5;strokeColor=#666666;dashed=1;fontFamily=Times New Roman;fontSize=9;" parent="HsUIqGikiBJl39oVcaJL-1" source="HsUIqGikiBJl39oVcaJL-67" target="HsUIqGikiBJl39oVcaJL-61" edge="1">
          <mxGeometry width="50" height="50" relative="1" as="geometry">
            <mxPoint x="243" y="280" as="sourcePoint" />
            <mxPoint x="243" y="240" as="targetPoint" />
          </mxGeometry>
        </mxCell>
        <mxCell id="HsUIqGikiBJl39oVcaJL-70" value="" style="endArrow=classic;startArrow=classic;html=1;rounded=0;startSize=4;endSize=4;fillColor=#f5f5f5;strokeColor=#666666;dashed=1;fontFamily=Times New Roman;fontSize=9;" parent="HsUIqGikiBJl39oVcaJL-1" source="HsUIqGikiBJl39oVcaJL-68" target="HsUIqGikiBJl39oVcaJL-63" edge="1">
          <mxGeometry width="50" height="50" relative="1" as="geometry">
            <mxPoint x="249" y="305" as="sourcePoint" />
            <mxPoint x="249" y="265" as="targetPoint" />
          </mxGeometry>
        </mxCell>
        <mxCell id="HsUIqGikiBJl39oVcaJL-71" value="B3" style="ellipse;aspect=fixed;spacing=0;whiteSpace=wrap;html=1;fontSize=9;spacingTop=0;fontFamily=Times New Roman;spacingBottom=0;fillColor=#dedede;strokeColor=none;fontColor=#333333;" parent="HsUIqGikiBJl39oVcaJL-1" vertex="1">
          <mxGeometry x="299.5" y="247.5" width="15" height="15" as="geometry" />
        </mxCell>
        <mxCell id="HsUIqGikiBJl39oVcaJL-72" value="" style="endArrow=classic;startArrow=classic;html=1;rounded=0;startSize=4;endSize=4;fillColor=#f5f5f5;strokeColor=#666666;edgeStyle=orthogonalEdgeStyle;dashed=1;fontFamily=Times New Roman;fontSize=9;" parent="HsUIqGikiBJl39oVcaJL-1" source="HsUIqGikiBJl39oVcaJL-62" target="HsUIqGikiBJl39oVcaJL-68" edge="1">
          <mxGeometry width="50" height="50" relative="1" as="geometry">
            <mxPoint x="269" y="325" as="sourcePoint" />
            <mxPoint x="269" y="285" as="targetPoint" />
            <Array as="points">
              <mxPoint x="169" y="305" />
              <mxPoint x="289" y="305" />
            </Array>
          </mxGeometry>
        </mxCell>
        <mxCell id="HsUIqGikiBJl39oVcaJL-73" value="" style="endArrow=classic;startArrow=classic;html=1;rounded=0;startSize=4;endSize=4;fillColor=#f5f5f5;strokeColor=#666666;edgeStyle=orthogonalEdgeStyle;dashed=1;fontFamily=Times New Roman;fontSize=9;" parent="HsUIqGikiBJl39oVcaJL-1" source="HsUIqGikiBJl39oVcaJL-60" target="HsUIqGikiBJl39oVcaJL-67" edge="1">
          <mxGeometry width="50" height="50" relative="1" as="geometry">
            <mxPoint x="173" y="285" as="sourcePoint" />
            <mxPoint x="293" y="285" as="targetPoint" />
            <Array as="points">
              <mxPoint x="167" y="205" />
              <mxPoint x="288" y="205" />
            </Array>
          </mxGeometry>
        </mxCell>
        <mxCell id="HsUIqGikiBJl39oVcaJL-74" value="g=3" style="text;html=1;align=center;verticalAlign=middle;whiteSpace=wrap;rounded=0;fontFamily=Times New Roman;fontSize=9;spacing=0;spacingBottom=2;" parent="HsUIqGikiBJl39oVcaJL-1" vertex="1">
          <mxGeometry x="128.5" y="260" width="25" height="10" as="geometry" />
        </mxCell>
        <mxCell id="HsUIqGikiBJl39oVcaJL-75" value="" style="endArrow=classic;startArrow=classic;html=1;rounded=0;startSize=4;endSize=4;fillColor=#f5f5f5;strokeColor=#666666;fontFamily=Times New Roman;fontSize=9;" parent="HsUIqGikiBJl39oVcaJL-1" edge="1">
          <mxGeometry width="50" height="50" relative="1" as="geometry">
            <mxPoint x="31.1" y="319.8" as="sourcePoint" />
            <mxPoint x="6" y="319.8" as="targetPoint" />
          </mxGeometry>
        </mxCell>
        <mxCell id="HsUIqGikiBJl39oVcaJL-76" value="" style="endArrow=classic;startArrow=classic;html=1;rounded=0;startSize=4;endSize=4;fillColor=#f5f5f5;strokeColor=#666666;dashed=1;fontFamily=Times New Roman;fontSize=9;" parent="HsUIqGikiBJl39oVcaJL-1" edge="1">
          <mxGeometry width="50" height="50" relative="1" as="geometry">
            <mxPoint x="31" y="330" as="sourcePoint" />
            <mxPoint x="6" y="330" as="targetPoint" />
          </mxGeometry>
        </mxCell>
        <mxCell id="HsUIqGikiBJl39oVcaJL-77" value="Remote indirect" style="text;html=1;align=center;verticalAlign=middle;whiteSpace=wrap;rounded=0;fontFamily=Times New Roman;fontSize=9;" parent="HsUIqGikiBJl39oVcaJL-1" vertex="1">
          <mxGeometry x="29.5" y="315" width="65.5" height="10" as="geometry" />
        </mxCell>
        <mxCell id="HsUIqGikiBJl39oVcaJL-78" value="Shared memory" style="text;html=1;align=center;verticalAlign=middle;whiteSpace=wrap;rounded=0;fontFamily=Times New Roman;fontSize=9;" parent="HsUIqGikiBJl39oVcaJL-1" vertex="1">
          <mxGeometry x="29.5" y="325" width="65.5" height="10" as="geometry" />
        </mxCell>
        <mxCell id="HsUIqGikiBJl39oVcaJL-79" value="Worker communication:" style="text;html=1;align=center;verticalAlign=middle;whiteSpace=wrap;rounded=0;fontFamily=Times New Roman;fontSize=9;" parent="HsUIqGikiBJl39oVcaJL-1" vertex="1">
          <mxGeometry y="305" width="95" height="10" as="geometry" />
        </mxCell>
        <mxCell id="fGLOyup-Rus1IaCyMaCG-0" value="External Comms. Server" style="rounded=0;whiteSpace=wrap;html=1;fontFamily=Times New Roman;fontSize=9;verticalAlign=top;horizontal=1;spacing=-3;fillColor=#f5f5f5;strokeColor=#666666;fontColor=#333333;" vertex="1" parent="HsUIqGikiBJl39oVcaJL-1">
          <mxGeometry x="165" y="77.5" width="125" height="15" as="geometry" />
        </mxCell>
        <mxCell id="HsUIqGikiBJl39oVcaJL-57" value="A3" style="ellipse;aspect=fixed;spacing=0;whiteSpace=wrap;html=1;fontSize=9;spacingTop=0;fontFamily=Times New Roman;spacingBottom=0;fillColor=#dedede;strokeColor=none;fontColor=#333333;" parent="HsUIqGikiBJl39oVcaJL-1" vertex="1">
          <mxGeometry x="299.5" y="77.5" width="15" height="15" as="geometry" />
        </mxCell>
        <mxCell id="fGLOyup-Rus1IaCyMaCG-2" value="" style="endArrow=classic;startArrow=classic;html=1;rounded=0;startSize=4;endSize=4;fillColor=#f5f5f5;strokeColor=#666666;fontFamily=Times New Roman;fontSize=9;" edge="1" parent="HsUIqGikiBJl39oVcaJL-1" source="HsUIqGikiBJl39oVcaJL-9" target="fGLOyup-Rus1IaCyMaCG-0">
          <mxGeometry width="50" height="50" relative="1" as="geometry">
            <mxPoint x="233" y="83" as="sourcePoint" />
            <mxPoint x="233" y="65" as="targetPoint" />
          </mxGeometry>
        </mxCell>
        <mxCell id="fGLOyup-Rus1IaCyMaCG-3" value="" style="endArrow=classic;startArrow=classic;html=1;rounded=0;startSize=4;endSize=4;fillColor=#f5f5f5;strokeColor=#666666;fontFamily=Times New Roman;fontSize=9;entryX=0.971;entryY=1.056;entryDx=0;entryDy=0;entryPerimeter=0;" edge="1" parent="HsUIqGikiBJl39oVcaJL-1" source="HsUIqGikiBJl39oVcaJL-46" target="fGLOyup-Rus1IaCyMaCG-0">
          <mxGeometry width="50" height="50" relative="1" as="geometry">
            <mxPoint x="238" y="88" as="sourcePoint" />
            <mxPoint x="287" y="95" as="targetPoint" />
          </mxGeometry>
        </mxCell>
        <mxCell id="fGLOyup-Rus1IaCyMaCG-4" value="" style="endArrow=classic;startArrow=classic;html=1;rounded=0;startSize=4;endSize=4;fillColor=#f5f5f5;strokeColor=#666666;fontFamily=Times New Roman;fontSize=9;exitX=0.027;exitY=0.989;exitDx=0;exitDy=0;exitPerimeter=0;" edge="1" parent="HsUIqGikiBJl39oVcaJL-1" source="fGLOyup-Rus1IaCyMaCG-0" target="HsUIqGikiBJl39oVcaJL-7">
          <mxGeometry width="50" height="50" relative="1" as="geometry">
            <mxPoint x="243" y="93" as="sourcePoint" />
            <mxPoint x="243" y="75" as="targetPoint" />
          </mxGeometry>
        </mxCell>
        <mxCell id="fGLOyup-Rus1IaCyMaCG-7" value="" style="endArrow=classic;startArrow=classic;html=1;rounded=0;startSize=4;endSize=4;fillColor=#f5f5f5;strokeColor=#666666;fontFamily=Times New Roman;fontSize=9;" edge="1" parent="HsUIqGikiBJl39oVcaJL-1" source="fGLOyup-Rus1IaCyMaCG-9" target="HsUIqGikiBJl39oVcaJL-36">
          <mxGeometry width="50" height="50" relative="1" as="geometry">
            <mxPoint x="243" y="285" as="sourcePoint" />
            <mxPoint x="228" y="230" as="targetPoint" />
          </mxGeometry>
        </mxCell>
        <mxCell id="fGLOyup-Rus1IaCyMaCG-9" value="External Comms. Server" style="rounded=0;whiteSpace=wrap;html=1;fontFamily=Times New Roman;fontSize=9;verticalAlign=top;horizontal=1;spacing=-3;fillColor=#f5f5f5;strokeColor=#666666;fontColor=#333333;" vertex="1" parent="HsUIqGikiBJl39oVcaJL-1">
          <mxGeometry x="165" y="247.5" width="125" height="15" as="geometry" />
        </mxCell>
        <mxCell id="fGLOyup-Rus1IaCyMaCG-11" value="" style="endArrow=classic;startArrow=classic;html=1;rounded=0;startSize=4;endSize=4;fillColor=#f5f5f5;strokeColor=#666666;fontFamily=Times New Roman;fontSize=9;" edge="1" parent="HsUIqGikiBJl39oVcaJL-1" source="HsUIqGikiBJl39oVcaJL-37" target="fGLOyup-Rus1IaCyMaCG-9">
          <mxGeometry width="50" height="50" relative="1" as="geometry">
            <mxPoint x="227" y="280" as="sourcePoint" />
            <mxPoint x="233" y="235" as="targetPoint" />
          </mxGeometry>
        </mxCell>
      </root>
    </mxGraphModel>
  </diagram>
  <diagram name="Copy of Copy of Page-2" id="eAn6i9PW0XkdEE6e-pPd">
    <mxGraphModel dx="482" dy="194" grid="1" gridSize="5" guides="1" tooltips="1" connect="1" arrows="1" fold="1" page="1" pageScale="1" pageWidth="330" pageHeight="340" math="0" shadow="0">
      <root>
        <mxCell id="42Zs52ixs79WXwjUJ5oh-0" />
        <mxCell id="42Zs52ixs79WXwjUJ5oh-1" parent="42Zs52ixs79WXwjUJ5oh-0" />
        <mxCell id="42Zs52ixs79WXwjUJ5oh-2" value="" style="rounded=1;whiteSpace=wrap;html=1;fillColor=#fff2cc;strokeColor=#d6b656;fontFamily=Linux Libertine;fontSize=10;" parent="42Zs52ixs79WXwjUJ5oh-1" vertex="1">
          <mxGeometry x="100" y="5" width="225" height="160" as="geometry" />
        </mxCell>
        <mxCell id="42Zs52ixs79WXwjUJ5oh-3" value="Client" style="outlineConnect=0;dashed=0;verticalLabelPosition=bottom;verticalAlign=top;align=center;html=1;shape=mxgraph.aws3.management_console;fillColor=#D2D3D3;gradientColor=none;fontFamily=Linux Libertine;fontSize=10;spacing=-4;" parent="42Zs52ixs79WXwjUJ5oh-1" vertex="1">
          <mxGeometry x="5.5" y="70" width="30" height="30" as="geometry" />
        </mxCell>
        <mxCell id="42Zs52ixs79WXwjUJ5oh-4" style="edgeStyle=orthogonalEdgeStyle;rounded=1;orthogonalLoop=1;jettySize=auto;html=1;curved=0;strokeColor=default;endArrow=classic;endFill=1;endSize=4;startSize=4;fontFamily=Linux Libertine;fontSize=10;" parent="42Zs52ixs79WXwjUJ5oh-1" source="42Zs52ixs79WXwjUJ5oh-5" target="42Zs52ixs79WXwjUJ5oh-6" edge="1">
          <mxGeometry relative="1" as="geometry">
            <Array as="points">
              <mxPoint x="130" y="85" />
              <mxPoint x="130" y="10" />
              <mxPoint x="167" y="10" />
            </Array>
          </mxGeometry>
        </mxCell>
        <mxCell id="42Zs52ixs79WXwjUJ5oh-5" value="Controller" style="rounded=0;fontFamily=Linux Libertine;fontSize=10;fillColor=#ffe6cc;strokeColor=#d79b00;spacing=0;html=1;whiteSpace=wrap;spacingBottom=2;" parent="42Zs52ixs79WXwjUJ5oh-1" vertex="1">
          <mxGeometry x="74.75" y="65" width="45" height="40" as="geometry" />
        </mxCell>
        <mxCell id="42Zs52ixs79WXwjUJ5oh-6" value="Instance 0" style="rounded=0;whiteSpace=wrap;html=1;fontFamily=Linux Libertine;fontSize=10;verticalAlign=top;horizontal=1;spacing=-3;fillColor=#d5e8d4;strokeColor=#82b366;spacingTop=0;" parent="42Zs52ixs79WXwjUJ5oh-1" vertex="1">
          <mxGeometry x="139.5" y="20" width="55" height="40" as="geometry" />
        </mxCell>
        <mxCell id="42Zs52ixs79WXwjUJ5oh-7" value="Instance 3" style="rounded=0;whiteSpace=wrap;html=1;fontFamily=Linux Libertine;fontSize=10;verticalAlign=bottom;horizontal=1;spacing=0;fillColor=#d5e8d4;strokeColor=#82b366;spacingBottom=2;" parent="42Zs52ixs79WXwjUJ5oh-1" vertex="1">
          <mxGeometry x="139.5" y="110" width="55" height="40" as="geometry" />
        </mxCell>
        <mxCell id="42Zs52ixs79WXwjUJ5oh-8" value="Instance 1" style="rounded=0;whiteSpace=wrap;html=1;fontFamily=Linux Libertine;fontSize=10;verticalAlign=top;horizontal=1;spacing=-3;fillColor=#d5e8d4;strokeColor=#82b366;spacingTop=0;" parent="42Zs52ixs79WXwjUJ5oh-1" vertex="1">
          <mxGeometry x="200" y="20" width="55" height="40" as="geometry" />
        </mxCell>
        <mxCell id="42Zs52ixs79WXwjUJ5oh-9" value="Instance 4" style="rounded=0;whiteSpace=wrap;html=1;fontFamily=Linux Libertine;fontSize=10;verticalAlign=bottom;horizontal=1;spacing=0;fillColor=#d5e8d4;strokeColor=#82b366;spacingBottom=2;" parent="42Zs52ixs79WXwjUJ5oh-1" vertex="1">
          <mxGeometry x="199.5" y="110" width="55" height="40" as="geometry" />
        </mxCell>
        <mxCell id="42Zs52ixs79WXwjUJ5oh-10" value="" style="endArrow=none;html=1;rounded=0;fontFamily=Linux Libertine;fontSize=10;" parent="42Zs52ixs79WXwjUJ5oh-1" edge="1">
          <mxGeometry width="50" height="50" relative="1" as="geometry">
            <mxPoint y="170" as="sourcePoint" />
            <mxPoint x="325" y="170" as="targetPoint" />
          </mxGeometry>
        </mxCell>
        <mxCell id="42Zs52ixs79WXwjUJ5oh-11" style="edgeStyle=orthogonalEdgeStyle;rounded=1;orthogonalLoop=1;jettySize=auto;html=1;curved=0;strokeColor=default;endArrow=classic;endFill=1;endSize=4;startSize=4;fontFamily=Linux Libertine;fontSize=10;" parent="42Zs52ixs79WXwjUJ5oh-1" source="42Zs52ixs79WXwjUJ5oh-5" target="42Zs52ixs79WXwjUJ5oh-8" edge="1">
          <mxGeometry relative="1" as="geometry">
            <mxPoint x="129.5" y="80" as="sourcePoint" />
            <mxPoint x="179.5" y="15" as="targetPoint" />
            <Array as="points">
              <mxPoint x="130" y="85" />
              <mxPoint x="130" y="10" />
              <mxPoint x="228" y="10" />
            </Array>
          </mxGeometry>
        </mxCell>
        <mxCell id="42Zs52ixs79WXwjUJ5oh-12" style="edgeStyle=orthogonalEdgeStyle;rounded=1;orthogonalLoop=1;jettySize=auto;html=1;curved=0;strokeColor=default;endArrow=classic;endFill=1;endSize=4;startSize=4;fontFamily=Linux Libertine;fontSize=10;" parent="42Zs52ixs79WXwjUJ5oh-1" source="42Zs52ixs79WXwjUJ5oh-5" target="42Zs52ixs79WXwjUJ5oh-7" edge="1">
          <mxGeometry relative="1" as="geometry">
            <mxPoint x="120.5" y="91.75" as="sourcePoint" />
            <mxPoint x="269.5" y="31.75" as="targetPoint" />
            <Array as="points">
              <mxPoint x="130" y="85" />
              <mxPoint x="130" y="160" />
              <mxPoint x="167" y="160" />
            </Array>
          </mxGeometry>
        </mxCell>
        <mxCell id="42Zs52ixs79WXwjUJ5oh-13" style="edgeStyle=orthogonalEdgeStyle;rounded=1;orthogonalLoop=1;jettySize=auto;html=1;curved=0;strokeColor=default;endArrow=classic;endFill=1;endSize=4;startSize=4;fontFamily=Linux Libertine;fontSize=10;" parent="42Zs52ixs79WXwjUJ5oh-1" source="42Zs52ixs79WXwjUJ5oh-5" target="42Zs52ixs79WXwjUJ5oh-9" edge="1">
          <mxGeometry relative="1" as="geometry">
            <mxPoint x="120.5" y="91.75" as="sourcePoint" />
            <mxPoint x="179.5" y="161.75" as="targetPoint" />
            <Array as="points">
              <mxPoint x="130" y="85" />
              <mxPoint x="130" y="160" />
              <mxPoint x="227" y="160" />
            </Array>
          </mxGeometry>
        </mxCell>
        <mxCell id="42Zs52ixs79WXwjUJ5oh-14" value="Worker 0" style="rounded=0;whiteSpace=wrap;html=1;fontFamily=Linux Libertine;fontSize=10;verticalAlign=top;horizontal=1;spacing=-3;fillColor=#dae8fc;strokeColor=#6c8ebf;" parent="42Zs52ixs79WXwjUJ5oh-1" vertex="1">
          <mxGeometry x="147" y="40" width="40" height="15" as="geometry" />
        </mxCell>
        <mxCell id="42Zs52ixs79WXwjUJ5oh-15" value="Worker 1" style="rounded=0;whiteSpace=wrap;html=1;fontFamily=Linux Libertine;fontSize=10;verticalAlign=top;horizontal=1;spacing=-3;fillColor=#dae8fc;strokeColor=#6c8ebf;" parent="42Zs52ixs79WXwjUJ5oh-1" vertex="1">
          <mxGeometry x="207.5" y="40" width="40" height="15" as="geometry" />
        </mxCell>
        <mxCell id="42Zs52ixs79WXwjUJ5oh-16" value="Worker 3" style="rounded=0;whiteSpace=wrap;html=1;fontFamily=Linux Libertine;fontSize=10;verticalAlign=top;horizontal=1;spacing=-3;fillColor=#dae8fc;strokeColor=#6c8ebf;" parent="42Zs52ixs79WXwjUJ5oh-1" vertex="1">
          <mxGeometry x="147" y="115" width="40" height="15" as="geometry" />
        </mxCell>
        <mxCell id="42Zs52ixs79WXwjUJ5oh-17" value="Worker 4" style="rounded=0;whiteSpace=wrap;html=1;fontFamily=Linux Libertine;fontSize=10;verticalAlign=top;horizontal=1;spacing=-3;fillColor=#dae8fc;strokeColor=#6c8ebf;" parent="42Zs52ixs79WXwjUJ5oh-1" vertex="1">
          <mxGeometry x="207" y="115" width="40" height="15" as="geometry" />
        </mxCell>
        <mxCell id="42Zs52ixs79WXwjUJ5oh-18" value="" style="endArrow=classic;startArrow=classic;html=1;rounded=0;startSize=4;endSize=4;fillColor=#f5f5f5;strokeColor=#666666;fontFamily=Linux Libertine;fontSize=10;" parent="42Zs52ixs79WXwjUJ5oh-1" source="42Zs52ixs79WXwjUJ5oh-7" target="42Zs52ixs79WXwjUJ5oh-6" edge="1">
          <mxGeometry width="50" height="50" relative="1" as="geometry">
            <mxPoint x="260.5" y="110" as="sourcePoint" />
            <mxPoint x="188.5" y="50" as="targetPoint" />
          </mxGeometry>
        </mxCell>
        <mxCell id="42Zs52ixs79WXwjUJ5oh-19" value="" style="endArrow=classic;startArrow=classic;html=1;rounded=0;startSize=4;endSize=4;fillColor=#f5f5f5;strokeColor=#666666;fontFamily=Linux Libertine;fontSize=10;" parent="42Zs52ixs79WXwjUJ5oh-1" source="42Zs52ixs79WXwjUJ5oh-42" target="42Zs52ixs79WXwjUJ5oh-8" edge="1">
          <mxGeometry width="50" height="50" relative="1" as="geometry">
            <mxPoint x="243" y="115" as="sourcePoint" />
            <mxPoint x="171" y="55" as="targetPoint" />
          </mxGeometry>
        </mxCell>
        <mxCell id="42Zs52ixs79WXwjUJ5oh-20" style="rounded=1;orthogonalLoop=1;jettySize=auto;html=1;strokeColor=#b85450;endArrow=classic;endFill=1;endSize=4;startSize=4;fillColor=#f8cecc;fontFamily=Linux Libertine;fontSize=10;" parent="42Zs52ixs79WXwjUJ5oh-1" edge="1">
          <mxGeometry relative="1" as="geometry">
            <mxPoint x="35.5" y="80" as="sourcePoint" />
            <mxPoint x="75.5" y="80" as="targetPoint" />
          </mxGeometry>
        </mxCell>
        <mxCell id="42Zs52ixs79WXwjUJ5oh-21" value="Invoke (x6)" style="text;html=1;align=center;verticalAlign=middle;whiteSpace=wrap;rounded=0;fontFamily=Linux Libertine;fontSize=10;" parent="42Zs52ixs79WXwjUJ5oh-1" vertex="1">
          <mxGeometry x="28" y="51.5" width="50" height="13.5" as="geometry" />
        </mxCell>
        <mxCell id="42Zs52ixs79WXwjUJ5oh-22" style="rounded=1;orthogonalLoop=1;jettySize=auto;html=1;strokeColor=#b85450;endArrow=classic;endFill=1;endSize=4;startSize=4;fillColor=#f8cecc;fontFamily=Linux Libertine;fontSize=10;" parent="42Zs52ixs79WXwjUJ5oh-1" edge="1">
          <mxGeometry relative="1" as="geometry">
            <mxPoint x="35.5" y="100" as="sourcePoint" />
            <mxPoint x="75.5" y="100" as="targetPoint" />
          </mxGeometry>
        </mxCell>
        <mxCell id="42Zs52ixs79WXwjUJ5oh-23" style="rounded=1;orthogonalLoop=1;jettySize=auto;html=1;strokeColor=#b85450;endArrow=classic;endFill=1;endSize=4;startSize=4;fillColor=#f8cecc;fontFamily=Linux Libertine;fontSize=10;" parent="42Zs52ixs79WXwjUJ5oh-1" edge="1">
          <mxGeometry relative="1" as="geometry">
            <mxPoint x="35.5" y="70" as="sourcePoint" />
            <mxPoint x="75.5" y="70" as="targetPoint" />
          </mxGeometry>
        </mxCell>
        <mxCell id="42Zs52ixs79WXwjUJ5oh-24" style="rounded=1;orthogonalLoop=1;jettySize=auto;html=1;strokeColor=#b85450;endArrow=classic;endFill=1;endSize=4;startSize=4;fillColor=#f8cecc;fontFamily=Linux Libertine;fontSize=10;" parent="42Zs52ixs79WXwjUJ5oh-1" edge="1">
          <mxGeometry relative="1" as="geometry">
            <mxPoint x="35.5" y="90" as="sourcePoint" />
            <mxPoint x="75.5" y="90" as="targetPoint" />
          </mxGeometry>
        </mxCell>
        <mxCell id="42Zs52ixs79WXwjUJ5oh-25" value="A1" style="ellipse;aspect=fixed;spacing=0;whiteSpace=wrap;html=1;fontSize=10;spacingTop=0;fontFamily=Linux Libertine;spacingBottom=0;fillColor=#dedede;strokeColor=none;fontColor=#333333;" parent="42Zs52ixs79WXwjUJ5oh-1" vertex="1">
          <mxGeometry x="45.5" y="77.5" width="15" height="15" as="geometry" />
        </mxCell>
        <mxCell id="42Zs52ixs79WXwjUJ5oh-26" value="A2" style="ellipse;aspect=fixed;spacing=0;whiteSpace=wrap;html=1;fontSize=10;spacingTop=0;fontFamily=Linux Libertine;spacingBottom=0;fillColor=#dedede;strokeColor=none;fontColor=#333333;" parent="42Zs52ixs79WXwjUJ5oh-1" vertex="1">
          <mxGeometry x="132" y="77.5" width="15" height="15" as="geometry" />
        </mxCell>
        <mxCell id="42Zs52ixs79WXwjUJ5oh-27" value="FaaS&amp;nbsp;&lt;span style=&quot;background-color: initial; font-size: 12px;&quot;&gt;Platform&lt;/span&gt;" style="text;html=1;align=center;verticalAlign=middle;whiteSpace=wrap;rounded=0;fontFamily=Linux Libertine;fontSize=12;fontStyle=1" parent="42Zs52ixs79WXwjUJ5oh-1" vertex="1">
          <mxGeometry y="5" width="90" height="25" as="geometry" />
        </mxCell>
        <mxCell id="42Zs52ixs79WXwjUJ5oh-28" value="" style="rounded=1;whiteSpace=wrap;html=1;fillColor=#fff2cc;strokeColor=#d6b656;fontFamily=Linux Libertine;fontSize=10;" parent="42Zs52ixs79WXwjUJ5oh-1" vertex="1">
          <mxGeometry x="100" y="175" width="225" height="160" as="geometry" />
        </mxCell>
        <mxCell id="42Zs52ixs79WXwjUJ5oh-29" value="Client" style="outlineConnect=0;dashed=0;verticalLabelPosition=bottom;verticalAlign=top;align=center;html=1;shape=mxgraph.aws3.management_console;fillColor=#D2D3D3;gradientColor=none;fontFamily=Linux Libertine;fontSize=10;spacing=-4;" parent="42Zs52ixs79WXwjUJ5oh-1" vertex="1">
          <mxGeometry x="4.75" y="240" width="30" height="30" as="geometry" />
        </mxCell>
        <mxCell id="42Zs52ixs79WXwjUJ5oh-30" style="edgeStyle=orthogonalEdgeStyle;rounded=1;orthogonalLoop=1;jettySize=auto;html=1;curved=0;strokeColor=default;endArrow=classic;endFill=1;endSize=4;startSize=4;fontFamily=Linux Libertine;fontSize=10;" parent="42Zs52ixs79WXwjUJ5oh-1" source="42Zs52ixs79WXwjUJ5oh-31" target="42Zs52ixs79WXwjUJ5oh-32" edge="1">
          <mxGeometry relative="1" as="geometry">
            <Array as="points">
              <mxPoint x="131" y="255" />
              <mxPoint x="131" y="180" />
              <mxPoint x="227" y="180" />
            </Array>
          </mxGeometry>
        </mxCell>
        <mxCell id="42Zs52ixs79WXwjUJ5oh-31" value="Controller" style="rounded=0;fontFamily=Linux Libertine;fontSize=10;fillColor=#ffe6cc;strokeColor=#d79b00;spacing=0;html=1;whiteSpace=wrap;spacingBottom=2;" parent="42Zs52ixs79WXwjUJ5oh-1" vertex="1">
          <mxGeometry x="74.75" y="235" width="45" height="40" as="geometry" />
        </mxCell>
        <mxCell id="42Zs52ixs79WXwjUJ5oh-32" value="Pack 0" style="rounded=0;whiteSpace=wrap;html=1;fontFamily=Linux Libertine;fontSize=10;verticalAlign=top;horizontal=1;spacing=-3;fillColor=#d5e8d4;strokeColor=#82b366;spacingTop=0;" parent="42Zs52ixs79WXwjUJ5oh-1" vertex="1">
          <mxGeometry x="139.5" y="190" width="175" height="40" as="geometry" />
        </mxCell>
        <mxCell id="42Zs52ixs79WXwjUJ5oh-33" value="Pack 1" style="rounded=0;whiteSpace=wrap;html=1;fontFamily=Linux Libertine;fontSize=10;verticalAlign=bottom;horizontal=1;spacing=0;fillColor=#d5e8d4;strokeColor=#82b366;spacingBottom=2;" parent="42Zs52ixs79WXwjUJ5oh-1" vertex="1">
          <mxGeometry x="140.5" y="280" width="175" height="40" as="geometry" />
        </mxCell>
        <mxCell id="42Zs52ixs79WXwjUJ5oh-34" style="edgeStyle=orthogonalEdgeStyle;rounded=1;orthogonalLoop=1;jettySize=auto;html=1;curved=0;strokeColor=default;endArrow=classic;endFill=1;endSize=4;startSize=4;fontFamily=Linux Libertine;fontSize=10;" parent="42Zs52ixs79WXwjUJ5oh-1" source="42Zs52ixs79WXwjUJ5oh-31" target="42Zs52ixs79WXwjUJ5oh-33" edge="1">
          <mxGeometry relative="1" as="geometry">
            <mxPoint x="130.5" y="270" as="sourcePoint" />
            <mxPoint x="270.5" y="205" as="targetPoint" />
            <Array as="points">
              <mxPoint x="131" y="255" />
              <mxPoint x="131" y="330" />
              <mxPoint x="229" y="330" />
            </Array>
          </mxGeometry>
        </mxCell>
        <mxCell id="42Zs52ixs79WXwjUJ5oh-35" style="rounded=1;orthogonalLoop=1;jettySize=auto;html=1;strokeColor=#b85450;endArrow=classic;endFill=1;endSize=4;startSize=4;fillColor=#f8cecc;fontFamily=Linux Libertine;fontSize=10;" parent="42Zs52ixs79WXwjUJ5oh-1" edge="1">
          <mxGeometry relative="1" as="geometry">
            <mxPoint x="34.75" y="254.8" as="sourcePoint" />
            <mxPoint x="74.75" y="255" as="targetPoint" />
          </mxGeometry>
        </mxCell>
        <mxCell id="42Zs52ixs79WXwjUJ5oh-36" value="&lt;div style=&quot;font-size: 10px;&quot;&gt;Flare&lt;/div&gt;" style="text;html=1;align=center;verticalAlign=middle;whiteSpace=wrap;rounded=0;fontFamily=Linux Libertine;fontSize=10;" parent="42Zs52ixs79WXwjUJ5oh-1" vertex="1">
          <mxGeometry x="34.75" y="240" width="40.25" height="15" as="geometry" />
        </mxCell>
        <mxCell id="42Zs52ixs79WXwjUJ5oh-37" value="B1" style="ellipse;aspect=fixed;spacing=0;whiteSpace=wrap;html=1;fontSize=10;spacingTop=0;fontFamily=Linux Libertine;spacingBottom=0;fillColor=#dedede;strokeColor=none;fontColor=#333333;verticalAlign=middle;" parent="42Zs52ixs79WXwjUJ5oh-1" vertex="1">
          <mxGeometry x="44.75" y="260" width="15" height="15" as="geometry" />
        </mxCell>
        <mxCell id="42Zs52ixs79WXwjUJ5oh-38" value="B2" style="ellipse;aspect=fixed;spacing=0;whiteSpace=wrap;html=1;fontSize=10;spacingTop=0;fontFamily=Linux Libertine;spacingBottom=0;fillColor=#dedede;strokeColor=none;fontColor=#333333;" parent="42Zs52ixs79WXwjUJ5oh-1" vertex="1">
          <mxGeometry x="133.5" y="240" width="15" height="15" as="geometry" />
        </mxCell>
        <mxCell id="42Zs52ixs79WXwjUJ5oh-39" value="Burst&amp;nbsp;&lt;span style=&quot;background-color: initial; font-size: 12px;&quot;&gt;Platform&lt;/span&gt;" style="text;html=1;align=center;verticalAlign=middle;whiteSpace=wrap;rounded=0;fontFamily=Linux Libertine;fontSize=12;fontStyle=1" parent="42Zs52ixs79WXwjUJ5oh-1" vertex="1">
          <mxGeometry y="175" width="90" height="25" as="geometry" />
        </mxCell>
        <mxCell id="42Zs52ixs79WXwjUJ5oh-40" value="Instance 2" style="rounded=0;whiteSpace=wrap;html=1;fontFamily=Linux Libertine;fontSize=10;verticalAlign=top;horizontal=1;spacing=-3;fillColor=#d5e8d4;strokeColor=#82b366;spacingTop=0;" parent="42Zs52ixs79WXwjUJ5oh-1" vertex="1">
          <mxGeometry x="260" y="20" width="55" height="40" as="geometry" />
        </mxCell>
        <mxCell id="42Zs52ixs79WXwjUJ5oh-41" value="Worker 2" style="rounded=0;whiteSpace=wrap;html=1;fontFamily=Linux Libertine;fontSize=10;verticalAlign=top;horizontal=1;spacing=-3;fillColor=#dae8fc;strokeColor=#6c8ebf;" parent="42Zs52ixs79WXwjUJ5oh-1" vertex="1">
          <mxGeometry x="267.5" y="40" width="40" height="15" as="geometry" />
        </mxCell>
        <mxCell id="42Zs52ixs79WXwjUJ5oh-42" value="Instance 5" style="rounded=0;whiteSpace=wrap;html=1;fontFamily=Linux Libertine;fontSize=10;verticalAlign=bottom;horizontal=1;spacing=0;fillColor=#d5e8d4;strokeColor=#82b366;spacingBottom=2;" parent="42Zs52ixs79WXwjUJ5oh-1" vertex="1">
          <mxGeometry x="259.5" y="110" width="55" height="40" as="geometry" />
        </mxCell>
        <mxCell id="42Zs52ixs79WXwjUJ5oh-43" value="Worker 5" style="rounded=0;whiteSpace=wrap;html=1;fontFamily=Linux Libertine;fontSize=10;verticalAlign=top;horizontal=1;spacing=-3;fillColor=#dae8fc;strokeColor=#6c8ebf;" parent="42Zs52ixs79WXwjUJ5oh-1" vertex="1">
          <mxGeometry x="267" y="115" width="40" height="15" as="geometry" />
        </mxCell>
        <mxCell id="42Zs52ixs79WXwjUJ5oh-44" style="edgeStyle=orthogonalEdgeStyle;rounded=1;orthogonalLoop=1;jettySize=auto;html=1;curved=0;strokeColor=default;endArrow=classic;endFill=1;endSize=4;startSize=4;fontFamily=Linux Libertine;fontSize=10;" parent="42Zs52ixs79WXwjUJ5oh-1" source="42Zs52ixs79WXwjUJ5oh-5" target="42Zs52ixs79WXwjUJ5oh-42" edge="1">
          <mxGeometry relative="1" as="geometry">
            <mxPoint x="120.5" y="91.75" as="sourcePoint" />
            <mxPoint x="235" y="151.75" as="targetPoint" />
            <Array as="points">
              <mxPoint x="130" y="85" />
              <mxPoint x="130" y="160" />
              <mxPoint x="287" y="160" />
            </Array>
          </mxGeometry>
        </mxCell>
        <mxCell id="42Zs52ixs79WXwjUJ5oh-45" style="edgeStyle=orthogonalEdgeStyle;rounded=1;orthogonalLoop=1;jettySize=auto;html=1;curved=0;strokeColor=default;endArrow=classic;endFill=1;endSize=4;startSize=4;fontFamily=Linux Libertine;fontSize=10;" parent="42Zs52ixs79WXwjUJ5oh-1" source="42Zs52ixs79WXwjUJ5oh-5" target="42Zs52ixs79WXwjUJ5oh-40" edge="1">
          <mxGeometry relative="1" as="geometry">
            <mxPoint x="125" y="80" as="sourcePoint" />
            <mxPoint x="238" y="25" as="targetPoint" />
            <Array as="points">
              <mxPoint x="130" y="85" />
              <mxPoint x="130" y="10" />
              <mxPoint x="288" y="10" />
            </Array>
          </mxGeometry>
        </mxCell>
        <mxCell id="42Zs52ixs79WXwjUJ5oh-46" value="" style="endArrow=classic;startArrow=classic;html=1;rounded=0;startSize=4;endSize=4;fillColor=#f5f5f5;strokeColor=#666666;fontFamily=Linux Libertine;fontSize=10;" parent="42Zs52ixs79WXwjUJ5oh-1" source="42Zs52ixs79WXwjUJ5oh-9" target="42Zs52ixs79WXwjUJ5oh-40" edge="1">
          <mxGeometry width="50" height="50" relative="1" as="geometry">
            <mxPoint x="285" y="75" as="sourcePoint" />
            <mxPoint x="286.31944444444446" y="60" as="targetPoint" />
          </mxGeometry>
        </mxCell>
        <mxCell id="42Zs52ixs79WXwjUJ5oh-47" value="Worker 0" style="rounded=0;whiteSpace=wrap;html=1;fontFamily=Linux Libertine;fontSize=10;verticalAlign=top;horizontal=1;spacing=-3;fillColor=#dae8fc;strokeColor=#6c8ebf;" parent="42Zs52ixs79WXwjUJ5oh-1" vertex="1">
          <mxGeometry x="147" y="210" width="40" height="15" as="geometry" />
        </mxCell>
        <mxCell id="42Zs52ixs79WXwjUJ5oh-48" value="Worker 1" style="rounded=0;whiteSpace=wrap;html=1;fontFamily=Linux Libertine;fontSize=10;verticalAlign=top;horizontal=1;spacing=-3;fillColor=#dae8fc;strokeColor=#6c8ebf;" parent="42Zs52ixs79WXwjUJ5oh-1" vertex="1">
          <mxGeometry x="207.5" y="210" width="40" height="15" as="geometry" />
        </mxCell>
        <mxCell id="42Zs52ixs79WXwjUJ5oh-49" value="Worker 3" style="rounded=0;whiteSpace=wrap;html=1;fontFamily=Linux Libertine;fontSize=10;verticalAlign=top;horizontal=1;spacing=-3;fillColor=#dae8fc;strokeColor=#6c8ebf;" parent="42Zs52ixs79WXwjUJ5oh-1" vertex="1">
          <mxGeometry x="148.5" y="285" width="40" height="15" as="geometry" />
        </mxCell>
        <mxCell id="42Zs52ixs79WXwjUJ5oh-50" value="Worker 4" style="rounded=0;whiteSpace=wrap;html=1;fontFamily=Linux Libertine;fontSize=10;verticalAlign=top;horizontal=1;spacing=-3;fillColor=#dae8fc;strokeColor=#6c8ebf;" parent="42Zs52ixs79WXwjUJ5oh-1" vertex="1">
          <mxGeometry x="208.5" y="285" width="40" height="15" as="geometry" />
        </mxCell>
        <mxCell id="42Zs52ixs79WXwjUJ5oh-51" value="" style="endArrow=classic;startArrow=classic;html=1;rounded=0;startSize=4;endSize=4;fillColor=#f5f5f5;strokeColor=#666666;dashed=1;fontFamily=Linux Libertine;fontSize=10;" parent="42Zs52ixs79WXwjUJ5oh-1" source="42Zs52ixs79WXwjUJ5oh-48" target="42Zs52ixs79WXwjUJ5oh-47" edge="1">
          <mxGeometry width="50" height="50" relative="1" as="geometry">
            <mxPoint x="144.5" y="285" as="sourcePoint" />
            <mxPoint x="194.5" y="235" as="targetPoint" />
          </mxGeometry>
        </mxCell>
        <mxCell id="42Zs52ixs79WXwjUJ5oh-52" value="" style="endArrow=classic;startArrow=classic;html=1;rounded=0;startSize=4;endSize=4;fillColor=#f5f5f5;strokeColor=#666666;dashed=1;fontFamily=Linux Libertine;fontSize=10;" parent="42Zs52ixs79WXwjUJ5oh-1" source="42Zs52ixs79WXwjUJ5oh-50" target="42Zs52ixs79WXwjUJ5oh-49" edge="1">
          <mxGeometry width="50" height="50" relative="1" as="geometry">
            <mxPoint x="276.5" y="315" as="sourcePoint" />
            <mxPoint x="204.5" y="255" as="targetPoint" />
          </mxGeometry>
        </mxCell>
        <mxCell id="42Zs52ixs79WXwjUJ5oh-53" value="Worker 2" style="rounded=0;whiteSpace=wrap;html=1;fontFamily=Linux Libertine;fontSize=10;verticalAlign=top;horizontal=1;spacing=-3;fillColor=#dae8fc;strokeColor=#6c8ebf;" parent="42Zs52ixs79WXwjUJ5oh-1" vertex="1">
          <mxGeometry x="267.5" y="210" width="40" height="15" as="geometry" />
        </mxCell>
        <mxCell id="42Zs52ixs79WXwjUJ5oh-54" value="Worker 5" style="rounded=0;whiteSpace=wrap;html=1;fontFamily=Linux Libertine;fontSize=10;verticalAlign=top;horizontal=1;spacing=-3;fillColor=#dae8fc;strokeColor=#6c8ebf;" parent="42Zs52ixs79WXwjUJ5oh-1" vertex="1">
          <mxGeometry x="268.5" y="285" width="40" height="15" as="geometry" />
        </mxCell>
        <mxCell id="42Zs52ixs79WXwjUJ5oh-55" value="" style="endArrow=classic;startArrow=classic;html=1;rounded=0;startSize=4;endSize=4;fillColor=#f5f5f5;strokeColor=#666666;dashed=1;fontFamily=Linux Libertine;fontSize=10;" parent="42Zs52ixs79WXwjUJ5oh-1" source="42Zs52ixs79WXwjUJ5oh-53" target="42Zs52ixs79WXwjUJ5oh-48" edge="1">
          <mxGeometry width="50" height="50" relative="1" as="geometry">
            <mxPoint x="243" y="280" as="sourcePoint" />
            <mxPoint x="243" y="240" as="targetPoint" />
          </mxGeometry>
        </mxCell>
        <mxCell id="42Zs52ixs79WXwjUJ5oh-56" value="" style="endArrow=classic;startArrow=classic;html=1;rounded=0;startSize=4;endSize=4;fillColor=#f5f5f5;strokeColor=#666666;dashed=1;fontFamily=Linux Libertine;fontSize=10;" parent="42Zs52ixs79WXwjUJ5oh-1" source="42Zs52ixs79WXwjUJ5oh-54" target="42Zs52ixs79WXwjUJ5oh-50" edge="1">
          <mxGeometry width="50" height="50" relative="1" as="geometry">
            <mxPoint x="249" y="305" as="sourcePoint" />
            <mxPoint x="249" y="265" as="targetPoint" />
          </mxGeometry>
        </mxCell>
        <mxCell id="42Zs52ixs79WXwjUJ5oh-57" value="B3" style="ellipse;aspect=fixed;spacing=0;whiteSpace=wrap;html=1;fontSize=10;spacingTop=0;fontFamily=Linux Libertine;spacingBottom=0;fillColor=#dedede;strokeColor=none;fontColor=#333333;" parent="42Zs52ixs79WXwjUJ5oh-1" vertex="1">
          <mxGeometry x="299.5" y="247.5" width="15" height="15" as="geometry" />
        </mxCell>
        <mxCell id="42Zs52ixs79WXwjUJ5oh-58" value="" style="endArrow=classic;startArrow=classic;html=1;rounded=0;startSize=4;endSize=4;fillColor=#f5f5f5;strokeColor=#666666;edgeStyle=orthogonalEdgeStyle;dashed=1;fontFamily=Linux Libertine;fontSize=10;" parent="42Zs52ixs79WXwjUJ5oh-1" source="42Zs52ixs79WXwjUJ5oh-49" target="42Zs52ixs79WXwjUJ5oh-54" edge="1">
          <mxGeometry width="50" height="50" relative="1" as="geometry">
            <mxPoint x="269" y="325" as="sourcePoint" />
            <mxPoint x="269" y="285" as="targetPoint" />
            <Array as="points">
              <mxPoint x="169" y="305" />
              <mxPoint x="289" y="305" />
            </Array>
          </mxGeometry>
        </mxCell>
        <mxCell id="42Zs52ixs79WXwjUJ5oh-59" value="" style="endArrow=classic;startArrow=classic;html=1;rounded=0;startSize=4;endSize=4;fillColor=#f5f5f5;strokeColor=#666666;edgeStyle=orthogonalEdgeStyle;dashed=1;fontFamily=Linux Libertine;fontSize=10;" parent="42Zs52ixs79WXwjUJ5oh-1" source="42Zs52ixs79WXwjUJ5oh-47" target="42Zs52ixs79WXwjUJ5oh-53" edge="1">
          <mxGeometry width="50" height="50" relative="1" as="geometry">
            <mxPoint x="173" y="285" as="sourcePoint" />
            <mxPoint x="293" y="285" as="targetPoint" />
            <Array as="points">
              <mxPoint x="167" y="205" />
              <mxPoint x="288" y="205" />
            </Array>
          </mxGeometry>
        </mxCell>
        <mxCell id="42Zs52ixs79WXwjUJ5oh-60" value="g=3" style="text;html=1;align=center;verticalAlign=middle;whiteSpace=wrap;rounded=0;fontFamily=Linux Libertine;fontSize=10;spacing=0;spacingBottom=2;" parent="42Zs52ixs79WXwjUJ5oh-1" vertex="1">
          <mxGeometry x="128.5" y="260" width="25" height="10" as="geometry" />
        </mxCell>
        <mxCell id="42Zs52ixs79WXwjUJ5oh-61" value="" style="endArrow=classic;startArrow=classic;html=1;rounded=0;startSize=4;endSize=4;fillColor=#f5f5f5;strokeColor=#666666;fontFamily=Linux Libertine;fontSize=10;" parent="42Zs52ixs79WXwjUJ5oh-1" edge="1">
          <mxGeometry width="50" height="50" relative="1" as="geometry">
            <mxPoint x="31.1" y="319.8" as="sourcePoint" />
            <mxPoint x="6" y="319.8" as="targetPoint" />
          </mxGeometry>
        </mxCell>
        <mxCell id="42Zs52ixs79WXwjUJ5oh-62" value="" style="endArrow=classic;startArrow=classic;html=1;rounded=0;startSize=4;endSize=4;fillColor=#f5f5f5;strokeColor=#666666;dashed=1;fontFamily=Linux Libertine;fontSize=10;" parent="42Zs52ixs79WXwjUJ5oh-1" edge="1">
          <mxGeometry width="50" height="50" relative="1" as="geometry">
            <mxPoint x="31" y="330" as="sourcePoint" />
            <mxPoint x="6" y="330" as="targetPoint" />
          </mxGeometry>
        </mxCell>
        <mxCell id="42Zs52ixs79WXwjUJ5oh-63" value="Remote indirect" style="text;html=1;align=center;verticalAlign=middle;whiteSpace=wrap;rounded=0;fontFamily=Linux Libertine;fontSize=10;spacing=0;" parent="42Zs52ixs79WXwjUJ5oh-1" vertex="1">
          <mxGeometry x="29.5" y="315" width="70.5" height="10" as="geometry" />
        </mxCell>
        <mxCell id="42Zs52ixs79WXwjUJ5oh-64" value="Shared memory" style="text;html=1;align=center;verticalAlign=middle;whiteSpace=wrap;rounded=0;fontFamily=Linux Libertine;fontSize=10;spacing=0;" parent="42Zs52ixs79WXwjUJ5oh-1" vertex="1">
          <mxGeometry x="29.5" y="325" width="70.5" height="10" as="geometry" />
        </mxCell>
        <mxCell id="42Zs52ixs79WXwjUJ5oh-65" value="Worker communication:" style="text;html=1;align=center;verticalAlign=middle;whiteSpace=wrap;rounded=0;fontFamily=Linux Libertine;fontSize=10;spacing=0;" parent="42Zs52ixs79WXwjUJ5oh-1" vertex="1">
          <mxGeometry y="305" width="100" height="10" as="geometry" />
        </mxCell>
        <mxCell id="42Zs52ixs79WXwjUJ5oh-67" value="A3" style="ellipse;aspect=fixed;spacing=0;whiteSpace=wrap;html=1;fontSize=10;spacingTop=0;fontFamily=Linux Libertine;spacingBottom=0;fillColor=#dedede;strokeColor=none;fontColor=#333333;" parent="42Zs52ixs79WXwjUJ5oh-1" vertex="1">
          <mxGeometry x="299.5" y="77.5" width="15" height="15" as="geometry" />
        </mxCell>
        <mxCell id="42Zs52ixs79WXwjUJ5oh-68" value="" style="endArrow=classic;startArrow=classic;html=1;rounded=0;startSize=4;endSize=4;fillColor=#f5f5f5;strokeColor=#666666;fontFamily=Linux Libertine;fontSize=10;" parent="42Zs52ixs79WXwjUJ5oh-1" source="42Zs52ixs79WXwjUJ5oh-9" target="42Zs52ixs79WXwjUJ5oh-8" edge="1">
          <mxGeometry width="50" height="50" relative="1" as="geometry">
            <mxPoint x="233" y="83" as="sourcePoint" />
            <mxPoint x="233" y="65" as="targetPoint" />
          </mxGeometry>
        </mxCell>
        <mxCell id="42Zs52ixs79WXwjUJ5oh-69" value="" style="endArrow=classic;startArrow=classic;html=1;rounded=0;startSize=4;endSize=4;fillColor=#f5f5f5;strokeColor=#666666;fontFamily=Linux Libertine;fontSize=10;" parent="42Zs52ixs79WXwjUJ5oh-1" source="42Zs52ixs79WXwjUJ5oh-42" target="42Zs52ixs79WXwjUJ5oh-40" edge="1">
          <mxGeometry width="50" height="50" relative="1" as="geometry">
            <mxPoint x="238" y="88" as="sourcePoint" />
            <mxPoint x="287" y="95" as="targetPoint" />
          </mxGeometry>
        </mxCell>
        <mxCell id="42Zs52ixs79WXwjUJ5oh-70" value="" style="endArrow=classic;startArrow=classic;html=1;rounded=0;startSize=4;endSize=4;fillColor=#f5f5f5;strokeColor=#666666;fontFamily=Linux Libertine;fontSize=10;" parent="42Zs52ixs79WXwjUJ5oh-1" source="42Zs52ixs79WXwjUJ5oh-8" target="42Zs52ixs79WXwjUJ5oh-7" edge="1">
          <mxGeometry width="50" height="50" relative="1" as="geometry">
            <mxPoint x="243" y="93" as="sourcePoint" />
            <mxPoint x="243" y="75" as="targetPoint" />
          </mxGeometry>
        </mxCell>
        <mxCell id="42Zs52ixs79WXwjUJ5oh-71" value="" style="endArrow=classic;startArrow=classic;html=1;rounded=0;startSize=4;endSize=4;fillColor=#f5f5f5;strokeColor=#666666;fontFamily=Linux Libertine;fontSize=10;" parent="42Zs52ixs79WXwjUJ5oh-1" source="42Zs52ixs79WXwjUJ5oh-33" target="42Zs52ixs79WXwjUJ5oh-32" edge="1">
          <mxGeometry width="50" height="50" relative="1" as="geometry">
            <mxPoint x="243" y="285" as="sourcePoint" />
            <mxPoint x="228" y="230" as="targetPoint" />
          </mxGeometry>
        </mxCell>
        <mxCell id="wcpOClz5_enlrJzVZtBP-0" value="" style="endArrow=classic;startArrow=classic;html=1;rounded=0;startSize=4;endSize=4;fillColor=#f5f5f5;strokeColor=#666666;fontFamily=Linux Libertine;fontSize=10;" parent="42Zs52ixs79WXwjUJ5oh-1" source="42Zs52ixs79WXwjUJ5oh-9" target="42Zs52ixs79WXwjUJ5oh-6" edge="1">
          <mxGeometry width="50" height="50" relative="1" as="geometry">
            <mxPoint x="172" y="115" as="sourcePoint" />
            <mxPoint x="172" y="65" as="targetPoint" />
          </mxGeometry>
        </mxCell>
        <mxCell id="ZolDIt6Ud7V8aQzgrBWl-0" value="" style="endArrow=classic;startArrow=classic;html=1;rounded=0;startSize=4;endSize=4;fillColor=#f5f5f5;strokeColor=#666666;fontFamily=Linux Libertine;fontSize=10;edgeStyle=orthogonalEdgeStyle;curved=1;" parent="42Zs52ixs79WXwjUJ5oh-1" source="42Zs52ixs79WXwjUJ5oh-8" target="42Zs52ixs79WXwjUJ5oh-6" edge="1">
          <mxGeometry width="50" height="50" relative="1" as="geometry">
            <mxPoint x="172" y="115" as="sourcePoint" />
            <mxPoint x="172" y="65" as="targetPoint" />
            <Array as="points">
              <mxPoint x="228" y="80" />
              <mxPoint x="167" y="80" />
            </Array>
          </mxGeometry>
        </mxCell>
        <mxCell id="ZolDIt6Ud7V8aQzgrBWl-1" value="" style="endArrow=classic;startArrow=classic;html=1;rounded=0;startSize=4;endSize=4;fillColor=#f5f5f5;strokeColor=#666666;fontFamily=Linux Libertine;fontSize=10;edgeStyle=orthogonalEdgeStyle;curved=1;" parent="42Zs52ixs79WXwjUJ5oh-1" source="42Zs52ixs79WXwjUJ5oh-40" target="42Zs52ixs79WXwjUJ5oh-8" edge="1">
          <mxGeometry width="50" height="50" relative="1" as="geometry">
            <mxPoint x="233" y="65" as="sourcePoint" />
            <mxPoint x="172" y="65" as="targetPoint" />
            <Array as="points">
              <mxPoint x="288" y="80" />
              <mxPoint x="228" y="80" />
            </Array>
          </mxGeometry>
        </mxCell>
        <mxCell id="ZolDIt6Ud7V8aQzgrBWl-2" value="" style="endArrow=classic;startArrow=classic;html=1;rounded=0;startSize=4;endSize=4;fillColor=#f5f5f5;strokeColor=#666666;fontFamily=Linux Libertine;fontSize=10;edgeStyle=orthogonalEdgeStyle;curved=1;" parent="42Zs52ixs79WXwjUJ5oh-1" source="42Zs52ixs79WXwjUJ5oh-40" target="42Zs52ixs79WXwjUJ5oh-6" edge="1">
          <mxGeometry width="50" height="50" relative="1" as="geometry">
            <mxPoint x="285" y="60" as="sourcePoint" />
            <mxPoint x="225" y="60" as="targetPoint" />
            <Array as="points">
              <mxPoint x="288" y="80" />
              <mxPoint x="167" y="80" />
            </Array>
          </mxGeometry>
        </mxCell>
        <mxCell id="ZolDIt6Ud7V8aQzgrBWl-4" value="" style="endArrow=classic;startArrow=classic;html=1;rounded=0;startSize=4;endSize=4;fillColor=#f5f5f5;strokeColor=#666666;fontFamily=Linux Libertine;fontSize=10;edgeStyle=orthogonalEdgeStyle;curved=1;" parent="42Zs52ixs79WXwjUJ5oh-1" source="42Zs52ixs79WXwjUJ5oh-42" target="42Zs52ixs79WXwjUJ5oh-7" edge="1">
          <mxGeometry width="50" height="50" relative="1" as="geometry">
            <mxPoint x="293" y="65" as="sourcePoint" />
            <mxPoint x="172" y="65" as="targetPoint" />
            <Array as="points">
              <mxPoint x="287" y="90" />
              <mxPoint x="167" y="90" />
            </Array>
          </mxGeometry>
        </mxCell>
        <mxCell id="zqg021pb9XLG1WLyfCqJ-1" value="External Comms. Server" style="rounded=0;whiteSpace=wrap;html=1;fontFamily=Linux Libertine;fontSize=10;verticalAlign=top;horizontal=1;spacing=-3;fillColor=default;strokeColor=#666666;fontColor=#333333;dashed=1;opacity=90;" parent="42Zs52ixs79WXwjUJ5oh-1" vertex="1">
          <mxGeometry x="159.5" y="247.5" width="135" height="15" as="geometry" />
        </mxCell>
        <mxCell id="zqg021pb9XLG1WLyfCqJ-2" value="" style="endArrow=classic;startArrow=classic;html=1;rounded=0;startSize=4;endSize=4;fillColor=#f5f5f5;strokeColor=#666666;fontFamily=Linux Libertine;fontSize=10;edgeStyle=orthogonalEdgeStyle;curved=1;" parent="42Zs52ixs79WXwjUJ5oh-1" source="42Zs52ixs79WXwjUJ5oh-9" target="42Zs52ixs79WXwjUJ5oh-7" edge="1">
          <mxGeometry width="50" height="50" relative="1" as="geometry">
            <mxPoint x="292" y="115" as="sourcePoint" />
            <mxPoint x="172" y="115" as="targetPoint" />
            <Array as="points">
              <mxPoint x="227" y="90" />
              <mxPoint x="167" y="90" />
            </Array>
          </mxGeometry>
        </mxCell>
        <mxCell id="zqg021pb9XLG1WLyfCqJ-3" value="" style="endArrow=classic;startArrow=classic;html=1;rounded=0;startSize=4;endSize=4;fillColor=#f5f5f5;strokeColor=#666666;fontFamily=Linux Libertine;fontSize=10;edgeStyle=orthogonalEdgeStyle;curved=1;" parent="42Zs52ixs79WXwjUJ5oh-1" source="42Zs52ixs79WXwjUJ5oh-42" target="42Zs52ixs79WXwjUJ5oh-9" edge="1">
          <mxGeometry width="50" height="50" relative="1" as="geometry">
            <mxPoint x="297" y="120" as="sourcePoint" />
            <mxPoint x="177" y="120" as="targetPoint" />
            <Array as="points">
              <mxPoint x="287" y="90" />
              <mxPoint x="227" y="90" />
            </Array>
          </mxGeometry>
        </mxCell>
        <mxCell id="42Zs52ixs79WXwjUJ5oh-66" value="External Comms. Server" style="rounded=0;whiteSpace=wrap;html=1;fontFamily=Linux Libertine;fontSize=10;verticalAlign=top;horizontal=1;spacing=-3;fillColor=default;strokeColor=#666666;fontColor=#333333;dashed=1;opacity=90;" parent="42Zs52ixs79WXwjUJ5oh-1" vertex="1">
          <mxGeometry x="160" y="77.5" width="135" height="15" as="geometry" />
        </mxCell>
      </root>
    </mxGraphModel>
  </diagram>
</mxfile>
